%TF.GenerationSoftware,KiCad,Pcbnew,(5.1.5)-3*%
%TF.CreationDate,2020-05-16T01:35:25+02:00*%
%TF.ProjectId,DopplerShiftRadarModule,446f7070-6c65-4725-9368-696674526164,v1.1*%
%TF.SameCoordinates,Original*%
%TF.FileFunction,Copper,L2,Inr*%
%TF.FilePolarity,Positive*%
%FSLAX46Y46*%
G04 Gerber Fmt 4.6, Leading zero omitted, Abs format (unit mm)*
G04 Created by KiCad (PCBNEW (5.1.5)-3) date 2020-05-16 01:35:25*
%MOMM*%
%LPD*%
G04 APERTURE LIST*
%ADD10O,1.727200X1.727200*%
%ADD11R,1.600000X1.600000*%
%ADD12C,1.600000*%
%ADD13C,2.000000*%
%ADD14R,1.700000X1.700000*%
%ADD15O,1.700000X1.700000*%
%ADD16O,1.600000X1.600000*%
%ADD17C,0.800000*%
%ADD18C,0.254000*%
G04 APERTURE END LIST*
D10*
X145923000Y-102616000D03*
X145796000Y-130556000D03*
X143256000Y-130556000D03*
X140716000Y-130556000D03*
X138176000Y-130556000D03*
X135636000Y-130556000D03*
X110236000Y-130556000D03*
X116332000Y-82296000D03*
X113792000Y-82296000D03*
X111252000Y-82296000D03*
X106172000Y-82296000D03*
X103632000Y-82296000D03*
X101092000Y-82296000D03*
X118872000Y-82296000D03*
X121412000Y-82296000D03*
X123952000Y-82296000D03*
X108712000Y-82296000D03*
X128016000Y-82296000D03*
X130556000Y-82296000D03*
X133096000Y-82296000D03*
X135636000Y-82296000D03*
X138176000Y-82296000D03*
X140716000Y-82296000D03*
X143256000Y-82296000D03*
X145796000Y-82296000D03*
X112776000Y-130556000D03*
X115316000Y-130556000D03*
X117856000Y-130556000D03*
X120396000Y-130556000D03*
X122936000Y-130556000D03*
X125476000Y-130556000D03*
X128016000Y-130556000D03*
X133096000Y-130556000D03*
X148463000Y-102616000D03*
X145923000Y-105156000D03*
X148463000Y-105156000D03*
X148463000Y-107696000D03*
X145923000Y-107696000D03*
D11*
X86868000Y-115824000D03*
D12*
X84868000Y-115824000D03*
X88614000Y-97536000D03*
D11*
X86614000Y-97536000D03*
D12*
X104474000Y-119126000D03*
X109474000Y-119126000D03*
X85852000Y-90678000D03*
X90852000Y-90678000D03*
D11*
X123952000Y-121412000D03*
D12*
X125952000Y-121412000D03*
X125476000Y-109982000D03*
X125476000Y-114982000D03*
D13*
X137414000Y-122936000D03*
D14*
X93218000Y-104902000D03*
D15*
X93218000Y-107442000D03*
X93218000Y-109982000D03*
D13*
X132080000Y-102108000D03*
X86106000Y-85598000D03*
X120000000Y-123000000D03*
X103124000Y-97790000D03*
X124206000Y-89154000D03*
X115062000Y-117856000D03*
X120000000Y-86000000D03*
X143000000Y-86000000D03*
X136000000Y-86000000D03*
X129000000Y-86000000D03*
D16*
X95758000Y-97790000D03*
D12*
X95758000Y-90170000D03*
X99568000Y-110236000D03*
D16*
X99568000Y-102616000D03*
D12*
X93726000Y-125476000D03*
D16*
X86106000Y-125476000D03*
D12*
X98806000Y-117348000D03*
D16*
X91186000Y-117348000D03*
D12*
X131826000Y-114808000D03*
D16*
X131826000Y-122428000D03*
X118872000Y-114046000D03*
D12*
X118872000Y-106426000D03*
X137414000Y-119888000D03*
D16*
X137414000Y-112268000D03*
D13*
X108000000Y-91500000D03*
X108000000Y-87000000D03*
X114500000Y-91500000D03*
X114500000Y-87000000D03*
D11*
X104648000Y-104902000D03*
D16*
X112268000Y-112522000D03*
X104648000Y-107442000D03*
X112268000Y-109982000D03*
X104648000Y-109982000D03*
X112268000Y-107442000D03*
X104648000Y-112522000D03*
X112268000Y-104902000D03*
D17*
X113000000Y-99000000D03*
X118000000Y-101000000D03*
D18*
G36*
X96111271Y-80559962D02*
G01*
X95799962Y-80871271D01*
X95555369Y-81237331D01*
X95386890Y-81644075D01*
X95301000Y-82075872D01*
X95301000Y-82516128D01*
X95386890Y-82947925D01*
X95555369Y-83354669D01*
X95799962Y-83720729D01*
X96111271Y-84032038D01*
X96477331Y-84276631D01*
X96884075Y-84445110D01*
X97315872Y-84531000D01*
X97756128Y-84531000D01*
X98187925Y-84445110D01*
X98594669Y-84276631D01*
X98933000Y-84050566D01*
X98933000Y-95504000D01*
X98935440Y-95528776D01*
X98942667Y-95552601D01*
X98954403Y-95574557D01*
X98970197Y-95593803D01*
X98989443Y-95609597D01*
X99011399Y-95621333D01*
X99035224Y-95628560D01*
X99060000Y-95631000D01*
X105029000Y-95631000D01*
X105029000Y-101600000D01*
X105031440Y-101624776D01*
X105038667Y-101648601D01*
X105050403Y-101670557D01*
X105066197Y-101689803D01*
X105085443Y-101705597D01*
X105107399Y-101717333D01*
X105131224Y-101724560D01*
X105156000Y-101727000D01*
X115189000Y-101727000D01*
X115189000Y-104140000D01*
X115191440Y-104164776D01*
X115198667Y-104188601D01*
X115210403Y-104210557D01*
X115226197Y-104229803D01*
X115245443Y-104245597D01*
X115267399Y-104257333D01*
X115291224Y-104264560D01*
X115316000Y-104267000D01*
X121793000Y-104267000D01*
X121793000Y-107188000D01*
X121795440Y-107212776D01*
X121802667Y-107236601D01*
X121814403Y-107258557D01*
X121830197Y-107277803D01*
X121849443Y-107293597D01*
X121871399Y-107305333D01*
X121895224Y-107312560D01*
X121920000Y-107315000D01*
X129413000Y-107315000D01*
X129413000Y-109728000D01*
X129415440Y-109752776D01*
X129422667Y-109776601D01*
X129434403Y-109798557D01*
X129450197Y-109817803D01*
X129469443Y-109833597D01*
X129491399Y-109845333D01*
X129515224Y-109852560D01*
X129540000Y-109855000D01*
X139573000Y-109855000D01*
X139573000Y-126873000D01*
X99060000Y-126873000D01*
X99035224Y-126875440D01*
X99011399Y-126882667D01*
X98989443Y-126894403D01*
X98970197Y-126910197D01*
X98954403Y-126929443D01*
X98942667Y-126951399D01*
X98935440Y-126975224D01*
X98933000Y-127000000D01*
X98933000Y-132436000D01*
X97475274Y-132436000D01*
X97690729Y-132292038D01*
X98002038Y-131980729D01*
X98246631Y-131614669D01*
X98415110Y-131207925D01*
X98501000Y-130776128D01*
X98501000Y-130335872D01*
X98415110Y-129904075D01*
X98246631Y-129497331D01*
X98002038Y-129131271D01*
X97690729Y-128819962D01*
X97324669Y-128575369D01*
X96917925Y-128406890D01*
X96486128Y-128321000D01*
X96045872Y-128321000D01*
X95614075Y-128406890D01*
X95207331Y-128575369D01*
X94841271Y-128819962D01*
X94529962Y-129131271D01*
X94285369Y-129497331D01*
X94116890Y-129904075D01*
X94031000Y-130335872D01*
X94031000Y-130776128D01*
X94116890Y-131207925D01*
X94285369Y-131614669D01*
X94529962Y-131980729D01*
X94841271Y-132292038D01*
X95056726Y-132436000D01*
X82956000Y-132436000D01*
X82956000Y-125334665D01*
X84671000Y-125334665D01*
X84671000Y-125617335D01*
X84726147Y-125894574D01*
X84834320Y-126155727D01*
X84991363Y-126390759D01*
X85191241Y-126590637D01*
X85426273Y-126747680D01*
X85687426Y-126855853D01*
X85964665Y-126911000D01*
X86247335Y-126911000D01*
X86524574Y-126855853D01*
X86785727Y-126747680D01*
X87020759Y-126590637D01*
X87220637Y-126390759D01*
X87377680Y-126155727D01*
X87485853Y-125894574D01*
X87541000Y-125617335D01*
X87541000Y-125334665D01*
X92291000Y-125334665D01*
X92291000Y-125617335D01*
X92346147Y-125894574D01*
X92454320Y-126155727D01*
X92611363Y-126390759D01*
X92811241Y-126590637D01*
X93046273Y-126747680D01*
X93307426Y-126855853D01*
X93584665Y-126911000D01*
X93867335Y-126911000D01*
X94144574Y-126855853D01*
X94405727Y-126747680D01*
X94640759Y-126590637D01*
X94840637Y-126390759D01*
X94997680Y-126155727D01*
X95105853Y-125894574D01*
X95161000Y-125617335D01*
X95161000Y-125334665D01*
X95105853Y-125057426D01*
X94997680Y-124796273D01*
X94840637Y-124561241D01*
X94640759Y-124361363D01*
X94405727Y-124204320D01*
X94144574Y-124096147D01*
X93867335Y-124041000D01*
X93584665Y-124041000D01*
X93307426Y-124096147D01*
X93046273Y-124204320D01*
X92811241Y-124361363D01*
X92611363Y-124561241D01*
X92454320Y-124796273D01*
X92346147Y-125057426D01*
X92291000Y-125334665D01*
X87541000Y-125334665D01*
X87485853Y-125057426D01*
X87377680Y-124796273D01*
X87220637Y-124561241D01*
X87020759Y-124361363D01*
X86785727Y-124204320D01*
X86524574Y-124096147D01*
X86247335Y-124041000D01*
X85964665Y-124041000D01*
X85687426Y-124096147D01*
X85426273Y-124204320D01*
X85191241Y-124361363D01*
X84991363Y-124561241D01*
X84834320Y-124796273D01*
X84726147Y-125057426D01*
X84671000Y-125334665D01*
X82956000Y-125334665D01*
X82956000Y-122838967D01*
X118365000Y-122838967D01*
X118365000Y-123161033D01*
X118427832Y-123476912D01*
X118551082Y-123774463D01*
X118730013Y-124042252D01*
X118957748Y-124269987D01*
X119225537Y-124448918D01*
X119523088Y-124572168D01*
X119838967Y-124635000D01*
X120161033Y-124635000D01*
X120476912Y-124572168D01*
X120774463Y-124448918D01*
X121042252Y-124269987D01*
X121269987Y-124042252D01*
X121448918Y-123774463D01*
X121572168Y-123476912D01*
X121635000Y-123161033D01*
X121635000Y-122838967D01*
X121572168Y-122523088D01*
X121448918Y-122225537D01*
X121269987Y-121957748D01*
X121042252Y-121730013D01*
X120774463Y-121551082D01*
X120476912Y-121427832D01*
X120161033Y-121365000D01*
X119838967Y-121365000D01*
X119523088Y-121427832D01*
X119225537Y-121551082D01*
X118957748Y-121730013D01*
X118730013Y-121957748D01*
X118551082Y-122225537D01*
X118427832Y-122523088D01*
X118365000Y-122838967D01*
X82956000Y-122838967D01*
X82956000Y-120612000D01*
X122513928Y-120612000D01*
X122513928Y-122212000D01*
X122526188Y-122336482D01*
X122562498Y-122456180D01*
X122621463Y-122566494D01*
X122700815Y-122663185D01*
X122797506Y-122742537D01*
X122907820Y-122801502D01*
X123027518Y-122837812D01*
X123152000Y-122850072D01*
X124752000Y-122850072D01*
X124876482Y-122837812D01*
X124996180Y-122801502D01*
X125106494Y-122742537D01*
X125203185Y-122663185D01*
X125216790Y-122646607D01*
X125272273Y-122683680D01*
X125533426Y-122791853D01*
X125810665Y-122847000D01*
X126093335Y-122847000D01*
X126370574Y-122791853D01*
X126631727Y-122683680D01*
X126866759Y-122526637D01*
X127066637Y-122326759D01*
X127093426Y-122286665D01*
X130391000Y-122286665D01*
X130391000Y-122569335D01*
X130446147Y-122846574D01*
X130554320Y-123107727D01*
X130711363Y-123342759D01*
X130911241Y-123542637D01*
X131146273Y-123699680D01*
X131407426Y-123807853D01*
X131684665Y-123863000D01*
X131967335Y-123863000D01*
X132244574Y-123807853D01*
X132505727Y-123699680D01*
X132740759Y-123542637D01*
X132940637Y-123342759D01*
X133097680Y-123107727D01*
X133205853Y-122846574D01*
X133220096Y-122774967D01*
X135779000Y-122774967D01*
X135779000Y-123097033D01*
X135841832Y-123412912D01*
X135965082Y-123710463D01*
X136144013Y-123978252D01*
X136371748Y-124205987D01*
X136639537Y-124384918D01*
X136937088Y-124508168D01*
X137252967Y-124571000D01*
X137575033Y-124571000D01*
X137890912Y-124508168D01*
X138188463Y-124384918D01*
X138456252Y-124205987D01*
X138683987Y-123978252D01*
X138862918Y-123710463D01*
X138986168Y-123412912D01*
X139049000Y-123097033D01*
X139049000Y-122774967D01*
X138986168Y-122459088D01*
X138862918Y-122161537D01*
X138683987Y-121893748D01*
X138456252Y-121666013D01*
X138188463Y-121487082D01*
X137890912Y-121363832D01*
X137620484Y-121310041D01*
X137832574Y-121267853D01*
X138093727Y-121159680D01*
X138328759Y-121002637D01*
X138528637Y-120802759D01*
X138685680Y-120567727D01*
X138793853Y-120306574D01*
X138849000Y-120029335D01*
X138849000Y-119746665D01*
X138793853Y-119469426D01*
X138685680Y-119208273D01*
X138528637Y-118973241D01*
X138328759Y-118773363D01*
X138093727Y-118616320D01*
X137832574Y-118508147D01*
X137555335Y-118453000D01*
X137272665Y-118453000D01*
X136995426Y-118508147D01*
X136734273Y-118616320D01*
X136499241Y-118773363D01*
X136299363Y-118973241D01*
X136142320Y-119208273D01*
X136034147Y-119469426D01*
X135979000Y-119746665D01*
X135979000Y-120029335D01*
X136034147Y-120306574D01*
X136142320Y-120567727D01*
X136299363Y-120802759D01*
X136499241Y-121002637D01*
X136734273Y-121159680D01*
X136995426Y-121267853D01*
X137207516Y-121310041D01*
X136937088Y-121363832D01*
X136639537Y-121487082D01*
X136371748Y-121666013D01*
X136144013Y-121893748D01*
X135965082Y-122161537D01*
X135841832Y-122459088D01*
X135779000Y-122774967D01*
X133220096Y-122774967D01*
X133261000Y-122569335D01*
X133261000Y-122286665D01*
X133205853Y-122009426D01*
X133097680Y-121748273D01*
X132940637Y-121513241D01*
X132740759Y-121313363D01*
X132505727Y-121156320D01*
X132244574Y-121048147D01*
X131967335Y-120993000D01*
X131684665Y-120993000D01*
X131407426Y-121048147D01*
X131146273Y-121156320D01*
X130911241Y-121313363D01*
X130711363Y-121513241D01*
X130554320Y-121748273D01*
X130446147Y-122009426D01*
X130391000Y-122286665D01*
X127093426Y-122286665D01*
X127223680Y-122091727D01*
X127331853Y-121830574D01*
X127387000Y-121553335D01*
X127387000Y-121270665D01*
X127331853Y-120993426D01*
X127223680Y-120732273D01*
X127066637Y-120497241D01*
X126866759Y-120297363D01*
X126631727Y-120140320D01*
X126370574Y-120032147D01*
X126093335Y-119977000D01*
X125810665Y-119977000D01*
X125533426Y-120032147D01*
X125272273Y-120140320D01*
X125216790Y-120177393D01*
X125203185Y-120160815D01*
X125106494Y-120081463D01*
X124996180Y-120022498D01*
X124876482Y-119986188D01*
X124752000Y-119973928D01*
X123152000Y-119973928D01*
X123027518Y-119986188D01*
X122907820Y-120022498D01*
X122797506Y-120081463D01*
X122700815Y-120160815D01*
X122621463Y-120257506D01*
X122562498Y-120367820D01*
X122526188Y-120487518D01*
X122513928Y-120612000D01*
X82956000Y-120612000D01*
X82956000Y-118984665D01*
X103039000Y-118984665D01*
X103039000Y-119267335D01*
X103094147Y-119544574D01*
X103202320Y-119805727D01*
X103359363Y-120040759D01*
X103559241Y-120240637D01*
X103794273Y-120397680D01*
X104055426Y-120505853D01*
X104332665Y-120561000D01*
X104615335Y-120561000D01*
X104892574Y-120505853D01*
X105153727Y-120397680D01*
X105388759Y-120240637D01*
X105588637Y-120040759D01*
X105745680Y-119805727D01*
X105853853Y-119544574D01*
X105909000Y-119267335D01*
X105909000Y-118984665D01*
X108039000Y-118984665D01*
X108039000Y-119267335D01*
X108094147Y-119544574D01*
X108202320Y-119805727D01*
X108359363Y-120040759D01*
X108559241Y-120240637D01*
X108794273Y-120397680D01*
X109055426Y-120505853D01*
X109332665Y-120561000D01*
X109615335Y-120561000D01*
X109892574Y-120505853D01*
X110153727Y-120397680D01*
X110388759Y-120240637D01*
X110588637Y-120040759D01*
X110745680Y-119805727D01*
X110853853Y-119544574D01*
X110909000Y-119267335D01*
X110909000Y-118991413D01*
X114106192Y-118991413D01*
X114201956Y-119255814D01*
X114491571Y-119396704D01*
X114803108Y-119478384D01*
X115124595Y-119497718D01*
X115443675Y-119453961D01*
X115748088Y-119348795D01*
X115922044Y-119255814D01*
X116017808Y-118991413D01*
X115062000Y-118035605D01*
X114106192Y-118991413D01*
X110909000Y-118991413D01*
X110909000Y-118984665D01*
X110853853Y-118707426D01*
X110745680Y-118446273D01*
X110588637Y-118211241D01*
X110388759Y-118011363D01*
X110249922Y-117918595D01*
X113420282Y-117918595D01*
X113464039Y-118237675D01*
X113569205Y-118542088D01*
X113662186Y-118716044D01*
X113926587Y-118811808D01*
X114882395Y-117856000D01*
X115241605Y-117856000D01*
X116197413Y-118811808D01*
X116461814Y-118716044D01*
X116602704Y-118426429D01*
X116684384Y-118114892D01*
X116703718Y-117793405D01*
X116659961Y-117474325D01*
X116554795Y-117169912D01*
X116461814Y-116995956D01*
X116197413Y-116900192D01*
X115241605Y-117856000D01*
X114882395Y-117856000D01*
X113926587Y-116900192D01*
X113662186Y-116995956D01*
X113521296Y-117285571D01*
X113439616Y-117597108D01*
X113420282Y-117918595D01*
X110249922Y-117918595D01*
X110153727Y-117854320D01*
X109892574Y-117746147D01*
X109615335Y-117691000D01*
X109332665Y-117691000D01*
X109055426Y-117746147D01*
X108794273Y-117854320D01*
X108559241Y-118011363D01*
X108359363Y-118211241D01*
X108202320Y-118446273D01*
X108094147Y-118707426D01*
X108039000Y-118984665D01*
X105909000Y-118984665D01*
X105853853Y-118707426D01*
X105745680Y-118446273D01*
X105588637Y-118211241D01*
X105388759Y-118011363D01*
X105153727Y-117854320D01*
X104892574Y-117746147D01*
X104615335Y-117691000D01*
X104332665Y-117691000D01*
X104055426Y-117746147D01*
X103794273Y-117854320D01*
X103559241Y-118011363D01*
X103359363Y-118211241D01*
X103202320Y-118446273D01*
X103094147Y-118707426D01*
X103039000Y-118984665D01*
X82956000Y-118984665D01*
X82956000Y-115682665D01*
X83433000Y-115682665D01*
X83433000Y-115965335D01*
X83488147Y-116242574D01*
X83596320Y-116503727D01*
X83753363Y-116738759D01*
X83953241Y-116938637D01*
X84188273Y-117095680D01*
X84449426Y-117203853D01*
X84726665Y-117259000D01*
X85009335Y-117259000D01*
X85286574Y-117203853D01*
X85547727Y-117095680D01*
X85603210Y-117058607D01*
X85616815Y-117075185D01*
X85713506Y-117154537D01*
X85823820Y-117213502D01*
X85943518Y-117249812D01*
X86068000Y-117262072D01*
X87668000Y-117262072D01*
X87792482Y-117249812D01*
X87912180Y-117213502D01*
X87924970Y-117206665D01*
X89751000Y-117206665D01*
X89751000Y-117489335D01*
X89806147Y-117766574D01*
X89914320Y-118027727D01*
X90071363Y-118262759D01*
X90271241Y-118462637D01*
X90506273Y-118619680D01*
X90767426Y-118727853D01*
X91044665Y-118783000D01*
X91327335Y-118783000D01*
X91604574Y-118727853D01*
X91865727Y-118619680D01*
X92100759Y-118462637D01*
X92300637Y-118262759D01*
X92457680Y-118027727D01*
X92565853Y-117766574D01*
X92621000Y-117489335D01*
X92621000Y-117206665D01*
X97371000Y-117206665D01*
X97371000Y-117489335D01*
X97426147Y-117766574D01*
X97534320Y-118027727D01*
X97691363Y-118262759D01*
X97891241Y-118462637D01*
X98126273Y-118619680D01*
X98387426Y-118727853D01*
X98664665Y-118783000D01*
X98947335Y-118783000D01*
X99224574Y-118727853D01*
X99485727Y-118619680D01*
X99720759Y-118462637D01*
X99920637Y-118262759D01*
X100077680Y-118027727D01*
X100185853Y-117766574D01*
X100241000Y-117489335D01*
X100241000Y-117206665D01*
X100185853Y-116929426D01*
X100099350Y-116720587D01*
X114106192Y-116720587D01*
X115062000Y-117676395D01*
X116017808Y-116720587D01*
X115922044Y-116456186D01*
X115632429Y-116315296D01*
X115320892Y-116233616D01*
X114999405Y-116214282D01*
X114680325Y-116258039D01*
X114375912Y-116363205D01*
X114201956Y-116456186D01*
X114106192Y-116720587D01*
X100099350Y-116720587D01*
X100077680Y-116668273D01*
X99920637Y-116433241D01*
X99720759Y-116233363D01*
X99485727Y-116076320D01*
X99224574Y-115968147D01*
X98947335Y-115913000D01*
X98664665Y-115913000D01*
X98387426Y-115968147D01*
X98126273Y-116076320D01*
X97891241Y-116233363D01*
X97691363Y-116433241D01*
X97534320Y-116668273D01*
X97426147Y-116929426D01*
X97371000Y-117206665D01*
X92621000Y-117206665D01*
X92565853Y-116929426D01*
X92457680Y-116668273D01*
X92300637Y-116433241D01*
X92100759Y-116233363D01*
X91865727Y-116076320D01*
X91604574Y-115968147D01*
X91327335Y-115913000D01*
X91044665Y-115913000D01*
X90767426Y-115968147D01*
X90506273Y-116076320D01*
X90271241Y-116233363D01*
X90071363Y-116433241D01*
X89914320Y-116668273D01*
X89806147Y-116929426D01*
X89751000Y-117206665D01*
X87924970Y-117206665D01*
X88022494Y-117154537D01*
X88119185Y-117075185D01*
X88198537Y-116978494D01*
X88257502Y-116868180D01*
X88293812Y-116748482D01*
X88306072Y-116624000D01*
X88306072Y-115024000D01*
X88293812Y-114899518D01*
X88257502Y-114779820D01*
X88198537Y-114669506D01*
X88119185Y-114572815D01*
X88022494Y-114493463D01*
X87912180Y-114434498D01*
X87792482Y-114398188D01*
X87668000Y-114385928D01*
X86068000Y-114385928D01*
X85943518Y-114398188D01*
X85823820Y-114434498D01*
X85713506Y-114493463D01*
X85616815Y-114572815D01*
X85603210Y-114589393D01*
X85547727Y-114552320D01*
X85286574Y-114444147D01*
X85009335Y-114389000D01*
X84726665Y-114389000D01*
X84449426Y-114444147D01*
X84188273Y-114552320D01*
X83953241Y-114709363D01*
X83753363Y-114909241D01*
X83596320Y-115144273D01*
X83488147Y-115405426D01*
X83433000Y-115682665D01*
X82956000Y-115682665D01*
X82956000Y-112871039D01*
X103256096Y-112871039D01*
X103296754Y-113005087D01*
X103416963Y-113259420D01*
X103584481Y-113485414D01*
X103792869Y-113674385D01*
X104034119Y-113819070D01*
X104298960Y-113913909D01*
X104521000Y-113792624D01*
X104521000Y-112649000D01*
X104775000Y-112649000D01*
X104775000Y-113792624D01*
X104997040Y-113913909D01*
X105261881Y-113819070D01*
X105503131Y-113674385D01*
X105711519Y-113485414D01*
X105879037Y-113259420D01*
X105999246Y-113005087D01*
X106039904Y-112871039D01*
X105917915Y-112649000D01*
X104775000Y-112649000D01*
X104521000Y-112649000D01*
X103378085Y-112649000D01*
X103256096Y-112871039D01*
X82956000Y-112871039D01*
X82956000Y-110338890D01*
X91776524Y-110338890D01*
X91821175Y-110486099D01*
X91946359Y-110748920D01*
X92120412Y-110982269D01*
X92336645Y-111177178D01*
X92586748Y-111326157D01*
X92861109Y-111423481D01*
X93091000Y-111302814D01*
X93091000Y-110109000D01*
X93345000Y-110109000D01*
X93345000Y-111302814D01*
X93574891Y-111423481D01*
X93849252Y-111326157D01*
X94099355Y-111177178D01*
X94315588Y-110982269D01*
X94489641Y-110748920D01*
X94614825Y-110486099D01*
X94659476Y-110338890D01*
X94538155Y-110109000D01*
X93345000Y-110109000D01*
X93091000Y-110109000D01*
X91897845Y-110109000D01*
X91776524Y-110338890D01*
X82956000Y-110338890D01*
X82956000Y-110094665D01*
X98133000Y-110094665D01*
X98133000Y-110377335D01*
X98188147Y-110654574D01*
X98296320Y-110915727D01*
X98453363Y-111150759D01*
X98653241Y-111350637D01*
X98888273Y-111507680D01*
X99149426Y-111615853D01*
X99426665Y-111671000D01*
X99709335Y-111671000D01*
X99986574Y-111615853D01*
X100247727Y-111507680D01*
X100482759Y-111350637D01*
X100682637Y-111150759D01*
X100839680Y-110915727D01*
X100947853Y-110654574D01*
X101003000Y-110377335D01*
X101003000Y-110094665D01*
X100947853Y-109817426D01*
X100839680Y-109556273D01*
X100682637Y-109321241D01*
X100482759Y-109121363D01*
X100247727Y-108964320D01*
X99986574Y-108856147D01*
X99709335Y-108801000D01*
X99426665Y-108801000D01*
X99149426Y-108856147D01*
X98888273Y-108964320D01*
X98653241Y-109121363D01*
X98453363Y-109321241D01*
X98296320Y-109556273D01*
X98188147Y-109817426D01*
X98133000Y-110094665D01*
X82956000Y-110094665D01*
X82956000Y-104052000D01*
X91729928Y-104052000D01*
X91729928Y-105752000D01*
X91742188Y-105876482D01*
X91778498Y-105996180D01*
X91837463Y-106106494D01*
X91916815Y-106203185D01*
X92013506Y-106282537D01*
X92123820Y-106341502D01*
X92196380Y-106363513D01*
X92064525Y-106495368D01*
X91902010Y-106738589D01*
X91790068Y-107008842D01*
X91733000Y-107295740D01*
X91733000Y-107588260D01*
X91790068Y-107875158D01*
X91902010Y-108145411D01*
X92064525Y-108388632D01*
X92271368Y-108595475D01*
X92453534Y-108717195D01*
X92336645Y-108786822D01*
X92120412Y-108981731D01*
X91946359Y-109215080D01*
X91821175Y-109477901D01*
X91776524Y-109625110D01*
X91897845Y-109855000D01*
X93091000Y-109855000D01*
X93091000Y-109835000D01*
X93345000Y-109835000D01*
X93345000Y-109855000D01*
X94538155Y-109855000D01*
X94659476Y-109625110D01*
X94614825Y-109477901D01*
X94489641Y-109215080D01*
X94315588Y-108981731D01*
X94099355Y-108786822D01*
X93982466Y-108717195D01*
X94164632Y-108595475D01*
X94371475Y-108388632D01*
X94533990Y-108145411D01*
X94645932Y-107875158D01*
X94703000Y-107588260D01*
X94703000Y-107295740D01*
X94645932Y-107008842D01*
X94533990Y-106738589D01*
X94371475Y-106495368D01*
X94239620Y-106363513D01*
X94312180Y-106341502D01*
X94422494Y-106282537D01*
X94519185Y-106203185D01*
X94598537Y-106106494D01*
X94657502Y-105996180D01*
X94693812Y-105876482D01*
X94706072Y-105752000D01*
X94706072Y-104102000D01*
X103209928Y-104102000D01*
X103209928Y-105702000D01*
X103222188Y-105826482D01*
X103258498Y-105946180D01*
X103317463Y-106056494D01*
X103396815Y-106153185D01*
X103493506Y-106232537D01*
X103603820Y-106291502D01*
X103723518Y-106327812D01*
X103731961Y-106328643D01*
X103533363Y-106527241D01*
X103376320Y-106762273D01*
X103268147Y-107023426D01*
X103213000Y-107300665D01*
X103213000Y-107583335D01*
X103268147Y-107860574D01*
X103376320Y-108121727D01*
X103533363Y-108356759D01*
X103733241Y-108556637D01*
X103965759Y-108712000D01*
X103733241Y-108867363D01*
X103533363Y-109067241D01*
X103376320Y-109302273D01*
X103268147Y-109563426D01*
X103213000Y-109840665D01*
X103213000Y-110123335D01*
X103268147Y-110400574D01*
X103376320Y-110661727D01*
X103533363Y-110896759D01*
X103733241Y-111096637D01*
X103968273Y-111253680D01*
X103978865Y-111258067D01*
X103792869Y-111369615D01*
X103584481Y-111558586D01*
X103416963Y-111784580D01*
X103296754Y-112038913D01*
X103256096Y-112172961D01*
X103378085Y-112395000D01*
X104521000Y-112395000D01*
X104521000Y-112375000D01*
X104775000Y-112375000D01*
X104775000Y-112395000D01*
X105917915Y-112395000D01*
X106039904Y-112172961D01*
X105999246Y-112038913D01*
X105879037Y-111784580D01*
X105711519Y-111558586D01*
X105503131Y-111369615D01*
X105317135Y-111258067D01*
X105327727Y-111253680D01*
X105562759Y-111096637D01*
X105762637Y-110896759D01*
X105919680Y-110661727D01*
X106027853Y-110400574D01*
X106083000Y-110123335D01*
X106083000Y-109840665D01*
X106027853Y-109563426D01*
X105919680Y-109302273D01*
X105762637Y-109067241D01*
X105562759Y-108867363D01*
X105330241Y-108712000D01*
X105562759Y-108556637D01*
X105762637Y-108356759D01*
X105919680Y-108121727D01*
X106027853Y-107860574D01*
X106083000Y-107583335D01*
X106083000Y-107300665D01*
X106027853Y-107023426D01*
X105919680Y-106762273D01*
X105762637Y-106527241D01*
X105564039Y-106328643D01*
X105572482Y-106327812D01*
X105692180Y-106291502D01*
X105802494Y-106232537D01*
X105899185Y-106153185D01*
X105978537Y-106056494D01*
X106037502Y-105946180D01*
X106073812Y-105826482D01*
X106086072Y-105702000D01*
X106086072Y-104760665D01*
X110833000Y-104760665D01*
X110833000Y-105043335D01*
X110888147Y-105320574D01*
X110996320Y-105581727D01*
X111153363Y-105816759D01*
X111353241Y-106016637D01*
X111585759Y-106172000D01*
X111353241Y-106327363D01*
X111153363Y-106527241D01*
X110996320Y-106762273D01*
X110888147Y-107023426D01*
X110833000Y-107300665D01*
X110833000Y-107583335D01*
X110888147Y-107860574D01*
X110996320Y-108121727D01*
X111153363Y-108356759D01*
X111353241Y-108556637D01*
X111585759Y-108712000D01*
X111353241Y-108867363D01*
X111153363Y-109067241D01*
X110996320Y-109302273D01*
X110888147Y-109563426D01*
X110833000Y-109840665D01*
X110833000Y-110123335D01*
X110888147Y-110400574D01*
X110996320Y-110661727D01*
X111153363Y-110896759D01*
X111353241Y-111096637D01*
X111585759Y-111252000D01*
X111353241Y-111407363D01*
X111153363Y-111607241D01*
X110996320Y-111842273D01*
X110888147Y-112103426D01*
X110833000Y-112380665D01*
X110833000Y-112663335D01*
X110888147Y-112940574D01*
X110996320Y-113201727D01*
X111153363Y-113436759D01*
X111353241Y-113636637D01*
X111588273Y-113793680D01*
X111849426Y-113901853D01*
X112126665Y-113957000D01*
X112409335Y-113957000D01*
X112672437Y-113904665D01*
X117437000Y-113904665D01*
X117437000Y-114187335D01*
X117492147Y-114464574D01*
X117600320Y-114725727D01*
X117757363Y-114960759D01*
X117957241Y-115160637D01*
X118192273Y-115317680D01*
X118453426Y-115425853D01*
X118730665Y-115481000D01*
X119013335Y-115481000D01*
X119290574Y-115425853D01*
X119551727Y-115317680D01*
X119786759Y-115160637D01*
X119986637Y-114960759D01*
X120066881Y-114840665D01*
X124041000Y-114840665D01*
X124041000Y-115123335D01*
X124096147Y-115400574D01*
X124204320Y-115661727D01*
X124361363Y-115896759D01*
X124561241Y-116096637D01*
X124796273Y-116253680D01*
X125057426Y-116361853D01*
X125334665Y-116417000D01*
X125617335Y-116417000D01*
X125894574Y-116361853D01*
X126155727Y-116253680D01*
X126390759Y-116096637D01*
X126590637Y-115896759D01*
X126747680Y-115661727D01*
X126855853Y-115400574D01*
X126911000Y-115123335D01*
X126911000Y-114840665D01*
X126876389Y-114666665D01*
X130391000Y-114666665D01*
X130391000Y-114949335D01*
X130446147Y-115226574D01*
X130554320Y-115487727D01*
X130711363Y-115722759D01*
X130911241Y-115922637D01*
X131146273Y-116079680D01*
X131407426Y-116187853D01*
X131684665Y-116243000D01*
X131967335Y-116243000D01*
X132244574Y-116187853D01*
X132505727Y-116079680D01*
X132740759Y-115922637D01*
X132940637Y-115722759D01*
X133097680Y-115487727D01*
X133205853Y-115226574D01*
X133261000Y-114949335D01*
X133261000Y-114666665D01*
X133205853Y-114389426D01*
X133097680Y-114128273D01*
X132940637Y-113893241D01*
X132740759Y-113693363D01*
X132505727Y-113536320D01*
X132244574Y-113428147D01*
X131967335Y-113373000D01*
X131684665Y-113373000D01*
X131407426Y-113428147D01*
X131146273Y-113536320D01*
X130911241Y-113693363D01*
X130711363Y-113893241D01*
X130554320Y-114128273D01*
X130446147Y-114389426D01*
X130391000Y-114666665D01*
X126876389Y-114666665D01*
X126855853Y-114563426D01*
X126747680Y-114302273D01*
X126590637Y-114067241D01*
X126390759Y-113867363D01*
X126155727Y-113710320D01*
X125894574Y-113602147D01*
X125617335Y-113547000D01*
X125334665Y-113547000D01*
X125057426Y-113602147D01*
X124796273Y-113710320D01*
X124561241Y-113867363D01*
X124361363Y-114067241D01*
X124204320Y-114302273D01*
X124096147Y-114563426D01*
X124041000Y-114840665D01*
X120066881Y-114840665D01*
X120143680Y-114725727D01*
X120251853Y-114464574D01*
X120307000Y-114187335D01*
X120307000Y-113904665D01*
X120251853Y-113627426D01*
X120143680Y-113366273D01*
X119986637Y-113131241D01*
X119786759Y-112931363D01*
X119551727Y-112774320D01*
X119290574Y-112666147D01*
X119013335Y-112611000D01*
X118730665Y-112611000D01*
X118453426Y-112666147D01*
X118192273Y-112774320D01*
X117957241Y-112931363D01*
X117757363Y-113131241D01*
X117600320Y-113366273D01*
X117492147Y-113627426D01*
X117437000Y-113904665D01*
X112672437Y-113904665D01*
X112686574Y-113901853D01*
X112947727Y-113793680D01*
X113182759Y-113636637D01*
X113382637Y-113436759D01*
X113539680Y-113201727D01*
X113647853Y-112940574D01*
X113703000Y-112663335D01*
X113703000Y-112380665D01*
X113652476Y-112126665D01*
X135979000Y-112126665D01*
X135979000Y-112409335D01*
X136034147Y-112686574D01*
X136142320Y-112947727D01*
X136299363Y-113182759D01*
X136499241Y-113382637D01*
X136734273Y-113539680D01*
X136995426Y-113647853D01*
X137272665Y-113703000D01*
X137555335Y-113703000D01*
X137832574Y-113647853D01*
X138093727Y-113539680D01*
X138328759Y-113382637D01*
X138528637Y-113182759D01*
X138685680Y-112947727D01*
X138793853Y-112686574D01*
X138849000Y-112409335D01*
X138849000Y-112126665D01*
X138793853Y-111849426D01*
X138685680Y-111588273D01*
X138528637Y-111353241D01*
X138328759Y-111153363D01*
X138093727Y-110996320D01*
X137832574Y-110888147D01*
X137555335Y-110833000D01*
X137272665Y-110833000D01*
X136995426Y-110888147D01*
X136734273Y-110996320D01*
X136499241Y-111153363D01*
X136299363Y-111353241D01*
X136142320Y-111588273D01*
X136034147Y-111849426D01*
X135979000Y-112126665D01*
X113652476Y-112126665D01*
X113647853Y-112103426D01*
X113539680Y-111842273D01*
X113382637Y-111607241D01*
X113182759Y-111407363D01*
X112950241Y-111252000D01*
X113182759Y-111096637D01*
X113382637Y-110896759D01*
X113539680Y-110661727D01*
X113647853Y-110400574D01*
X113703000Y-110123335D01*
X113703000Y-109840665D01*
X124041000Y-109840665D01*
X124041000Y-110123335D01*
X124096147Y-110400574D01*
X124204320Y-110661727D01*
X124361363Y-110896759D01*
X124561241Y-111096637D01*
X124796273Y-111253680D01*
X125057426Y-111361853D01*
X125334665Y-111417000D01*
X125617335Y-111417000D01*
X125894574Y-111361853D01*
X126155727Y-111253680D01*
X126390759Y-111096637D01*
X126590637Y-110896759D01*
X126747680Y-110661727D01*
X126855853Y-110400574D01*
X126911000Y-110123335D01*
X126911000Y-109840665D01*
X126855853Y-109563426D01*
X126747680Y-109302273D01*
X126590637Y-109067241D01*
X126390759Y-108867363D01*
X126155727Y-108710320D01*
X125894574Y-108602147D01*
X125617335Y-108547000D01*
X125334665Y-108547000D01*
X125057426Y-108602147D01*
X124796273Y-108710320D01*
X124561241Y-108867363D01*
X124361363Y-109067241D01*
X124204320Y-109302273D01*
X124096147Y-109563426D01*
X124041000Y-109840665D01*
X113703000Y-109840665D01*
X113647853Y-109563426D01*
X113539680Y-109302273D01*
X113382637Y-109067241D01*
X113182759Y-108867363D01*
X112950241Y-108712000D01*
X113182759Y-108556637D01*
X113382637Y-108356759D01*
X113539680Y-108121727D01*
X113647853Y-107860574D01*
X113703000Y-107583335D01*
X113703000Y-107300665D01*
X113647853Y-107023426D01*
X113539680Y-106762273D01*
X113382637Y-106527241D01*
X113182759Y-106327363D01*
X113118857Y-106284665D01*
X117437000Y-106284665D01*
X117437000Y-106567335D01*
X117492147Y-106844574D01*
X117600320Y-107105727D01*
X117757363Y-107340759D01*
X117957241Y-107540637D01*
X118192273Y-107697680D01*
X118453426Y-107805853D01*
X118730665Y-107861000D01*
X119013335Y-107861000D01*
X119290574Y-107805853D01*
X119551727Y-107697680D01*
X119786759Y-107540637D01*
X119986637Y-107340759D01*
X120143680Y-107105727D01*
X120251853Y-106844574D01*
X120307000Y-106567335D01*
X120307000Y-106284665D01*
X120251853Y-106007426D01*
X120143680Y-105746273D01*
X119986637Y-105511241D01*
X119786759Y-105311363D01*
X119551727Y-105154320D01*
X119290574Y-105046147D01*
X119013335Y-104991000D01*
X118730665Y-104991000D01*
X118453426Y-105046147D01*
X118192273Y-105154320D01*
X117957241Y-105311363D01*
X117757363Y-105511241D01*
X117600320Y-105746273D01*
X117492147Y-106007426D01*
X117437000Y-106284665D01*
X113118857Y-106284665D01*
X112950241Y-106172000D01*
X113182759Y-106016637D01*
X113382637Y-105816759D01*
X113539680Y-105581727D01*
X113647853Y-105320574D01*
X113703000Y-105043335D01*
X113703000Y-104760665D01*
X113647853Y-104483426D01*
X113539680Y-104222273D01*
X113382637Y-103987241D01*
X113182759Y-103787363D01*
X112947727Y-103630320D01*
X112686574Y-103522147D01*
X112409335Y-103467000D01*
X112126665Y-103467000D01*
X111849426Y-103522147D01*
X111588273Y-103630320D01*
X111353241Y-103787363D01*
X111153363Y-103987241D01*
X110996320Y-104222273D01*
X110888147Y-104483426D01*
X110833000Y-104760665D01*
X106086072Y-104760665D01*
X106086072Y-104102000D01*
X106073812Y-103977518D01*
X106037502Y-103857820D01*
X105978537Y-103747506D01*
X105899185Y-103650815D01*
X105802494Y-103571463D01*
X105692180Y-103512498D01*
X105572482Y-103476188D01*
X105448000Y-103463928D01*
X103848000Y-103463928D01*
X103723518Y-103476188D01*
X103603820Y-103512498D01*
X103493506Y-103571463D01*
X103396815Y-103650815D01*
X103317463Y-103747506D01*
X103258498Y-103857820D01*
X103222188Y-103977518D01*
X103209928Y-104102000D01*
X94706072Y-104102000D01*
X94706072Y-104052000D01*
X94693812Y-103927518D01*
X94657502Y-103807820D01*
X94598537Y-103697506D01*
X94519185Y-103600815D01*
X94422494Y-103521463D01*
X94312180Y-103462498D01*
X94192482Y-103426188D01*
X94068000Y-103413928D01*
X92368000Y-103413928D01*
X92243518Y-103426188D01*
X92123820Y-103462498D01*
X92013506Y-103521463D01*
X91916815Y-103600815D01*
X91837463Y-103697506D01*
X91778498Y-103807820D01*
X91742188Y-103927518D01*
X91729928Y-104052000D01*
X82956000Y-104052000D01*
X82956000Y-102965040D01*
X98176091Y-102965040D01*
X98270930Y-103229881D01*
X98415615Y-103471131D01*
X98604586Y-103679519D01*
X98830580Y-103847037D01*
X99084913Y-103967246D01*
X99218961Y-104007904D01*
X99441000Y-103885915D01*
X99441000Y-102743000D01*
X99695000Y-102743000D01*
X99695000Y-103885915D01*
X99917039Y-104007904D01*
X100051087Y-103967246D01*
X100305420Y-103847037D01*
X100531414Y-103679519D01*
X100720385Y-103471131D01*
X100865070Y-103229881D01*
X100959909Y-102965040D01*
X100838624Y-102743000D01*
X99695000Y-102743000D01*
X99441000Y-102743000D01*
X98297376Y-102743000D01*
X98176091Y-102965040D01*
X82956000Y-102965040D01*
X82956000Y-102266960D01*
X98176091Y-102266960D01*
X98297376Y-102489000D01*
X99441000Y-102489000D01*
X99441000Y-101346085D01*
X99695000Y-101346085D01*
X99695000Y-102489000D01*
X100838624Y-102489000D01*
X100959909Y-102266960D01*
X100865070Y-102002119D01*
X100720385Y-101760869D01*
X100531414Y-101552481D01*
X100305420Y-101384963D01*
X100051087Y-101264754D01*
X99917039Y-101224096D01*
X99695000Y-101346085D01*
X99441000Y-101346085D01*
X99218961Y-101224096D01*
X99084913Y-101264754D01*
X98830580Y-101384963D01*
X98604586Y-101552481D01*
X98415615Y-101760869D01*
X98270930Y-102002119D01*
X98176091Y-102266960D01*
X82956000Y-102266960D01*
X82956000Y-96736000D01*
X85175928Y-96736000D01*
X85175928Y-98336000D01*
X85188188Y-98460482D01*
X85224498Y-98580180D01*
X85283463Y-98690494D01*
X85362815Y-98787185D01*
X85459506Y-98866537D01*
X85569820Y-98925502D01*
X85689518Y-98961812D01*
X85814000Y-98974072D01*
X87414000Y-98974072D01*
X87538482Y-98961812D01*
X87658180Y-98925502D01*
X87768494Y-98866537D01*
X87865185Y-98787185D01*
X87875807Y-98774242D01*
X88127996Y-98893571D01*
X88402184Y-98962300D01*
X88684512Y-98976217D01*
X88964130Y-98934787D01*
X89230292Y-98839603D01*
X89355514Y-98772671D01*
X89427097Y-98528702D01*
X88614000Y-97715605D01*
X88599858Y-97729748D01*
X88420253Y-97550143D01*
X88434395Y-97536000D01*
X88793605Y-97536000D01*
X89606702Y-98349097D01*
X89850671Y-98277514D01*
X89971571Y-98022004D01*
X90040300Y-97747816D01*
X90045187Y-97648665D01*
X94323000Y-97648665D01*
X94323000Y-97931335D01*
X94378147Y-98208574D01*
X94486320Y-98469727D01*
X94643363Y-98704759D01*
X94843241Y-98904637D01*
X95078273Y-99061680D01*
X95339426Y-99169853D01*
X95616665Y-99225000D01*
X95899335Y-99225000D01*
X96176574Y-99169853D01*
X96437727Y-99061680D01*
X96641665Y-98925413D01*
X102168192Y-98925413D01*
X102263956Y-99189814D01*
X102553571Y-99330704D01*
X102865108Y-99412384D01*
X103186595Y-99431718D01*
X103505675Y-99387961D01*
X103810088Y-99282795D01*
X103984044Y-99189814D01*
X104079808Y-98925413D01*
X103124000Y-97969605D01*
X102168192Y-98925413D01*
X96641665Y-98925413D01*
X96672759Y-98904637D01*
X96872637Y-98704759D01*
X97029680Y-98469727D01*
X97137853Y-98208574D01*
X97193000Y-97931335D01*
X97193000Y-97852595D01*
X101482282Y-97852595D01*
X101526039Y-98171675D01*
X101631205Y-98476088D01*
X101724186Y-98650044D01*
X101988587Y-98745808D01*
X102944395Y-97790000D01*
X103303605Y-97790000D01*
X104259413Y-98745808D01*
X104523814Y-98650044D01*
X104664704Y-98360429D01*
X104746384Y-98048892D01*
X104765718Y-97727405D01*
X104721961Y-97408325D01*
X104616795Y-97103912D01*
X104523814Y-96929956D01*
X104259413Y-96834192D01*
X103303605Y-97790000D01*
X102944395Y-97790000D01*
X101988587Y-96834192D01*
X101724186Y-96929956D01*
X101583296Y-97219571D01*
X101501616Y-97531108D01*
X101482282Y-97852595D01*
X97193000Y-97852595D01*
X97193000Y-97648665D01*
X97137853Y-97371426D01*
X97029680Y-97110273D01*
X96872637Y-96875241D01*
X96672759Y-96675363D01*
X96641666Y-96654587D01*
X102168192Y-96654587D01*
X103124000Y-97610395D01*
X104079808Y-96654587D01*
X103984044Y-96390186D01*
X103694429Y-96249296D01*
X103382892Y-96167616D01*
X103061405Y-96148282D01*
X102742325Y-96192039D01*
X102437912Y-96297205D01*
X102263956Y-96390186D01*
X102168192Y-96654587D01*
X96641666Y-96654587D01*
X96437727Y-96518320D01*
X96176574Y-96410147D01*
X95899335Y-96355000D01*
X95616665Y-96355000D01*
X95339426Y-96410147D01*
X95078273Y-96518320D01*
X94843241Y-96675363D01*
X94643363Y-96875241D01*
X94486320Y-97110273D01*
X94378147Y-97371426D01*
X94323000Y-97648665D01*
X90045187Y-97648665D01*
X90054217Y-97465488D01*
X90012787Y-97185870D01*
X89917603Y-96919708D01*
X89850671Y-96794486D01*
X89606702Y-96722903D01*
X88793605Y-97536000D01*
X88434395Y-97536000D01*
X88420253Y-97521858D01*
X88599858Y-97342253D01*
X88614000Y-97356395D01*
X89427097Y-96543298D01*
X89355514Y-96299329D01*
X89100004Y-96178429D01*
X88825816Y-96109700D01*
X88543488Y-96095783D01*
X88263870Y-96137213D01*
X87997708Y-96232397D01*
X87875691Y-96297616D01*
X87865185Y-96284815D01*
X87768494Y-96205463D01*
X87658180Y-96146498D01*
X87538482Y-96110188D01*
X87414000Y-96097928D01*
X85814000Y-96097928D01*
X85689518Y-96110188D01*
X85569820Y-96146498D01*
X85459506Y-96205463D01*
X85362815Y-96284815D01*
X85283463Y-96381506D01*
X85224498Y-96491820D01*
X85188188Y-96611518D01*
X85175928Y-96736000D01*
X82956000Y-96736000D01*
X82956000Y-90536665D01*
X84417000Y-90536665D01*
X84417000Y-90819335D01*
X84472147Y-91096574D01*
X84580320Y-91357727D01*
X84737363Y-91592759D01*
X84937241Y-91792637D01*
X85172273Y-91949680D01*
X85433426Y-92057853D01*
X85710665Y-92113000D01*
X85993335Y-92113000D01*
X86270574Y-92057853D01*
X86531727Y-91949680D01*
X86766759Y-91792637D01*
X86888694Y-91670702D01*
X90038903Y-91670702D01*
X90110486Y-91914671D01*
X90365996Y-92035571D01*
X90640184Y-92104300D01*
X90922512Y-92118217D01*
X91202130Y-92076787D01*
X91468292Y-91981603D01*
X91593514Y-91914671D01*
X91665097Y-91670702D01*
X90852000Y-90857605D01*
X90038903Y-91670702D01*
X86888694Y-91670702D01*
X86966637Y-91592759D01*
X87123680Y-91357727D01*
X87231853Y-91096574D01*
X87287000Y-90819335D01*
X87287000Y-90748512D01*
X89411783Y-90748512D01*
X89453213Y-91028130D01*
X89548397Y-91294292D01*
X89615329Y-91419514D01*
X89859298Y-91491097D01*
X90672395Y-90678000D01*
X91031605Y-90678000D01*
X91844702Y-91491097D01*
X92088671Y-91419514D01*
X92209571Y-91164004D01*
X92278300Y-90889816D01*
X92292217Y-90607488D01*
X92250787Y-90327870D01*
X92155603Y-90061708D01*
X92137942Y-90028665D01*
X94323000Y-90028665D01*
X94323000Y-90311335D01*
X94378147Y-90588574D01*
X94486320Y-90849727D01*
X94643363Y-91084759D01*
X94843241Y-91284637D01*
X95078273Y-91441680D01*
X95339426Y-91549853D01*
X95616665Y-91605000D01*
X95899335Y-91605000D01*
X96176574Y-91549853D01*
X96437727Y-91441680D01*
X96672759Y-91284637D01*
X96872637Y-91084759D01*
X97029680Y-90849727D01*
X97137853Y-90588574D01*
X97193000Y-90311335D01*
X97193000Y-90028665D01*
X97137853Y-89751426D01*
X97029680Y-89490273D01*
X96872637Y-89255241D01*
X96672759Y-89055363D01*
X96437727Y-88898320D01*
X96176574Y-88790147D01*
X95899335Y-88735000D01*
X95616665Y-88735000D01*
X95339426Y-88790147D01*
X95078273Y-88898320D01*
X94843241Y-89055363D01*
X94643363Y-89255241D01*
X94486320Y-89490273D01*
X94378147Y-89751426D01*
X94323000Y-90028665D01*
X92137942Y-90028665D01*
X92088671Y-89936486D01*
X91844702Y-89864903D01*
X91031605Y-90678000D01*
X90672395Y-90678000D01*
X89859298Y-89864903D01*
X89615329Y-89936486D01*
X89494429Y-90191996D01*
X89425700Y-90466184D01*
X89411783Y-90748512D01*
X87287000Y-90748512D01*
X87287000Y-90536665D01*
X87231853Y-90259426D01*
X87123680Y-89998273D01*
X86966637Y-89763241D01*
X86888694Y-89685298D01*
X90038903Y-89685298D01*
X90852000Y-90498395D01*
X91665097Y-89685298D01*
X91593514Y-89441329D01*
X91338004Y-89320429D01*
X91063816Y-89251700D01*
X90781488Y-89237783D01*
X90501870Y-89279213D01*
X90235708Y-89374397D01*
X90110486Y-89441329D01*
X90038903Y-89685298D01*
X86888694Y-89685298D01*
X86766759Y-89563363D01*
X86531727Y-89406320D01*
X86270574Y-89298147D01*
X85993335Y-89243000D01*
X85710665Y-89243000D01*
X85433426Y-89298147D01*
X85172273Y-89406320D01*
X84937241Y-89563363D01*
X84737363Y-89763241D01*
X84580320Y-89998273D01*
X84472147Y-90259426D01*
X84417000Y-90536665D01*
X82956000Y-90536665D01*
X82956000Y-85436967D01*
X84471000Y-85436967D01*
X84471000Y-85759033D01*
X84533832Y-86074912D01*
X84657082Y-86372463D01*
X84836013Y-86640252D01*
X85063748Y-86867987D01*
X85331537Y-87046918D01*
X85629088Y-87170168D01*
X85944967Y-87233000D01*
X86267033Y-87233000D01*
X86582912Y-87170168D01*
X86880463Y-87046918D01*
X87148252Y-86867987D01*
X87375987Y-86640252D01*
X87554918Y-86372463D01*
X87678168Y-86074912D01*
X87741000Y-85759033D01*
X87741000Y-85436967D01*
X87678168Y-85121088D01*
X87554918Y-84823537D01*
X87375987Y-84555748D01*
X87148252Y-84328013D01*
X86880463Y-84149082D01*
X86582912Y-84025832D01*
X86267033Y-83963000D01*
X85944967Y-83963000D01*
X85629088Y-84025832D01*
X85331537Y-84149082D01*
X85063748Y-84328013D01*
X84836013Y-84555748D01*
X84657082Y-84823537D01*
X84533832Y-85121088D01*
X84471000Y-85436967D01*
X82956000Y-85436967D01*
X82956000Y-80416000D01*
X96326726Y-80416000D01*
X96111271Y-80559962D01*
G37*
X96111271Y-80559962D02*
X95799962Y-80871271D01*
X95555369Y-81237331D01*
X95386890Y-81644075D01*
X95301000Y-82075872D01*
X95301000Y-82516128D01*
X95386890Y-82947925D01*
X95555369Y-83354669D01*
X95799962Y-83720729D01*
X96111271Y-84032038D01*
X96477331Y-84276631D01*
X96884075Y-84445110D01*
X97315872Y-84531000D01*
X97756128Y-84531000D01*
X98187925Y-84445110D01*
X98594669Y-84276631D01*
X98933000Y-84050566D01*
X98933000Y-95504000D01*
X98935440Y-95528776D01*
X98942667Y-95552601D01*
X98954403Y-95574557D01*
X98970197Y-95593803D01*
X98989443Y-95609597D01*
X99011399Y-95621333D01*
X99035224Y-95628560D01*
X99060000Y-95631000D01*
X105029000Y-95631000D01*
X105029000Y-101600000D01*
X105031440Y-101624776D01*
X105038667Y-101648601D01*
X105050403Y-101670557D01*
X105066197Y-101689803D01*
X105085443Y-101705597D01*
X105107399Y-101717333D01*
X105131224Y-101724560D01*
X105156000Y-101727000D01*
X115189000Y-101727000D01*
X115189000Y-104140000D01*
X115191440Y-104164776D01*
X115198667Y-104188601D01*
X115210403Y-104210557D01*
X115226197Y-104229803D01*
X115245443Y-104245597D01*
X115267399Y-104257333D01*
X115291224Y-104264560D01*
X115316000Y-104267000D01*
X121793000Y-104267000D01*
X121793000Y-107188000D01*
X121795440Y-107212776D01*
X121802667Y-107236601D01*
X121814403Y-107258557D01*
X121830197Y-107277803D01*
X121849443Y-107293597D01*
X121871399Y-107305333D01*
X121895224Y-107312560D01*
X121920000Y-107315000D01*
X129413000Y-107315000D01*
X129413000Y-109728000D01*
X129415440Y-109752776D01*
X129422667Y-109776601D01*
X129434403Y-109798557D01*
X129450197Y-109817803D01*
X129469443Y-109833597D01*
X129491399Y-109845333D01*
X129515224Y-109852560D01*
X129540000Y-109855000D01*
X139573000Y-109855000D01*
X139573000Y-126873000D01*
X99060000Y-126873000D01*
X99035224Y-126875440D01*
X99011399Y-126882667D01*
X98989443Y-126894403D01*
X98970197Y-126910197D01*
X98954403Y-126929443D01*
X98942667Y-126951399D01*
X98935440Y-126975224D01*
X98933000Y-127000000D01*
X98933000Y-132436000D01*
X97475274Y-132436000D01*
X97690729Y-132292038D01*
X98002038Y-131980729D01*
X98246631Y-131614669D01*
X98415110Y-131207925D01*
X98501000Y-130776128D01*
X98501000Y-130335872D01*
X98415110Y-129904075D01*
X98246631Y-129497331D01*
X98002038Y-129131271D01*
X97690729Y-128819962D01*
X97324669Y-128575369D01*
X96917925Y-128406890D01*
X96486128Y-128321000D01*
X96045872Y-128321000D01*
X95614075Y-128406890D01*
X95207331Y-128575369D01*
X94841271Y-128819962D01*
X94529962Y-129131271D01*
X94285369Y-129497331D01*
X94116890Y-129904075D01*
X94031000Y-130335872D01*
X94031000Y-130776128D01*
X94116890Y-131207925D01*
X94285369Y-131614669D01*
X94529962Y-131980729D01*
X94841271Y-132292038D01*
X95056726Y-132436000D01*
X82956000Y-132436000D01*
X82956000Y-125334665D01*
X84671000Y-125334665D01*
X84671000Y-125617335D01*
X84726147Y-125894574D01*
X84834320Y-126155727D01*
X84991363Y-126390759D01*
X85191241Y-126590637D01*
X85426273Y-126747680D01*
X85687426Y-126855853D01*
X85964665Y-126911000D01*
X86247335Y-126911000D01*
X86524574Y-126855853D01*
X86785727Y-126747680D01*
X87020759Y-126590637D01*
X87220637Y-126390759D01*
X87377680Y-126155727D01*
X87485853Y-125894574D01*
X87541000Y-125617335D01*
X87541000Y-125334665D01*
X92291000Y-125334665D01*
X92291000Y-125617335D01*
X92346147Y-125894574D01*
X92454320Y-126155727D01*
X92611363Y-126390759D01*
X92811241Y-126590637D01*
X93046273Y-126747680D01*
X93307426Y-126855853D01*
X93584665Y-126911000D01*
X93867335Y-126911000D01*
X94144574Y-126855853D01*
X94405727Y-126747680D01*
X94640759Y-126590637D01*
X94840637Y-126390759D01*
X94997680Y-126155727D01*
X95105853Y-125894574D01*
X95161000Y-125617335D01*
X95161000Y-125334665D01*
X95105853Y-125057426D01*
X94997680Y-124796273D01*
X94840637Y-124561241D01*
X94640759Y-124361363D01*
X94405727Y-124204320D01*
X94144574Y-124096147D01*
X93867335Y-124041000D01*
X93584665Y-124041000D01*
X93307426Y-124096147D01*
X93046273Y-124204320D01*
X92811241Y-124361363D01*
X92611363Y-124561241D01*
X92454320Y-124796273D01*
X92346147Y-125057426D01*
X92291000Y-125334665D01*
X87541000Y-125334665D01*
X87485853Y-125057426D01*
X87377680Y-124796273D01*
X87220637Y-124561241D01*
X87020759Y-124361363D01*
X86785727Y-124204320D01*
X86524574Y-124096147D01*
X86247335Y-124041000D01*
X85964665Y-124041000D01*
X85687426Y-124096147D01*
X85426273Y-124204320D01*
X85191241Y-124361363D01*
X84991363Y-124561241D01*
X84834320Y-124796273D01*
X84726147Y-125057426D01*
X84671000Y-125334665D01*
X82956000Y-125334665D01*
X82956000Y-122838967D01*
X118365000Y-122838967D01*
X118365000Y-123161033D01*
X118427832Y-123476912D01*
X118551082Y-123774463D01*
X118730013Y-124042252D01*
X118957748Y-124269987D01*
X119225537Y-124448918D01*
X119523088Y-124572168D01*
X119838967Y-124635000D01*
X120161033Y-124635000D01*
X120476912Y-124572168D01*
X120774463Y-124448918D01*
X121042252Y-124269987D01*
X121269987Y-124042252D01*
X121448918Y-123774463D01*
X121572168Y-123476912D01*
X121635000Y-123161033D01*
X121635000Y-122838967D01*
X121572168Y-122523088D01*
X121448918Y-122225537D01*
X121269987Y-121957748D01*
X121042252Y-121730013D01*
X120774463Y-121551082D01*
X120476912Y-121427832D01*
X120161033Y-121365000D01*
X119838967Y-121365000D01*
X119523088Y-121427832D01*
X119225537Y-121551082D01*
X118957748Y-121730013D01*
X118730013Y-121957748D01*
X118551082Y-122225537D01*
X118427832Y-122523088D01*
X118365000Y-122838967D01*
X82956000Y-122838967D01*
X82956000Y-120612000D01*
X122513928Y-120612000D01*
X122513928Y-122212000D01*
X122526188Y-122336482D01*
X122562498Y-122456180D01*
X122621463Y-122566494D01*
X122700815Y-122663185D01*
X122797506Y-122742537D01*
X122907820Y-122801502D01*
X123027518Y-122837812D01*
X123152000Y-122850072D01*
X124752000Y-122850072D01*
X124876482Y-122837812D01*
X124996180Y-122801502D01*
X125106494Y-122742537D01*
X125203185Y-122663185D01*
X125216790Y-122646607D01*
X125272273Y-122683680D01*
X125533426Y-122791853D01*
X125810665Y-122847000D01*
X126093335Y-122847000D01*
X126370574Y-122791853D01*
X126631727Y-122683680D01*
X126866759Y-122526637D01*
X127066637Y-122326759D01*
X127093426Y-122286665D01*
X130391000Y-122286665D01*
X130391000Y-122569335D01*
X130446147Y-122846574D01*
X130554320Y-123107727D01*
X130711363Y-123342759D01*
X130911241Y-123542637D01*
X131146273Y-123699680D01*
X131407426Y-123807853D01*
X131684665Y-123863000D01*
X131967335Y-123863000D01*
X132244574Y-123807853D01*
X132505727Y-123699680D01*
X132740759Y-123542637D01*
X132940637Y-123342759D01*
X133097680Y-123107727D01*
X133205853Y-122846574D01*
X133220096Y-122774967D01*
X135779000Y-122774967D01*
X135779000Y-123097033D01*
X135841832Y-123412912D01*
X135965082Y-123710463D01*
X136144013Y-123978252D01*
X136371748Y-124205987D01*
X136639537Y-124384918D01*
X136937088Y-124508168D01*
X137252967Y-124571000D01*
X137575033Y-124571000D01*
X137890912Y-124508168D01*
X138188463Y-124384918D01*
X138456252Y-124205987D01*
X138683987Y-123978252D01*
X138862918Y-123710463D01*
X138986168Y-123412912D01*
X139049000Y-123097033D01*
X139049000Y-122774967D01*
X138986168Y-122459088D01*
X138862918Y-122161537D01*
X138683987Y-121893748D01*
X138456252Y-121666013D01*
X138188463Y-121487082D01*
X137890912Y-121363832D01*
X137620484Y-121310041D01*
X137832574Y-121267853D01*
X138093727Y-121159680D01*
X138328759Y-121002637D01*
X138528637Y-120802759D01*
X138685680Y-120567727D01*
X138793853Y-120306574D01*
X138849000Y-120029335D01*
X138849000Y-119746665D01*
X138793853Y-119469426D01*
X138685680Y-119208273D01*
X138528637Y-118973241D01*
X138328759Y-118773363D01*
X138093727Y-118616320D01*
X137832574Y-118508147D01*
X137555335Y-118453000D01*
X137272665Y-118453000D01*
X136995426Y-118508147D01*
X136734273Y-118616320D01*
X136499241Y-118773363D01*
X136299363Y-118973241D01*
X136142320Y-119208273D01*
X136034147Y-119469426D01*
X135979000Y-119746665D01*
X135979000Y-120029335D01*
X136034147Y-120306574D01*
X136142320Y-120567727D01*
X136299363Y-120802759D01*
X136499241Y-121002637D01*
X136734273Y-121159680D01*
X136995426Y-121267853D01*
X137207516Y-121310041D01*
X136937088Y-121363832D01*
X136639537Y-121487082D01*
X136371748Y-121666013D01*
X136144013Y-121893748D01*
X135965082Y-122161537D01*
X135841832Y-122459088D01*
X135779000Y-122774967D01*
X133220096Y-122774967D01*
X133261000Y-122569335D01*
X133261000Y-122286665D01*
X133205853Y-122009426D01*
X133097680Y-121748273D01*
X132940637Y-121513241D01*
X132740759Y-121313363D01*
X132505727Y-121156320D01*
X132244574Y-121048147D01*
X131967335Y-120993000D01*
X131684665Y-120993000D01*
X131407426Y-121048147D01*
X131146273Y-121156320D01*
X130911241Y-121313363D01*
X130711363Y-121513241D01*
X130554320Y-121748273D01*
X130446147Y-122009426D01*
X130391000Y-122286665D01*
X127093426Y-122286665D01*
X127223680Y-122091727D01*
X127331853Y-121830574D01*
X127387000Y-121553335D01*
X127387000Y-121270665D01*
X127331853Y-120993426D01*
X127223680Y-120732273D01*
X127066637Y-120497241D01*
X126866759Y-120297363D01*
X126631727Y-120140320D01*
X126370574Y-120032147D01*
X126093335Y-119977000D01*
X125810665Y-119977000D01*
X125533426Y-120032147D01*
X125272273Y-120140320D01*
X125216790Y-120177393D01*
X125203185Y-120160815D01*
X125106494Y-120081463D01*
X124996180Y-120022498D01*
X124876482Y-119986188D01*
X124752000Y-119973928D01*
X123152000Y-119973928D01*
X123027518Y-119986188D01*
X122907820Y-120022498D01*
X122797506Y-120081463D01*
X122700815Y-120160815D01*
X122621463Y-120257506D01*
X122562498Y-120367820D01*
X122526188Y-120487518D01*
X122513928Y-120612000D01*
X82956000Y-120612000D01*
X82956000Y-118984665D01*
X103039000Y-118984665D01*
X103039000Y-119267335D01*
X103094147Y-119544574D01*
X103202320Y-119805727D01*
X103359363Y-120040759D01*
X103559241Y-120240637D01*
X103794273Y-120397680D01*
X104055426Y-120505853D01*
X104332665Y-120561000D01*
X104615335Y-120561000D01*
X104892574Y-120505853D01*
X105153727Y-120397680D01*
X105388759Y-120240637D01*
X105588637Y-120040759D01*
X105745680Y-119805727D01*
X105853853Y-119544574D01*
X105909000Y-119267335D01*
X105909000Y-118984665D01*
X108039000Y-118984665D01*
X108039000Y-119267335D01*
X108094147Y-119544574D01*
X108202320Y-119805727D01*
X108359363Y-120040759D01*
X108559241Y-120240637D01*
X108794273Y-120397680D01*
X109055426Y-120505853D01*
X109332665Y-120561000D01*
X109615335Y-120561000D01*
X109892574Y-120505853D01*
X110153727Y-120397680D01*
X110388759Y-120240637D01*
X110588637Y-120040759D01*
X110745680Y-119805727D01*
X110853853Y-119544574D01*
X110909000Y-119267335D01*
X110909000Y-118991413D01*
X114106192Y-118991413D01*
X114201956Y-119255814D01*
X114491571Y-119396704D01*
X114803108Y-119478384D01*
X115124595Y-119497718D01*
X115443675Y-119453961D01*
X115748088Y-119348795D01*
X115922044Y-119255814D01*
X116017808Y-118991413D01*
X115062000Y-118035605D01*
X114106192Y-118991413D01*
X110909000Y-118991413D01*
X110909000Y-118984665D01*
X110853853Y-118707426D01*
X110745680Y-118446273D01*
X110588637Y-118211241D01*
X110388759Y-118011363D01*
X110249922Y-117918595D01*
X113420282Y-117918595D01*
X113464039Y-118237675D01*
X113569205Y-118542088D01*
X113662186Y-118716044D01*
X113926587Y-118811808D01*
X114882395Y-117856000D01*
X115241605Y-117856000D01*
X116197413Y-118811808D01*
X116461814Y-118716044D01*
X116602704Y-118426429D01*
X116684384Y-118114892D01*
X116703718Y-117793405D01*
X116659961Y-117474325D01*
X116554795Y-117169912D01*
X116461814Y-116995956D01*
X116197413Y-116900192D01*
X115241605Y-117856000D01*
X114882395Y-117856000D01*
X113926587Y-116900192D01*
X113662186Y-116995956D01*
X113521296Y-117285571D01*
X113439616Y-117597108D01*
X113420282Y-117918595D01*
X110249922Y-117918595D01*
X110153727Y-117854320D01*
X109892574Y-117746147D01*
X109615335Y-117691000D01*
X109332665Y-117691000D01*
X109055426Y-117746147D01*
X108794273Y-117854320D01*
X108559241Y-118011363D01*
X108359363Y-118211241D01*
X108202320Y-118446273D01*
X108094147Y-118707426D01*
X108039000Y-118984665D01*
X105909000Y-118984665D01*
X105853853Y-118707426D01*
X105745680Y-118446273D01*
X105588637Y-118211241D01*
X105388759Y-118011363D01*
X105153727Y-117854320D01*
X104892574Y-117746147D01*
X104615335Y-117691000D01*
X104332665Y-117691000D01*
X104055426Y-117746147D01*
X103794273Y-117854320D01*
X103559241Y-118011363D01*
X103359363Y-118211241D01*
X103202320Y-118446273D01*
X103094147Y-118707426D01*
X103039000Y-118984665D01*
X82956000Y-118984665D01*
X82956000Y-115682665D01*
X83433000Y-115682665D01*
X83433000Y-115965335D01*
X83488147Y-116242574D01*
X83596320Y-116503727D01*
X83753363Y-116738759D01*
X83953241Y-116938637D01*
X84188273Y-117095680D01*
X84449426Y-117203853D01*
X84726665Y-117259000D01*
X85009335Y-117259000D01*
X85286574Y-117203853D01*
X85547727Y-117095680D01*
X85603210Y-117058607D01*
X85616815Y-117075185D01*
X85713506Y-117154537D01*
X85823820Y-117213502D01*
X85943518Y-117249812D01*
X86068000Y-117262072D01*
X87668000Y-117262072D01*
X87792482Y-117249812D01*
X87912180Y-117213502D01*
X87924970Y-117206665D01*
X89751000Y-117206665D01*
X89751000Y-117489335D01*
X89806147Y-117766574D01*
X89914320Y-118027727D01*
X90071363Y-118262759D01*
X90271241Y-118462637D01*
X90506273Y-118619680D01*
X90767426Y-118727853D01*
X91044665Y-118783000D01*
X91327335Y-118783000D01*
X91604574Y-118727853D01*
X91865727Y-118619680D01*
X92100759Y-118462637D01*
X92300637Y-118262759D01*
X92457680Y-118027727D01*
X92565853Y-117766574D01*
X92621000Y-117489335D01*
X92621000Y-117206665D01*
X97371000Y-117206665D01*
X97371000Y-117489335D01*
X97426147Y-117766574D01*
X97534320Y-118027727D01*
X97691363Y-118262759D01*
X97891241Y-118462637D01*
X98126273Y-118619680D01*
X98387426Y-118727853D01*
X98664665Y-118783000D01*
X98947335Y-118783000D01*
X99224574Y-118727853D01*
X99485727Y-118619680D01*
X99720759Y-118462637D01*
X99920637Y-118262759D01*
X100077680Y-118027727D01*
X100185853Y-117766574D01*
X100241000Y-117489335D01*
X100241000Y-117206665D01*
X100185853Y-116929426D01*
X100099350Y-116720587D01*
X114106192Y-116720587D01*
X115062000Y-117676395D01*
X116017808Y-116720587D01*
X115922044Y-116456186D01*
X115632429Y-116315296D01*
X115320892Y-116233616D01*
X114999405Y-116214282D01*
X114680325Y-116258039D01*
X114375912Y-116363205D01*
X114201956Y-116456186D01*
X114106192Y-116720587D01*
X100099350Y-116720587D01*
X100077680Y-116668273D01*
X99920637Y-116433241D01*
X99720759Y-116233363D01*
X99485727Y-116076320D01*
X99224574Y-115968147D01*
X98947335Y-115913000D01*
X98664665Y-115913000D01*
X98387426Y-115968147D01*
X98126273Y-116076320D01*
X97891241Y-116233363D01*
X97691363Y-116433241D01*
X97534320Y-116668273D01*
X97426147Y-116929426D01*
X97371000Y-117206665D01*
X92621000Y-117206665D01*
X92565853Y-116929426D01*
X92457680Y-116668273D01*
X92300637Y-116433241D01*
X92100759Y-116233363D01*
X91865727Y-116076320D01*
X91604574Y-115968147D01*
X91327335Y-115913000D01*
X91044665Y-115913000D01*
X90767426Y-115968147D01*
X90506273Y-116076320D01*
X90271241Y-116233363D01*
X90071363Y-116433241D01*
X89914320Y-116668273D01*
X89806147Y-116929426D01*
X89751000Y-117206665D01*
X87924970Y-117206665D01*
X88022494Y-117154537D01*
X88119185Y-117075185D01*
X88198537Y-116978494D01*
X88257502Y-116868180D01*
X88293812Y-116748482D01*
X88306072Y-116624000D01*
X88306072Y-115024000D01*
X88293812Y-114899518D01*
X88257502Y-114779820D01*
X88198537Y-114669506D01*
X88119185Y-114572815D01*
X88022494Y-114493463D01*
X87912180Y-114434498D01*
X87792482Y-114398188D01*
X87668000Y-114385928D01*
X86068000Y-114385928D01*
X85943518Y-114398188D01*
X85823820Y-114434498D01*
X85713506Y-114493463D01*
X85616815Y-114572815D01*
X85603210Y-114589393D01*
X85547727Y-114552320D01*
X85286574Y-114444147D01*
X85009335Y-114389000D01*
X84726665Y-114389000D01*
X84449426Y-114444147D01*
X84188273Y-114552320D01*
X83953241Y-114709363D01*
X83753363Y-114909241D01*
X83596320Y-115144273D01*
X83488147Y-115405426D01*
X83433000Y-115682665D01*
X82956000Y-115682665D01*
X82956000Y-112871039D01*
X103256096Y-112871039D01*
X103296754Y-113005087D01*
X103416963Y-113259420D01*
X103584481Y-113485414D01*
X103792869Y-113674385D01*
X104034119Y-113819070D01*
X104298960Y-113913909D01*
X104521000Y-113792624D01*
X104521000Y-112649000D01*
X104775000Y-112649000D01*
X104775000Y-113792624D01*
X104997040Y-113913909D01*
X105261881Y-113819070D01*
X105503131Y-113674385D01*
X105711519Y-113485414D01*
X105879037Y-113259420D01*
X105999246Y-113005087D01*
X106039904Y-112871039D01*
X105917915Y-112649000D01*
X104775000Y-112649000D01*
X104521000Y-112649000D01*
X103378085Y-112649000D01*
X103256096Y-112871039D01*
X82956000Y-112871039D01*
X82956000Y-110338890D01*
X91776524Y-110338890D01*
X91821175Y-110486099D01*
X91946359Y-110748920D01*
X92120412Y-110982269D01*
X92336645Y-111177178D01*
X92586748Y-111326157D01*
X92861109Y-111423481D01*
X93091000Y-111302814D01*
X93091000Y-110109000D01*
X93345000Y-110109000D01*
X93345000Y-111302814D01*
X93574891Y-111423481D01*
X93849252Y-111326157D01*
X94099355Y-111177178D01*
X94315588Y-110982269D01*
X94489641Y-110748920D01*
X94614825Y-110486099D01*
X94659476Y-110338890D01*
X94538155Y-110109000D01*
X93345000Y-110109000D01*
X93091000Y-110109000D01*
X91897845Y-110109000D01*
X91776524Y-110338890D01*
X82956000Y-110338890D01*
X82956000Y-110094665D01*
X98133000Y-110094665D01*
X98133000Y-110377335D01*
X98188147Y-110654574D01*
X98296320Y-110915727D01*
X98453363Y-111150759D01*
X98653241Y-111350637D01*
X98888273Y-111507680D01*
X99149426Y-111615853D01*
X99426665Y-111671000D01*
X99709335Y-111671000D01*
X99986574Y-111615853D01*
X100247727Y-111507680D01*
X100482759Y-111350637D01*
X100682637Y-111150759D01*
X100839680Y-110915727D01*
X100947853Y-110654574D01*
X101003000Y-110377335D01*
X101003000Y-110094665D01*
X100947853Y-109817426D01*
X100839680Y-109556273D01*
X100682637Y-109321241D01*
X100482759Y-109121363D01*
X100247727Y-108964320D01*
X99986574Y-108856147D01*
X99709335Y-108801000D01*
X99426665Y-108801000D01*
X99149426Y-108856147D01*
X98888273Y-108964320D01*
X98653241Y-109121363D01*
X98453363Y-109321241D01*
X98296320Y-109556273D01*
X98188147Y-109817426D01*
X98133000Y-110094665D01*
X82956000Y-110094665D01*
X82956000Y-104052000D01*
X91729928Y-104052000D01*
X91729928Y-105752000D01*
X91742188Y-105876482D01*
X91778498Y-105996180D01*
X91837463Y-106106494D01*
X91916815Y-106203185D01*
X92013506Y-106282537D01*
X92123820Y-106341502D01*
X92196380Y-106363513D01*
X92064525Y-106495368D01*
X91902010Y-106738589D01*
X91790068Y-107008842D01*
X91733000Y-107295740D01*
X91733000Y-107588260D01*
X91790068Y-107875158D01*
X91902010Y-108145411D01*
X92064525Y-108388632D01*
X92271368Y-108595475D01*
X92453534Y-108717195D01*
X92336645Y-108786822D01*
X92120412Y-108981731D01*
X91946359Y-109215080D01*
X91821175Y-109477901D01*
X91776524Y-109625110D01*
X91897845Y-109855000D01*
X93091000Y-109855000D01*
X93091000Y-109835000D01*
X93345000Y-109835000D01*
X93345000Y-109855000D01*
X94538155Y-109855000D01*
X94659476Y-109625110D01*
X94614825Y-109477901D01*
X94489641Y-109215080D01*
X94315588Y-108981731D01*
X94099355Y-108786822D01*
X93982466Y-108717195D01*
X94164632Y-108595475D01*
X94371475Y-108388632D01*
X94533990Y-108145411D01*
X94645932Y-107875158D01*
X94703000Y-107588260D01*
X94703000Y-107295740D01*
X94645932Y-107008842D01*
X94533990Y-106738589D01*
X94371475Y-106495368D01*
X94239620Y-106363513D01*
X94312180Y-106341502D01*
X94422494Y-106282537D01*
X94519185Y-106203185D01*
X94598537Y-106106494D01*
X94657502Y-105996180D01*
X94693812Y-105876482D01*
X94706072Y-105752000D01*
X94706072Y-104102000D01*
X103209928Y-104102000D01*
X103209928Y-105702000D01*
X103222188Y-105826482D01*
X103258498Y-105946180D01*
X103317463Y-106056494D01*
X103396815Y-106153185D01*
X103493506Y-106232537D01*
X103603820Y-106291502D01*
X103723518Y-106327812D01*
X103731961Y-106328643D01*
X103533363Y-106527241D01*
X103376320Y-106762273D01*
X103268147Y-107023426D01*
X103213000Y-107300665D01*
X103213000Y-107583335D01*
X103268147Y-107860574D01*
X103376320Y-108121727D01*
X103533363Y-108356759D01*
X103733241Y-108556637D01*
X103965759Y-108712000D01*
X103733241Y-108867363D01*
X103533363Y-109067241D01*
X103376320Y-109302273D01*
X103268147Y-109563426D01*
X103213000Y-109840665D01*
X103213000Y-110123335D01*
X103268147Y-110400574D01*
X103376320Y-110661727D01*
X103533363Y-110896759D01*
X103733241Y-111096637D01*
X103968273Y-111253680D01*
X103978865Y-111258067D01*
X103792869Y-111369615D01*
X103584481Y-111558586D01*
X103416963Y-111784580D01*
X103296754Y-112038913D01*
X103256096Y-112172961D01*
X103378085Y-112395000D01*
X104521000Y-112395000D01*
X104521000Y-112375000D01*
X104775000Y-112375000D01*
X104775000Y-112395000D01*
X105917915Y-112395000D01*
X106039904Y-112172961D01*
X105999246Y-112038913D01*
X105879037Y-111784580D01*
X105711519Y-111558586D01*
X105503131Y-111369615D01*
X105317135Y-111258067D01*
X105327727Y-111253680D01*
X105562759Y-111096637D01*
X105762637Y-110896759D01*
X105919680Y-110661727D01*
X106027853Y-110400574D01*
X106083000Y-110123335D01*
X106083000Y-109840665D01*
X106027853Y-109563426D01*
X105919680Y-109302273D01*
X105762637Y-109067241D01*
X105562759Y-108867363D01*
X105330241Y-108712000D01*
X105562759Y-108556637D01*
X105762637Y-108356759D01*
X105919680Y-108121727D01*
X106027853Y-107860574D01*
X106083000Y-107583335D01*
X106083000Y-107300665D01*
X106027853Y-107023426D01*
X105919680Y-106762273D01*
X105762637Y-106527241D01*
X105564039Y-106328643D01*
X105572482Y-106327812D01*
X105692180Y-106291502D01*
X105802494Y-106232537D01*
X105899185Y-106153185D01*
X105978537Y-106056494D01*
X106037502Y-105946180D01*
X106073812Y-105826482D01*
X106086072Y-105702000D01*
X106086072Y-104760665D01*
X110833000Y-104760665D01*
X110833000Y-105043335D01*
X110888147Y-105320574D01*
X110996320Y-105581727D01*
X111153363Y-105816759D01*
X111353241Y-106016637D01*
X111585759Y-106172000D01*
X111353241Y-106327363D01*
X111153363Y-106527241D01*
X110996320Y-106762273D01*
X110888147Y-107023426D01*
X110833000Y-107300665D01*
X110833000Y-107583335D01*
X110888147Y-107860574D01*
X110996320Y-108121727D01*
X111153363Y-108356759D01*
X111353241Y-108556637D01*
X111585759Y-108712000D01*
X111353241Y-108867363D01*
X111153363Y-109067241D01*
X110996320Y-109302273D01*
X110888147Y-109563426D01*
X110833000Y-109840665D01*
X110833000Y-110123335D01*
X110888147Y-110400574D01*
X110996320Y-110661727D01*
X111153363Y-110896759D01*
X111353241Y-111096637D01*
X111585759Y-111252000D01*
X111353241Y-111407363D01*
X111153363Y-111607241D01*
X110996320Y-111842273D01*
X110888147Y-112103426D01*
X110833000Y-112380665D01*
X110833000Y-112663335D01*
X110888147Y-112940574D01*
X110996320Y-113201727D01*
X111153363Y-113436759D01*
X111353241Y-113636637D01*
X111588273Y-113793680D01*
X111849426Y-113901853D01*
X112126665Y-113957000D01*
X112409335Y-113957000D01*
X112672437Y-113904665D01*
X117437000Y-113904665D01*
X117437000Y-114187335D01*
X117492147Y-114464574D01*
X117600320Y-114725727D01*
X117757363Y-114960759D01*
X117957241Y-115160637D01*
X118192273Y-115317680D01*
X118453426Y-115425853D01*
X118730665Y-115481000D01*
X119013335Y-115481000D01*
X119290574Y-115425853D01*
X119551727Y-115317680D01*
X119786759Y-115160637D01*
X119986637Y-114960759D01*
X120066881Y-114840665D01*
X124041000Y-114840665D01*
X124041000Y-115123335D01*
X124096147Y-115400574D01*
X124204320Y-115661727D01*
X124361363Y-115896759D01*
X124561241Y-116096637D01*
X124796273Y-116253680D01*
X125057426Y-116361853D01*
X125334665Y-116417000D01*
X125617335Y-116417000D01*
X125894574Y-116361853D01*
X126155727Y-116253680D01*
X126390759Y-116096637D01*
X126590637Y-115896759D01*
X126747680Y-115661727D01*
X126855853Y-115400574D01*
X126911000Y-115123335D01*
X126911000Y-114840665D01*
X126876389Y-114666665D01*
X130391000Y-114666665D01*
X130391000Y-114949335D01*
X130446147Y-115226574D01*
X130554320Y-115487727D01*
X130711363Y-115722759D01*
X130911241Y-115922637D01*
X131146273Y-116079680D01*
X131407426Y-116187853D01*
X131684665Y-116243000D01*
X131967335Y-116243000D01*
X132244574Y-116187853D01*
X132505727Y-116079680D01*
X132740759Y-115922637D01*
X132940637Y-115722759D01*
X133097680Y-115487727D01*
X133205853Y-115226574D01*
X133261000Y-114949335D01*
X133261000Y-114666665D01*
X133205853Y-114389426D01*
X133097680Y-114128273D01*
X132940637Y-113893241D01*
X132740759Y-113693363D01*
X132505727Y-113536320D01*
X132244574Y-113428147D01*
X131967335Y-113373000D01*
X131684665Y-113373000D01*
X131407426Y-113428147D01*
X131146273Y-113536320D01*
X130911241Y-113693363D01*
X130711363Y-113893241D01*
X130554320Y-114128273D01*
X130446147Y-114389426D01*
X130391000Y-114666665D01*
X126876389Y-114666665D01*
X126855853Y-114563426D01*
X126747680Y-114302273D01*
X126590637Y-114067241D01*
X126390759Y-113867363D01*
X126155727Y-113710320D01*
X125894574Y-113602147D01*
X125617335Y-113547000D01*
X125334665Y-113547000D01*
X125057426Y-113602147D01*
X124796273Y-113710320D01*
X124561241Y-113867363D01*
X124361363Y-114067241D01*
X124204320Y-114302273D01*
X124096147Y-114563426D01*
X124041000Y-114840665D01*
X120066881Y-114840665D01*
X120143680Y-114725727D01*
X120251853Y-114464574D01*
X120307000Y-114187335D01*
X120307000Y-113904665D01*
X120251853Y-113627426D01*
X120143680Y-113366273D01*
X119986637Y-113131241D01*
X119786759Y-112931363D01*
X119551727Y-112774320D01*
X119290574Y-112666147D01*
X119013335Y-112611000D01*
X118730665Y-112611000D01*
X118453426Y-112666147D01*
X118192273Y-112774320D01*
X117957241Y-112931363D01*
X117757363Y-113131241D01*
X117600320Y-113366273D01*
X117492147Y-113627426D01*
X117437000Y-113904665D01*
X112672437Y-113904665D01*
X112686574Y-113901853D01*
X112947727Y-113793680D01*
X113182759Y-113636637D01*
X113382637Y-113436759D01*
X113539680Y-113201727D01*
X113647853Y-112940574D01*
X113703000Y-112663335D01*
X113703000Y-112380665D01*
X113652476Y-112126665D01*
X135979000Y-112126665D01*
X135979000Y-112409335D01*
X136034147Y-112686574D01*
X136142320Y-112947727D01*
X136299363Y-113182759D01*
X136499241Y-113382637D01*
X136734273Y-113539680D01*
X136995426Y-113647853D01*
X137272665Y-113703000D01*
X137555335Y-113703000D01*
X137832574Y-113647853D01*
X138093727Y-113539680D01*
X138328759Y-113382637D01*
X138528637Y-113182759D01*
X138685680Y-112947727D01*
X138793853Y-112686574D01*
X138849000Y-112409335D01*
X138849000Y-112126665D01*
X138793853Y-111849426D01*
X138685680Y-111588273D01*
X138528637Y-111353241D01*
X138328759Y-111153363D01*
X138093727Y-110996320D01*
X137832574Y-110888147D01*
X137555335Y-110833000D01*
X137272665Y-110833000D01*
X136995426Y-110888147D01*
X136734273Y-110996320D01*
X136499241Y-111153363D01*
X136299363Y-111353241D01*
X136142320Y-111588273D01*
X136034147Y-111849426D01*
X135979000Y-112126665D01*
X113652476Y-112126665D01*
X113647853Y-112103426D01*
X113539680Y-111842273D01*
X113382637Y-111607241D01*
X113182759Y-111407363D01*
X112950241Y-111252000D01*
X113182759Y-111096637D01*
X113382637Y-110896759D01*
X113539680Y-110661727D01*
X113647853Y-110400574D01*
X113703000Y-110123335D01*
X113703000Y-109840665D01*
X124041000Y-109840665D01*
X124041000Y-110123335D01*
X124096147Y-110400574D01*
X124204320Y-110661727D01*
X124361363Y-110896759D01*
X124561241Y-111096637D01*
X124796273Y-111253680D01*
X125057426Y-111361853D01*
X125334665Y-111417000D01*
X125617335Y-111417000D01*
X125894574Y-111361853D01*
X126155727Y-111253680D01*
X126390759Y-111096637D01*
X126590637Y-110896759D01*
X126747680Y-110661727D01*
X126855853Y-110400574D01*
X126911000Y-110123335D01*
X126911000Y-109840665D01*
X126855853Y-109563426D01*
X126747680Y-109302273D01*
X126590637Y-109067241D01*
X126390759Y-108867363D01*
X126155727Y-108710320D01*
X125894574Y-108602147D01*
X125617335Y-108547000D01*
X125334665Y-108547000D01*
X125057426Y-108602147D01*
X124796273Y-108710320D01*
X124561241Y-108867363D01*
X124361363Y-109067241D01*
X124204320Y-109302273D01*
X124096147Y-109563426D01*
X124041000Y-109840665D01*
X113703000Y-109840665D01*
X113647853Y-109563426D01*
X113539680Y-109302273D01*
X113382637Y-109067241D01*
X113182759Y-108867363D01*
X112950241Y-108712000D01*
X113182759Y-108556637D01*
X113382637Y-108356759D01*
X113539680Y-108121727D01*
X113647853Y-107860574D01*
X113703000Y-107583335D01*
X113703000Y-107300665D01*
X113647853Y-107023426D01*
X113539680Y-106762273D01*
X113382637Y-106527241D01*
X113182759Y-106327363D01*
X113118857Y-106284665D01*
X117437000Y-106284665D01*
X117437000Y-106567335D01*
X117492147Y-106844574D01*
X117600320Y-107105727D01*
X117757363Y-107340759D01*
X117957241Y-107540637D01*
X118192273Y-107697680D01*
X118453426Y-107805853D01*
X118730665Y-107861000D01*
X119013335Y-107861000D01*
X119290574Y-107805853D01*
X119551727Y-107697680D01*
X119786759Y-107540637D01*
X119986637Y-107340759D01*
X120143680Y-107105727D01*
X120251853Y-106844574D01*
X120307000Y-106567335D01*
X120307000Y-106284665D01*
X120251853Y-106007426D01*
X120143680Y-105746273D01*
X119986637Y-105511241D01*
X119786759Y-105311363D01*
X119551727Y-105154320D01*
X119290574Y-105046147D01*
X119013335Y-104991000D01*
X118730665Y-104991000D01*
X118453426Y-105046147D01*
X118192273Y-105154320D01*
X117957241Y-105311363D01*
X117757363Y-105511241D01*
X117600320Y-105746273D01*
X117492147Y-106007426D01*
X117437000Y-106284665D01*
X113118857Y-106284665D01*
X112950241Y-106172000D01*
X113182759Y-106016637D01*
X113382637Y-105816759D01*
X113539680Y-105581727D01*
X113647853Y-105320574D01*
X113703000Y-105043335D01*
X113703000Y-104760665D01*
X113647853Y-104483426D01*
X113539680Y-104222273D01*
X113382637Y-103987241D01*
X113182759Y-103787363D01*
X112947727Y-103630320D01*
X112686574Y-103522147D01*
X112409335Y-103467000D01*
X112126665Y-103467000D01*
X111849426Y-103522147D01*
X111588273Y-103630320D01*
X111353241Y-103787363D01*
X111153363Y-103987241D01*
X110996320Y-104222273D01*
X110888147Y-104483426D01*
X110833000Y-104760665D01*
X106086072Y-104760665D01*
X106086072Y-104102000D01*
X106073812Y-103977518D01*
X106037502Y-103857820D01*
X105978537Y-103747506D01*
X105899185Y-103650815D01*
X105802494Y-103571463D01*
X105692180Y-103512498D01*
X105572482Y-103476188D01*
X105448000Y-103463928D01*
X103848000Y-103463928D01*
X103723518Y-103476188D01*
X103603820Y-103512498D01*
X103493506Y-103571463D01*
X103396815Y-103650815D01*
X103317463Y-103747506D01*
X103258498Y-103857820D01*
X103222188Y-103977518D01*
X103209928Y-104102000D01*
X94706072Y-104102000D01*
X94706072Y-104052000D01*
X94693812Y-103927518D01*
X94657502Y-103807820D01*
X94598537Y-103697506D01*
X94519185Y-103600815D01*
X94422494Y-103521463D01*
X94312180Y-103462498D01*
X94192482Y-103426188D01*
X94068000Y-103413928D01*
X92368000Y-103413928D01*
X92243518Y-103426188D01*
X92123820Y-103462498D01*
X92013506Y-103521463D01*
X91916815Y-103600815D01*
X91837463Y-103697506D01*
X91778498Y-103807820D01*
X91742188Y-103927518D01*
X91729928Y-104052000D01*
X82956000Y-104052000D01*
X82956000Y-102965040D01*
X98176091Y-102965040D01*
X98270930Y-103229881D01*
X98415615Y-103471131D01*
X98604586Y-103679519D01*
X98830580Y-103847037D01*
X99084913Y-103967246D01*
X99218961Y-104007904D01*
X99441000Y-103885915D01*
X99441000Y-102743000D01*
X99695000Y-102743000D01*
X99695000Y-103885915D01*
X99917039Y-104007904D01*
X100051087Y-103967246D01*
X100305420Y-103847037D01*
X100531414Y-103679519D01*
X100720385Y-103471131D01*
X100865070Y-103229881D01*
X100959909Y-102965040D01*
X100838624Y-102743000D01*
X99695000Y-102743000D01*
X99441000Y-102743000D01*
X98297376Y-102743000D01*
X98176091Y-102965040D01*
X82956000Y-102965040D01*
X82956000Y-102266960D01*
X98176091Y-102266960D01*
X98297376Y-102489000D01*
X99441000Y-102489000D01*
X99441000Y-101346085D01*
X99695000Y-101346085D01*
X99695000Y-102489000D01*
X100838624Y-102489000D01*
X100959909Y-102266960D01*
X100865070Y-102002119D01*
X100720385Y-101760869D01*
X100531414Y-101552481D01*
X100305420Y-101384963D01*
X100051087Y-101264754D01*
X99917039Y-101224096D01*
X99695000Y-101346085D01*
X99441000Y-101346085D01*
X99218961Y-101224096D01*
X99084913Y-101264754D01*
X98830580Y-101384963D01*
X98604586Y-101552481D01*
X98415615Y-101760869D01*
X98270930Y-102002119D01*
X98176091Y-102266960D01*
X82956000Y-102266960D01*
X82956000Y-96736000D01*
X85175928Y-96736000D01*
X85175928Y-98336000D01*
X85188188Y-98460482D01*
X85224498Y-98580180D01*
X85283463Y-98690494D01*
X85362815Y-98787185D01*
X85459506Y-98866537D01*
X85569820Y-98925502D01*
X85689518Y-98961812D01*
X85814000Y-98974072D01*
X87414000Y-98974072D01*
X87538482Y-98961812D01*
X87658180Y-98925502D01*
X87768494Y-98866537D01*
X87865185Y-98787185D01*
X87875807Y-98774242D01*
X88127996Y-98893571D01*
X88402184Y-98962300D01*
X88684512Y-98976217D01*
X88964130Y-98934787D01*
X89230292Y-98839603D01*
X89355514Y-98772671D01*
X89427097Y-98528702D01*
X88614000Y-97715605D01*
X88599858Y-97729748D01*
X88420253Y-97550143D01*
X88434395Y-97536000D01*
X88793605Y-97536000D01*
X89606702Y-98349097D01*
X89850671Y-98277514D01*
X89971571Y-98022004D01*
X90040300Y-97747816D01*
X90045187Y-97648665D01*
X94323000Y-97648665D01*
X94323000Y-97931335D01*
X94378147Y-98208574D01*
X94486320Y-98469727D01*
X94643363Y-98704759D01*
X94843241Y-98904637D01*
X95078273Y-99061680D01*
X95339426Y-99169853D01*
X95616665Y-99225000D01*
X95899335Y-99225000D01*
X96176574Y-99169853D01*
X96437727Y-99061680D01*
X96641665Y-98925413D01*
X102168192Y-98925413D01*
X102263956Y-99189814D01*
X102553571Y-99330704D01*
X102865108Y-99412384D01*
X103186595Y-99431718D01*
X103505675Y-99387961D01*
X103810088Y-99282795D01*
X103984044Y-99189814D01*
X104079808Y-98925413D01*
X103124000Y-97969605D01*
X102168192Y-98925413D01*
X96641665Y-98925413D01*
X96672759Y-98904637D01*
X96872637Y-98704759D01*
X97029680Y-98469727D01*
X97137853Y-98208574D01*
X97193000Y-97931335D01*
X97193000Y-97852595D01*
X101482282Y-97852595D01*
X101526039Y-98171675D01*
X101631205Y-98476088D01*
X101724186Y-98650044D01*
X101988587Y-98745808D01*
X102944395Y-97790000D01*
X103303605Y-97790000D01*
X104259413Y-98745808D01*
X104523814Y-98650044D01*
X104664704Y-98360429D01*
X104746384Y-98048892D01*
X104765718Y-97727405D01*
X104721961Y-97408325D01*
X104616795Y-97103912D01*
X104523814Y-96929956D01*
X104259413Y-96834192D01*
X103303605Y-97790000D01*
X102944395Y-97790000D01*
X101988587Y-96834192D01*
X101724186Y-96929956D01*
X101583296Y-97219571D01*
X101501616Y-97531108D01*
X101482282Y-97852595D01*
X97193000Y-97852595D01*
X97193000Y-97648665D01*
X97137853Y-97371426D01*
X97029680Y-97110273D01*
X96872637Y-96875241D01*
X96672759Y-96675363D01*
X96641666Y-96654587D01*
X102168192Y-96654587D01*
X103124000Y-97610395D01*
X104079808Y-96654587D01*
X103984044Y-96390186D01*
X103694429Y-96249296D01*
X103382892Y-96167616D01*
X103061405Y-96148282D01*
X102742325Y-96192039D01*
X102437912Y-96297205D01*
X102263956Y-96390186D01*
X102168192Y-96654587D01*
X96641666Y-96654587D01*
X96437727Y-96518320D01*
X96176574Y-96410147D01*
X95899335Y-96355000D01*
X95616665Y-96355000D01*
X95339426Y-96410147D01*
X95078273Y-96518320D01*
X94843241Y-96675363D01*
X94643363Y-96875241D01*
X94486320Y-97110273D01*
X94378147Y-97371426D01*
X94323000Y-97648665D01*
X90045187Y-97648665D01*
X90054217Y-97465488D01*
X90012787Y-97185870D01*
X89917603Y-96919708D01*
X89850671Y-96794486D01*
X89606702Y-96722903D01*
X88793605Y-97536000D01*
X88434395Y-97536000D01*
X88420253Y-97521858D01*
X88599858Y-97342253D01*
X88614000Y-97356395D01*
X89427097Y-96543298D01*
X89355514Y-96299329D01*
X89100004Y-96178429D01*
X88825816Y-96109700D01*
X88543488Y-96095783D01*
X88263870Y-96137213D01*
X87997708Y-96232397D01*
X87875691Y-96297616D01*
X87865185Y-96284815D01*
X87768494Y-96205463D01*
X87658180Y-96146498D01*
X87538482Y-96110188D01*
X87414000Y-96097928D01*
X85814000Y-96097928D01*
X85689518Y-96110188D01*
X85569820Y-96146498D01*
X85459506Y-96205463D01*
X85362815Y-96284815D01*
X85283463Y-96381506D01*
X85224498Y-96491820D01*
X85188188Y-96611518D01*
X85175928Y-96736000D01*
X82956000Y-96736000D01*
X82956000Y-90536665D01*
X84417000Y-90536665D01*
X84417000Y-90819335D01*
X84472147Y-91096574D01*
X84580320Y-91357727D01*
X84737363Y-91592759D01*
X84937241Y-91792637D01*
X85172273Y-91949680D01*
X85433426Y-92057853D01*
X85710665Y-92113000D01*
X85993335Y-92113000D01*
X86270574Y-92057853D01*
X86531727Y-91949680D01*
X86766759Y-91792637D01*
X86888694Y-91670702D01*
X90038903Y-91670702D01*
X90110486Y-91914671D01*
X90365996Y-92035571D01*
X90640184Y-92104300D01*
X90922512Y-92118217D01*
X91202130Y-92076787D01*
X91468292Y-91981603D01*
X91593514Y-91914671D01*
X91665097Y-91670702D01*
X90852000Y-90857605D01*
X90038903Y-91670702D01*
X86888694Y-91670702D01*
X86966637Y-91592759D01*
X87123680Y-91357727D01*
X87231853Y-91096574D01*
X87287000Y-90819335D01*
X87287000Y-90748512D01*
X89411783Y-90748512D01*
X89453213Y-91028130D01*
X89548397Y-91294292D01*
X89615329Y-91419514D01*
X89859298Y-91491097D01*
X90672395Y-90678000D01*
X91031605Y-90678000D01*
X91844702Y-91491097D01*
X92088671Y-91419514D01*
X92209571Y-91164004D01*
X92278300Y-90889816D01*
X92292217Y-90607488D01*
X92250787Y-90327870D01*
X92155603Y-90061708D01*
X92137942Y-90028665D01*
X94323000Y-90028665D01*
X94323000Y-90311335D01*
X94378147Y-90588574D01*
X94486320Y-90849727D01*
X94643363Y-91084759D01*
X94843241Y-91284637D01*
X95078273Y-91441680D01*
X95339426Y-91549853D01*
X95616665Y-91605000D01*
X95899335Y-91605000D01*
X96176574Y-91549853D01*
X96437727Y-91441680D01*
X96672759Y-91284637D01*
X96872637Y-91084759D01*
X97029680Y-90849727D01*
X97137853Y-90588574D01*
X97193000Y-90311335D01*
X97193000Y-90028665D01*
X97137853Y-89751426D01*
X97029680Y-89490273D01*
X96872637Y-89255241D01*
X96672759Y-89055363D01*
X96437727Y-88898320D01*
X96176574Y-88790147D01*
X95899335Y-88735000D01*
X95616665Y-88735000D01*
X95339426Y-88790147D01*
X95078273Y-88898320D01*
X94843241Y-89055363D01*
X94643363Y-89255241D01*
X94486320Y-89490273D01*
X94378147Y-89751426D01*
X94323000Y-90028665D01*
X92137942Y-90028665D01*
X92088671Y-89936486D01*
X91844702Y-89864903D01*
X91031605Y-90678000D01*
X90672395Y-90678000D01*
X89859298Y-89864903D01*
X89615329Y-89936486D01*
X89494429Y-90191996D01*
X89425700Y-90466184D01*
X89411783Y-90748512D01*
X87287000Y-90748512D01*
X87287000Y-90536665D01*
X87231853Y-90259426D01*
X87123680Y-89998273D01*
X86966637Y-89763241D01*
X86888694Y-89685298D01*
X90038903Y-89685298D01*
X90852000Y-90498395D01*
X91665097Y-89685298D01*
X91593514Y-89441329D01*
X91338004Y-89320429D01*
X91063816Y-89251700D01*
X90781488Y-89237783D01*
X90501870Y-89279213D01*
X90235708Y-89374397D01*
X90110486Y-89441329D01*
X90038903Y-89685298D01*
X86888694Y-89685298D01*
X86766759Y-89563363D01*
X86531727Y-89406320D01*
X86270574Y-89298147D01*
X85993335Y-89243000D01*
X85710665Y-89243000D01*
X85433426Y-89298147D01*
X85172273Y-89406320D01*
X84937241Y-89563363D01*
X84737363Y-89763241D01*
X84580320Y-89998273D01*
X84472147Y-90259426D01*
X84417000Y-90536665D01*
X82956000Y-90536665D01*
X82956000Y-85436967D01*
X84471000Y-85436967D01*
X84471000Y-85759033D01*
X84533832Y-86074912D01*
X84657082Y-86372463D01*
X84836013Y-86640252D01*
X85063748Y-86867987D01*
X85331537Y-87046918D01*
X85629088Y-87170168D01*
X85944967Y-87233000D01*
X86267033Y-87233000D01*
X86582912Y-87170168D01*
X86880463Y-87046918D01*
X87148252Y-86867987D01*
X87375987Y-86640252D01*
X87554918Y-86372463D01*
X87678168Y-86074912D01*
X87741000Y-85759033D01*
X87741000Y-85436967D01*
X87678168Y-85121088D01*
X87554918Y-84823537D01*
X87375987Y-84555748D01*
X87148252Y-84328013D01*
X86880463Y-84149082D01*
X86582912Y-84025832D01*
X86267033Y-83963000D01*
X85944967Y-83963000D01*
X85629088Y-84025832D01*
X85331537Y-84149082D01*
X85063748Y-84328013D01*
X84836013Y-84555748D01*
X84657082Y-84823537D01*
X84533832Y-85121088D01*
X84471000Y-85436967D01*
X82956000Y-85436967D01*
X82956000Y-80416000D01*
X96326726Y-80416000D01*
X96111271Y-80559962D01*
G36*
X148115872Y-127711000D02*
G01*
X148556128Y-127711000D01*
X148938205Y-127635000D01*
X150216001Y-127635000D01*
X150216001Y-128491572D01*
X150216000Y-128491582D01*
X150216000Y-129012619D01*
X147892236Y-131336384D01*
X147867052Y-131357052D01*
X147846386Y-131382234D01*
X147784575Y-131457550D01*
X147726452Y-131566293D01*
X147723290Y-131572208D01*
X147685550Y-131696618D01*
X147676000Y-131793582D01*
X147676000Y-131793591D01*
X147672808Y-131826000D01*
X147676000Y-131858409D01*
X147676000Y-132436000D01*
X99695000Y-132436000D01*
X99695000Y-130408401D01*
X108737400Y-130408401D01*
X108737400Y-130703599D01*
X108794990Y-130993125D01*
X108907958Y-131265853D01*
X109071961Y-131511302D01*
X109280698Y-131720039D01*
X109526147Y-131884042D01*
X109798875Y-131997010D01*
X110088401Y-132054600D01*
X110383599Y-132054600D01*
X110673125Y-131997010D01*
X110945853Y-131884042D01*
X111191302Y-131720039D01*
X111400039Y-131511302D01*
X111506000Y-131352719D01*
X111611961Y-131511302D01*
X111820698Y-131720039D01*
X112066147Y-131884042D01*
X112338875Y-131997010D01*
X112628401Y-132054600D01*
X112923599Y-132054600D01*
X113213125Y-131997010D01*
X113485853Y-131884042D01*
X113731302Y-131720039D01*
X113940039Y-131511302D01*
X114046000Y-131352719D01*
X114151961Y-131511302D01*
X114360698Y-131720039D01*
X114606147Y-131884042D01*
X114878875Y-131997010D01*
X115168401Y-132054600D01*
X115463599Y-132054600D01*
X115753125Y-131997010D01*
X116025853Y-131884042D01*
X116271302Y-131720039D01*
X116480039Y-131511302D01*
X116586000Y-131352719D01*
X116691961Y-131511302D01*
X116900698Y-131720039D01*
X117146147Y-131884042D01*
X117418875Y-131997010D01*
X117708401Y-132054600D01*
X118003599Y-132054600D01*
X118293125Y-131997010D01*
X118565853Y-131884042D01*
X118811302Y-131720039D01*
X119020039Y-131511302D01*
X119126000Y-131352719D01*
X119231961Y-131511302D01*
X119440698Y-131720039D01*
X119686147Y-131884042D01*
X119958875Y-131997010D01*
X120248401Y-132054600D01*
X120543599Y-132054600D01*
X120833125Y-131997010D01*
X121105853Y-131884042D01*
X121351302Y-131720039D01*
X121560039Y-131511302D01*
X121667692Y-131350187D01*
X121829146Y-131566293D01*
X122047512Y-131762817D01*
X122300022Y-131912964D01*
X122576973Y-132010963D01*
X122809000Y-131890464D01*
X122809000Y-130683000D01*
X123063000Y-130683000D01*
X123063000Y-131890464D01*
X123295027Y-132010963D01*
X123571978Y-131912964D01*
X123824488Y-131762817D01*
X124042854Y-131566293D01*
X124206000Y-131347922D01*
X124369146Y-131566293D01*
X124587512Y-131762817D01*
X124840022Y-131912964D01*
X125116973Y-132010963D01*
X125349000Y-131890464D01*
X125349000Y-130683000D01*
X123063000Y-130683000D01*
X122809000Y-130683000D01*
X122789000Y-130683000D01*
X122789000Y-130429000D01*
X122809000Y-130429000D01*
X122809000Y-129221536D01*
X123063000Y-129221536D01*
X123063000Y-130429000D01*
X125349000Y-130429000D01*
X125349000Y-129221536D01*
X125603000Y-129221536D01*
X125603000Y-130429000D01*
X125623000Y-130429000D01*
X125623000Y-130683000D01*
X125603000Y-130683000D01*
X125603000Y-131890464D01*
X125835027Y-132010963D01*
X126111978Y-131912964D01*
X126364488Y-131762817D01*
X126582854Y-131566293D01*
X126744308Y-131350187D01*
X126851961Y-131511302D01*
X127060698Y-131720039D01*
X127306147Y-131884042D01*
X127578875Y-131997010D01*
X127868401Y-132054600D01*
X128163599Y-132054600D01*
X128453125Y-131997010D01*
X128725853Y-131884042D01*
X128971302Y-131720039D01*
X129180039Y-131511302D01*
X129344042Y-131265853D01*
X129457010Y-130993125D01*
X129514600Y-130703599D01*
X129514600Y-130408401D01*
X131597400Y-130408401D01*
X131597400Y-130703599D01*
X131654990Y-130993125D01*
X131767958Y-131265853D01*
X131931961Y-131511302D01*
X132140698Y-131720039D01*
X132386147Y-131884042D01*
X132658875Y-131997010D01*
X132948401Y-132054600D01*
X133243599Y-132054600D01*
X133533125Y-131997010D01*
X133805853Y-131884042D01*
X134051302Y-131720039D01*
X134260039Y-131511302D01*
X134366000Y-131352719D01*
X134471961Y-131511302D01*
X134680698Y-131720039D01*
X134926147Y-131884042D01*
X135198875Y-131997010D01*
X135488401Y-132054600D01*
X135783599Y-132054600D01*
X136073125Y-131997010D01*
X136345853Y-131884042D01*
X136591302Y-131720039D01*
X136800039Y-131511302D01*
X136906000Y-131352719D01*
X137011961Y-131511302D01*
X137220698Y-131720039D01*
X137466147Y-131884042D01*
X137738875Y-131997010D01*
X138028401Y-132054600D01*
X138323599Y-132054600D01*
X138613125Y-131997010D01*
X138885853Y-131884042D01*
X139131302Y-131720039D01*
X139340039Y-131511302D01*
X139446000Y-131352719D01*
X139551961Y-131511302D01*
X139760698Y-131720039D01*
X140006147Y-131884042D01*
X140278875Y-131997010D01*
X140568401Y-132054600D01*
X140863599Y-132054600D01*
X141153125Y-131997010D01*
X141425853Y-131884042D01*
X141671302Y-131720039D01*
X141880039Y-131511302D01*
X141986000Y-131352719D01*
X142091961Y-131511302D01*
X142300698Y-131720039D01*
X142546147Y-131884042D01*
X142818875Y-131997010D01*
X143108401Y-132054600D01*
X143403599Y-132054600D01*
X143693125Y-131997010D01*
X143965853Y-131884042D01*
X144211302Y-131720039D01*
X144420039Y-131511302D01*
X144526000Y-131352719D01*
X144631961Y-131511302D01*
X144840698Y-131720039D01*
X145086147Y-131884042D01*
X145358875Y-131997010D01*
X145648401Y-132054600D01*
X145943599Y-132054600D01*
X146233125Y-131997010D01*
X146505853Y-131884042D01*
X146751302Y-131720039D01*
X146960039Y-131511302D01*
X147124042Y-131265853D01*
X147237010Y-130993125D01*
X147294600Y-130703599D01*
X147294600Y-130408401D01*
X147237010Y-130118875D01*
X147124042Y-129846147D01*
X146960039Y-129600698D01*
X146751302Y-129391961D01*
X146505853Y-129227958D01*
X146233125Y-129114990D01*
X145943599Y-129057400D01*
X145648401Y-129057400D01*
X145358875Y-129114990D01*
X145086147Y-129227958D01*
X144840698Y-129391961D01*
X144631961Y-129600698D01*
X144526000Y-129759281D01*
X144420039Y-129600698D01*
X144211302Y-129391961D01*
X143965853Y-129227958D01*
X143693125Y-129114990D01*
X143403599Y-129057400D01*
X143108401Y-129057400D01*
X142818875Y-129114990D01*
X142546147Y-129227958D01*
X142300698Y-129391961D01*
X142091961Y-129600698D01*
X141986000Y-129759281D01*
X141880039Y-129600698D01*
X141671302Y-129391961D01*
X141425853Y-129227958D01*
X141153125Y-129114990D01*
X140863599Y-129057400D01*
X140568401Y-129057400D01*
X140278875Y-129114990D01*
X140006147Y-129227958D01*
X139760698Y-129391961D01*
X139551961Y-129600698D01*
X139446000Y-129759281D01*
X139340039Y-129600698D01*
X139131302Y-129391961D01*
X138885853Y-129227958D01*
X138613125Y-129114990D01*
X138323599Y-129057400D01*
X138028401Y-129057400D01*
X137738875Y-129114990D01*
X137466147Y-129227958D01*
X137220698Y-129391961D01*
X137011961Y-129600698D01*
X136906000Y-129759281D01*
X136800039Y-129600698D01*
X136591302Y-129391961D01*
X136345853Y-129227958D01*
X136073125Y-129114990D01*
X135783599Y-129057400D01*
X135488401Y-129057400D01*
X135198875Y-129114990D01*
X134926147Y-129227958D01*
X134680698Y-129391961D01*
X134471961Y-129600698D01*
X134366000Y-129759281D01*
X134260039Y-129600698D01*
X134051302Y-129391961D01*
X133805853Y-129227958D01*
X133533125Y-129114990D01*
X133243599Y-129057400D01*
X132948401Y-129057400D01*
X132658875Y-129114990D01*
X132386147Y-129227958D01*
X132140698Y-129391961D01*
X131931961Y-129600698D01*
X131767958Y-129846147D01*
X131654990Y-130118875D01*
X131597400Y-130408401D01*
X129514600Y-130408401D01*
X129457010Y-130118875D01*
X129344042Y-129846147D01*
X129180039Y-129600698D01*
X128971302Y-129391961D01*
X128725853Y-129227958D01*
X128453125Y-129114990D01*
X128163599Y-129057400D01*
X127868401Y-129057400D01*
X127578875Y-129114990D01*
X127306147Y-129227958D01*
X127060698Y-129391961D01*
X126851961Y-129600698D01*
X126744308Y-129761813D01*
X126582854Y-129545707D01*
X126364488Y-129349183D01*
X126111978Y-129199036D01*
X125835027Y-129101037D01*
X125603000Y-129221536D01*
X125349000Y-129221536D01*
X125116973Y-129101037D01*
X124840022Y-129199036D01*
X124587512Y-129349183D01*
X124369146Y-129545707D01*
X124206000Y-129764078D01*
X124042854Y-129545707D01*
X123824488Y-129349183D01*
X123571978Y-129199036D01*
X123295027Y-129101037D01*
X123063000Y-129221536D01*
X122809000Y-129221536D01*
X122576973Y-129101037D01*
X122300022Y-129199036D01*
X122047512Y-129349183D01*
X121829146Y-129545707D01*
X121667692Y-129761813D01*
X121560039Y-129600698D01*
X121351302Y-129391961D01*
X121105853Y-129227958D01*
X120833125Y-129114990D01*
X120543599Y-129057400D01*
X120248401Y-129057400D01*
X119958875Y-129114990D01*
X119686147Y-129227958D01*
X119440698Y-129391961D01*
X119231961Y-129600698D01*
X119126000Y-129759281D01*
X119020039Y-129600698D01*
X118811302Y-129391961D01*
X118565853Y-129227958D01*
X118293125Y-129114990D01*
X118003599Y-129057400D01*
X117708401Y-129057400D01*
X117418875Y-129114990D01*
X117146147Y-129227958D01*
X116900698Y-129391961D01*
X116691961Y-129600698D01*
X116586000Y-129759281D01*
X116480039Y-129600698D01*
X116271302Y-129391961D01*
X116025853Y-129227958D01*
X115753125Y-129114990D01*
X115463599Y-129057400D01*
X115168401Y-129057400D01*
X114878875Y-129114990D01*
X114606147Y-129227958D01*
X114360698Y-129391961D01*
X114151961Y-129600698D01*
X114046000Y-129759281D01*
X113940039Y-129600698D01*
X113731302Y-129391961D01*
X113485853Y-129227958D01*
X113213125Y-129114990D01*
X112923599Y-129057400D01*
X112628401Y-129057400D01*
X112338875Y-129114990D01*
X112066147Y-129227958D01*
X111820698Y-129391961D01*
X111611961Y-129600698D01*
X111506000Y-129759281D01*
X111400039Y-129600698D01*
X111191302Y-129391961D01*
X110945853Y-129227958D01*
X110673125Y-129114990D01*
X110383599Y-129057400D01*
X110088401Y-129057400D01*
X109798875Y-129114990D01*
X109526147Y-129227958D01*
X109280698Y-129391961D01*
X109071961Y-129600698D01*
X108907958Y-129846147D01*
X108794990Y-130118875D01*
X108737400Y-130408401D01*
X99695000Y-130408401D01*
X99695000Y-127635000D01*
X147733795Y-127635000D01*
X148115872Y-127711000D01*
G37*
X148115872Y-127711000D02*
X148556128Y-127711000D01*
X148938205Y-127635000D01*
X150216001Y-127635000D01*
X150216001Y-128491572D01*
X150216000Y-128491582D01*
X150216000Y-129012619D01*
X147892236Y-131336384D01*
X147867052Y-131357052D01*
X147846386Y-131382234D01*
X147784575Y-131457550D01*
X147726452Y-131566293D01*
X147723290Y-131572208D01*
X147685550Y-131696618D01*
X147676000Y-131793582D01*
X147676000Y-131793591D01*
X147672808Y-131826000D01*
X147676000Y-131858409D01*
X147676000Y-132436000D01*
X99695000Y-132436000D01*
X99695000Y-130408401D01*
X108737400Y-130408401D01*
X108737400Y-130703599D01*
X108794990Y-130993125D01*
X108907958Y-131265853D01*
X109071961Y-131511302D01*
X109280698Y-131720039D01*
X109526147Y-131884042D01*
X109798875Y-131997010D01*
X110088401Y-132054600D01*
X110383599Y-132054600D01*
X110673125Y-131997010D01*
X110945853Y-131884042D01*
X111191302Y-131720039D01*
X111400039Y-131511302D01*
X111506000Y-131352719D01*
X111611961Y-131511302D01*
X111820698Y-131720039D01*
X112066147Y-131884042D01*
X112338875Y-131997010D01*
X112628401Y-132054600D01*
X112923599Y-132054600D01*
X113213125Y-131997010D01*
X113485853Y-131884042D01*
X113731302Y-131720039D01*
X113940039Y-131511302D01*
X114046000Y-131352719D01*
X114151961Y-131511302D01*
X114360698Y-131720039D01*
X114606147Y-131884042D01*
X114878875Y-131997010D01*
X115168401Y-132054600D01*
X115463599Y-132054600D01*
X115753125Y-131997010D01*
X116025853Y-131884042D01*
X116271302Y-131720039D01*
X116480039Y-131511302D01*
X116586000Y-131352719D01*
X116691961Y-131511302D01*
X116900698Y-131720039D01*
X117146147Y-131884042D01*
X117418875Y-131997010D01*
X117708401Y-132054600D01*
X118003599Y-132054600D01*
X118293125Y-131997010D01*
X118565853Y-131884042D01*
X118811302Y-131720039D01*
X119020039Y-131511302D01*
X119126000Y-131352719D01*
X119231961Y-131511302D01*
X119440698Y-131720039D01*
X119686147Y-131884042D01*
X119958875Y-131997010D01*
X120248401Y-132054600D01*
X120543599Y-132054600D01*
X120833125Y-131997010D01*
X121105853Y-131884042D01*
X121351302Y-131720039D01*
X121560039Y-131511302D01*
X121667692Y-131350187D01*
X121829146Y-131566293D01*
X122047512Y-131762817D01*
X122300022Y-131912964D01*
X122576973Y-132010963D01*
X122809000Y-131890464D01*
X122809000Y-130683000D01*
X123063000Y-130683000D01*
X123063000Y-131890464D01*
X123295027Y-132010963D01*
X123571978Y-131912964D01*
X123824488Y-131762817D01*
X124042854Y-131566293D01*
X124206000Y-131347922D01*
X124369146Y-131566293D01*
X124587512Y-131762817D01*
X124840022Y-131912964D01*
X125116973Y-132010963D01*
X125349000Y-131890464D01*
X125349000Y-130683000D01*
X123063000Y-130683000D01*
X122809000Y-130683000D01*
X122789000Y-130683000D01*
X122789000Y-130429000D01*
X122809000Y-130429000D01*
X122809000Y-129221536D01*
X123063000Y-129221536D01*
X123063000Y-130429000D01*
X125349000Y-130429000D01*
X125349000Y-129221536D01*
X125603000Y-129221536D01*
X125603000Y-130429000D01*
X125623000Y-130429000D01*
X125623000Y-130683000D01*
X125603000Y-130683000D01*
X125603000Y-131890464D01*
X125835027Y-132010963D01*
X126111978Y-131912964D01*
X126364488Y-131762817D01*
X126582854Y-131566293D01*
X126744308Y-131350187D01*
X126851961Y-131511302D01*
X127060698Y-131720039D01*
X127306147Y-131884042D01*
X127578875Y-131997010D01*
X127868401Y-132054600D01*
X128163599Y-132054600D01*
X128453125Y-131997010D01*
X128725853Y-131884042D01*
X128971302Y-131720039D01*
X129180039Y-131511302D01*
X129344042Y-131265853D01*
X129457010Y-130993125D01*
X129514600Y-130703599D01*
X129514600Y-130408401D01*
X131597400Y-130408401D01*
X131597400Y-130703599D01*
X131654990Y-130993125D01*
X131767958Y-131265853D01*
X131931961Y-131511302D01*
X132140698Y-131720039D01*
X132386147Y-131884042D01*
X132658875Y-131997010D01*
X132948401Y-132054600D01*
X133243599Y-132054600D01*
X133533125Y-131997010D01*
X133805853Y-131884042D01*
X134051302Y-131720039D01*
X134260039Y-131511302D01*
X134366000Y-131352719D01*
X134471961Y-131511302D01*
X134680698Y-131720039D01*
X134926147Y-131884042D01*
X135198875Y-131997010D01*
X135488401Y-132054600D01*
X135783599Y-132054600D01*
X136073125Y-131997010D01*
X136345853Y-131884042D01*
X136591302Y-131720039D01*
X136800039Y-131511302D01*
X136906000Y-131352719D01*
X137011961Y-131511302D01*
X137220698Y-131720039D01*
X137466147Y-131884042D01*
X137738875Y-131997010D01*
X138028401Y-132054600D01*
X138323599Y-132054600D01*
X138613125Y-131997010D01*
X138885853Y-131884042D01*
X139131302Y-131720039D01*
X139340039Y-131511302D01*
X139446000Y-131352719D01*
X139551961Y-131511302D01*
X139760698Y-131720039D01*
X140006147Y-131884042D01*
X140278875Y-131997010D01*
X140568401Y-132054600D01*
X140863599Y-132054600D01*
X141153125Y-131997010D01*
X141425853Y-131884042D01*
X141671302Y-131720039D01*
X141880039Y-131511302D01*
X141986000Y-131352719D01*
X142091961Y-131511302D01*
X142300698Y-131720039D01*
X142546147Y-131884042D01*
X142818875Y-131997010D01*
X143108401Y-132054600D01*
X143403599Y-132054600D01*
X143693125Y-131997010D01*
X143965853Y-131884042D01*
X144211302Y-131720039D01*
X144420039Y-131511302D01*
X144526000Y-131352719D01*
X144631961Y-131511302D01*
X144840698Y-131720039D01*
X145086147Y-131884042D01*
X145358875Y-131997010D01*
X145648401Y-132054600D01*
X145943599Y-132054600D01*
X146233125Y-131997010D01*
X146505853Y-131884042D01*
X146751302Y-131720039D01*
X146960039Y-131511302D01*
X147124042Y-131265853D01*
X147237010Y-130993125D01*
X147294600Y-130703599D01*
X147294600Y-130408401D01*
X147237010Y-130118875D01*
X147124042Y-129846147D01*
X146960039Y-129600698D01*
X146751302Y-129391961D01*
X146505853Y-129227958D01*
X146233125Y-129114990D01*
X145943599Y-129057400D01*
X145648401Y-129057400D01*
X145358875Y-129114990D01*
X145086147Y-129227958D01*
X144840698Y-129391961D01*
X144631961Y-129600698D01*
X144526000Y-129759281D01*
X144420039Y-129600698D01*
X144211302Y-129391961D01*
X143965853Y-129227958D01*
X143693125Y-129114990D01*
X143403599Y-129057400D01*
X143108401Y-129057400D01*
X142818875Y-129114990D01*
X142546147Y-129227958D01*
X142300698Y-129391961D01*
X142091961Y-129600698D01*
X141986000Y-129759281D01*
X141880039Y-129600698D01*
X141671302Y-129391961D01*
X141425853Y-129227958D01*
X141153125Y-129114990D01*
X140863599Y-129057400D01*
X140568401Y-129057400D01*
X140278875Y-129114990D01*
X140006147Y-129227958D01*
X139760698Y-129391961D01*
X139551961Y-129600698D01*
X139446000Y-129759281D01*
X139340039Y-129600698D01*
X139131302Y-129391961D01*
X138885853Y-129227958D01*
X138613125Y-129114990D01*
X138323599Y-129057400D01*
X138028401Y-129057400D01*
X137738875Y-129114990D01*
X137466147Y-129227958D01*
X137220698Y-129391961D01*
X137011961Y-129600698D01*
X136906000Y-129759281D01*
X136800039Y-129600698D01*
X136591302Y-129391961D01*
X136345853Y-129227958D01*
X136073125Y-129114990D01*
X135783599Y-129057400D01*
X135488401Y-129057400D01*
X135198875Y-129114990D01*
X134926147Y-129227958D01*
X134680698Y-129391961D01*
X134471961Y-129600698D01*
X134366000Y-129759281D01*
X134260039Y-129600698D01*
X134051302Y-129391961D01*
X133805853Y-129227958D01*
X133533125Y-129114990D01*
X133243599Y-129057400D01*
X132948401Y-129057400D01*
X132658875Y-129114990D01*
X132386147Y-129227958D01*
X132140698Y-129391961D01*
X131931961Y-129600698D01*
X131767958Y-129846147D01*
X131654990Y-130118875D01*
X131597400Y-130408401D01*
X129514600Y-130408401D01*
X129457010Y-130118875D01*
X129344042Y-129846147D01*
X129180039Y-129600698D01*
X128971302Y-129391961D01*
X128725853Y-129227958D01*
X128453125Y-129114990D01*
X128163599Y-129057400D01*
X127868401Y-129057400D01*
X127578875Y-129114990D01*
X127306147Y-129227958D01*
X127060698Y-129391961D01*
X126851961Y-129600698D01*
X126744308Y-129761813D01*
X126582854Y-129545707D01*
X126364488Y-129349183D01*
X126111978Y-129199036D01*
X125835027Y-129101037D01*
X125603000Y-129221536D01*
X125349000Y-129221536D01*
X125116973Y-129101037D01*
X124840022Y-129199036D01*
X124587512Y-129349183D01*
X124369146Y-129545707D01*
X124206000Y-129764078D01*
X124042854Y-129545707D01*
X123824488Y-129349183D01*
X123571978Y-129199036D01*
X123295027Y-129101037D01*
X123063000Y-129221536D01*
X122809000Y-129221536D01*
X122576973Y-129101037D01*
X122300022Y-129199036D01*
X122047512Y-129349183D01*
X121829146Y-129545707D01*
X121667692Y-129761813D01*
X121560039Y-129600698D01*
X121351302Y-129391961D01*
X121105853Y-129227958D01*
X120833125Y-129114990D01*
X120543599Y-129057400D01*
X120248401Y-129057400D01*
X119958875Y-129114990D01*
X119686147Y-129227958D01*
X119440698Y-129391961D01*
X119231961Y-129600698D01*
X119126000Y-129759281D01*
X119020039Y-129600698D01*
X118811302Y-129391961D01*
X118565853Y-129227958D01*
X118293125Y-129114990D01*
X118003599Y-129057400D01*
X117708401Y-129057400D01*
X117418875Y-129114990D01*
X117146147Y-129227958D01*
X116900698Y-129391961D01*
X116691961Y-129600698D01*
X116586000Y-129759281D01*
X116480039Y-129600698D01*
X116271302Y-129391961D01*
X116025853Y-129227958D01*
X115753125Y-129114990D01*
X115463599Y-129057400D01*
X115168401Y-129057400D01*
X114878875Y-129114990D01*
X114606147Y-129227958D01*
X114360698Y-129391961D01*
X114151961Y-129600698D01*
X114046000Y-129759281D01*
X113940039Y-129600698D01*
X113731302Y-129391961D01*
X113485853Y-129227958D01*
X113213125Y-129114990D01*
X112923599Y-129057400D01*
X112628401Y-129057400D01*
X112338875Y-129114990D01*
X112066147Y-129227958D01*
X111820698Y-129391961D01*
X111611961Y-129600698D01*
X111506000Y-129759281D01*
X111400039Y-129600698D01*
X111191302Y-129391961D01*
X110945853Y-129227958D01*
X110673125Y-129114990D01*
X110383599Y-129057400D01*
X110088401Y-129057400D01*
X109798875Y-129114990D01*
X109526147Y-129227958D01*
X109280698Y-129391961D01*
X109071961Y-129600698D01*
X108907958Y-129846147D01*
X108794990Y-130118875D01*
X108737400Y-130408401D01*
X99695000Y-130408401D01*
X99695000Y-127635000D01*
X147733795Y-127635000D01*
X148115872Y-127711000D01*
G36*
X147676000Y-81553381D02*
G01*
X147676001Y-92423581D01*
X147672808Y-92456000D01*
X147685551Y-92585382D01*
X147723290Y-92709792D01*
X147784575Y-92824450D01*
X147846386Y-92899766D01*
X147846389Y-92899769D01*
X147867053Y-92924948D01*
X147892232Y-92945612D01*
X150216000Y-95269381D01*
X150216000Y-96326726D01*
X150072038Y-96111271D01*
X149760729Y-95799962D01*
X149394669Y-95555369D01*
X148987925Y-95386890D01*
X148556128Y-95301000D01*
X148115872Y-95301000D01*
X147684075Y-95386890D01*
X147277331Y-95555369D01*
X146911271Y-95799962D01*
X146599962Y-96111271D01*
X146355369Y-96477331D01*
X146186890Y-96884075D01*
X146101000Y-97315872D01*
X146101000Y-97756128D01*
X146186890Y-98187925D01*
X146355369Y-98594669D01*
X146599962Y-98960729D01*
X146911271Y-99272038D01*
X147277331Y-99516631D01*
X147684075Y-99685110D01*
X148115872Y-99771000D01*
X148556128Y-99771000D01*
X148987925Y-99685110D01*
X149394669Y-99516631D01*
X149760729Y-99272038D01*
X150072038Y-98960729D01*
X150216000Y-98745274D01*
X150216001Y-124266727D01*
X150072038Y-124051271D01*
X149760729Y-123739962D01*
X149394669Y-123495369D01*
X148987925Y-123326890D01*
X148556128Y-123241000D01*
X148115872Y-123241000D01*
X147684075Y-123326890D01*
X147277331Y-123495369D01*
X146911271Y-123739962D01*
X146599962Y-124051271D01*
X146355369Y-124417331D01*
X146186890Y-124824075D01*
X146101000Y-125255872D01*
X146101000Y-125696128D01*
X146186890Y-126127925D01*
X146355369Y-126534669D01*
X146581434Y-126873000D01*
X140335000Y-126873000D01*
X140335000Y-109220000D01*
X140332560Y-109195224D01*
X140325333Y-109171399D01*
X140313597Y-109149443D01*
X140297803Y-109130197D01*
X140278557Y-109114403D01*
X140256601Y-109102667D01*
X140232776Y-109095440D01*
X140208000Y-109093000D01*
X130175000Y-109093000D01*
X130175000Y-106680000D01*
X130172560Y-106655224D01*
X130165333Y-106631399D01*
X130153597Y-106609443D01*
X130137803Y-106590197D01*
X130118557Y-106574403D01*
X130096601Y-106562667D01*
X130072776Y-106555440D01*
X130048000Y-106553000D01*
X122555000Y-106553000D01*
X122555000Y-103632000D01*
X122552560Y-103607224D01*
X122545333Y-103583399D01*
X122533597Y-103561443D01*
X122517803Y-103542197D01*
X122498557Y-103526403D01*
X122476601Y-103514667D01*
X122452776Y-103507440D01*
X122428000Y-103505000D01*
X115951000Y-103505000D01*
X115951000Y-103243413D01*
X131124192Y-103243413D01*
X131219956Y-103507814D01*
X131509571Y-103648704D01*
X131821108Y-103730384D01*
X132142595Y-103749718D01*
X132461675Y-103705961D01*
X132766088Y-103600795D01*
X132940044Y-103507814D01*
X133035808Y-103243413D01*
X132080000Y-102287605D01*
X131124192Y-103243413D01*
X115951000Y-103243413D01*
X115951000Y-102170595D01*
X130438282Y-102170595D01*
X130482039Y-102489675D01*
X130587205Y-102794088D01*
X130680186Y-102968044D01*
X130944587Y-103063808D01*
X131900395Y-102108000D01*
X132259605Y-102108000D01*
X133215413Y-103063808D01*
X133479814Y-102968044D01*
X133620704Y-102678429D01*
X133675769Y-102468401D01*
X144424400Y-102468401D01*
X144424400Y-102763599D01*
X144481990Y-103053125D01*
X144594958Y-103325853D01*
X144758961Y-103571302D01*
X144967698Y-103780039D01*
X145126281Y-103886000D01*
X144967698Y-103991961D01*
X144758961Y-104200698D01*
X144594958Y-104446147D01*
X144481990Y-104718875D01*
X144424400Y-105008401D01*
X144424400Y-105303599D01*
X144481990Y-105593125D01*
X144594958Y-105865853D01*
X144758961Y-106111302D01*
X144967698Y-106320039D01*
X145126281Y-106426000D01*
X144967698Y-106531961D01*
X144758961Y-106740698D01*
X144594958Y-106986147D01*
X144481990Y-107258875D01*
X144424400Y-107548401D01*
X144424400Y-107843599D01*
X144481990Y-108133125D01*
X144594958Y-108405853D01*
X144758961Y-108651302D01*
X144967698Y-108860039D01*
X145213147Y-109024042D01*
X145485875Y-109137010D01*
X145775401Y-109194600D01*
X146070599Y-109194600D01*
X146360125Y-109137010D01*
X146632853Y-109024042D01*
X146878302Y-108860039D01*
X147087039Y-108651302D01*
X147193000Y-108492719D01*
X147298961Y-108651302D01*
X147507698Y-108860039D01*
X147753147Y-109024042D01*
X148025875Y-109137010D01*
X148315401Y-109194600D01*
X148610599Y-109194600D01*
X148900125Y-109137010D01*
X149172853Y-109024042D01*
X149418302Y-108860039D01*
X149627039Y-108651302D01*
X149791042Y-108405853D01*
X149904010Y-108133125D01*
X149961600Y-107843599D01*
X149961600Y-107548401D01*
X149904010Y-107258875D01*
X149791042Y-106986147D01*
X149627039Y-106740698D01*
X149418302Y-106531961D01*
X149259719Y-106426000D01*
X149418302Y-106320039D01*
X149627039Y-106111302D01*
X149791042Y-105865853D01*
X149904010Y-105593125D01*
X149961600Y-105303599D01*
X149961600Y-105008401D01*
X149904010Y-104718875D01*
X149791042Y-104446147D01*
X149627039Y-104200698D01*
X149418302Y-103991961D01*
X149259719Y-103886000D01*
X149418302Y-103780039D01*
X149627039Y-103571302D01*
X149791042Y-103325853D01*
X149904010Y-103053125D01*
X149961600Y-102763599D01*
X149961600Y-102468401D01*
X149904010Y-102178875D01*
X149791042Y-101906147D01*
X149627039Y-101660698D01*
X149418302Y-101451961D01*
X149172853Y-101287958D01*
X148900125Y-101174990D01*
X148610599Y-101117400D01*
X148315401Y-101117400D01*
X148025875Y-101174990D01*
X147753147Y-101287958D01*
X147507698Y-101451961D01*
X147298961Y-101660698D01*
X147193000Y-101819281D01*
X147087039Y-101660698D01*
X146878302Y-101451961D01*
X146632853Y-101287958D01*
X146360125Y-101174990D01*
X146070599Y-101117400D01*
X145775401Y-101117400D01*
X145485875Y-101174990D01*
X145213147Y-101287958D01*
X144967698Y-101451961D01*
X144758961Y-101660698D01*
X144594958Y-101906147D01*
X144481990Y-102178875D01*
X144424400Y-102468401D01*
X133675769Y-102468401D01*
X133702384Y-102366892D01*
X133721718Y-102045405D01*
X133677961Y-101726325D01*
X133572795Y-101421912D01*
X133479814Y-101247956D01*
X133215413Y-101152192D01*
X132259605Y-102108000D01*
X131900395Y-102108000D01*
X130944587Y-101152192D01*
X130680186Y-101247956D01*
X130539296Y-101537571D01*
X130457616Y-101849108D01*
X130438282Y-102170595D01*
X115951000Y-102170595D01*
X115951000Y-101092000D01*
X115948560Y-101067224D01*
X115941333Y-101043399D01*
X115929597Y-101021443D01*
X115913803Y-101002197D01*
X115894557Y-100986403D01*
X115872601Y-100974667D01*
X115848776Y-100967440D01*
X115824000Y-100965000D01*
X105791000Y-100965000D01*
X105791000Y-100898061D01*
X116965000Y-100898061D01*
X116965000Y-101101939D01*
X117004774Y-101301898D01*
X117082795Y-101490256D01*
X117196063Y-101659774D01*
X117340226Y-101803937D01*
X117509744Y-101917205D01*
X117698102Y-101995226D01*
X117898061Y-102035000D01*
X118101939Y-102035000D01*
X118301898Y-101995226D01*
X118490256Y-101917205D01*
X118659774Y-101803937D01*
X118803937Y-101659774D01*
X118917205Y-101490256D01*
X118995226Y-101301898D01*
X119035000Y-101101939D01*
X119035000Y-100972587D01*
X131124192Y-100972587D01*
X132080000Y-101928395D01*
X133035808Y-100972587D01*
X132940044Y-100708186D01*
X132650429Y-100567296D01*
X132338892Y-100485616D01*
X132017405Y-100466282D01*
X131698325Y-100510039D01*
X131393912Y-100615205D01*
X131219956Y-100708186D01*
X131124192Y-100972587D01*
X119035000Y-100972587D01*
X119035000Y-100898061D01*
X118995226Y-100698102D01*
X118917205Y-100509744D01*
X118803937Y-100340226D01*
X118659774Y-100196063D01*
X118490256Y-100082795D01*
X118301898Y-100004774D01*
X118101939Y-99965000D01*
X117898061Y-99965000D01*
X117698102Y-100004774D01*
X117509744Y-100082795D01*
X117340226Y-100196063D01*
X117196063Y-100340226D01*
X117082795Y-100509744D01*
X117004774Y-100698102D01*
X116965000Y-100898061D01*
X105791000Y-100898061D01*
X105791000Y-98898061D01*
X111965000Y-98898061D01*
X111965000Y-99101939D01*
X112004774Y-99301898D01*
X112082795Y-99490256D01*
X112196063Y-99659774D01*
X112340226Y-99803937D01*
X112509744Y-99917205D01*
X112698102Y-99995226D01*
X112898061Y-100035000D01*
X113101939Y-100035000D01*
X113301898Y-99995226D01*
X113490256Y-99917205D01*
X113659774Y-99803937D01*
X113803937Y-99659774D01*
X113917205Y-99490256D01*
X113995226Y-99301898D01*
X114035000Y-99101939D01*
X114035000Y-98898061D01*
X113995226Y-98698102D01*
X113917205Y-98509744D01*
X113803937Y-98340226D01*
X113659774Y-98196063D01*
X113490256Y-98082795D01*
X113301898Y-98004774D01*
X113101939Y-97965000D01*
X112898061Y-97965000D01*
X112698102Y-98004774D01*
X112509744Y-98082795D01*
X112340226Y-98196063D01*
X112196063Y-98340226D01*
X112082795Y-98509744D01*
X112004774Y-98698102D01*
X111965000Y-98898061D01*
X105791000Y-98898061D01*
X105791000Y-94996000D01*
X105788560Y-94971224D01*
X105781333Y-94947399D01*
X105769597Y-94925443D01*
X105753803Y-94906197D01*
X105734557Y-94890403D01*
X105712601Y-94878667D01*
X105688776Y-94871440D01*
X105664000Y-94869000D01*
X99695000Y-94869000D01*
X99695000Y-91338967D01*
X106365000Y-91338967D01*
X106365000Y-91661033D01*
X106427832Y-91976912D01*
X106551082Y-92274463D01*
X106730013Y-92542252D01*
X106957748Y-92769987D01*
X107225537Y-92948918D01*
X107523088Y-93072168D01*
X107838967Y-93135000D01*
X108161033Y-93135000D01*
X108476912Y-93072168D01*
X108774463Y-92948918D01*
X109042252Y-92769987D01*
X109269987Y-92542252D01*
X109448918Y-92274463D01*
X109572168Y-91976912D01*
X109635000Y-91661033D01*
X109635000Y-91338967D01*
X112865000Y-91338967D01*
X112865000Y-91661033D01*
X112927832Y-91976912D01*
X113051082Y-92274463D01*
X113230013Y-92542252D01*
X113457748Y-92769987D01*
X113725537Y-92948918D01*
X114023088Y-93072168D01*
X114338967Y-93135000D01*
X114661033Y-93135000D01*
X114976912Y-93072168D01*
X115274463Y-92948918D01*
X115542252Y-92769987D01*
X115769987Y-92542252D01*
X115948918Y-92274463D01*
X116072168Y-91976912D01*
X116135000Y-91661033D01*
X116135000Y-91338967D01*
X116072168Y-91023088D01*
X115948918Y-90725537D01*
X115769987Y-90457748D01*
X115601652Y-90289413D01*
X123250192Y-90289413D01*
X123345956Y-90553814D01*
X123635571Y-90694704D01*
X123947108Y-90776384D01*
X124268595Y-90795718D01*
X124587675Y-90751961D01*
X124892088Y-90646795D01*
X125066044Y-90553814D01*
X125161808Y-90289413D01*
X124206000Y-89333605D01*
X123250192Y-90289413D01*
X115601652Y-90289413D01*
X115542252Y-90230013D01*
X115274463Y-90051082D01*
X114976912Y-89927832D01*
X114661033Y-89865000D01*
X114338967Y-89865000D01*
X114023088Y-89927832D01*
X113725537Y-90051082D01*
X113457748Y-90230013D01*
X113230013Y-90457748D01*
X113051082Y-90725537D01*
X112927832Y-91023088D01*
X112865000Y-91338967D01*
X109635000Y-91338967D01*
X109572168Y-91023088D01*
X109448918Y-90725537D01*
X109269987Y-90457748D01*
X109042252Y-90230013D01*
X108774463Y-90051082D01*
X108476912Y-89927832D01*
X108161033Y-89865000D01*
X107838967Y-89865000D01*
X107523088Y-89927832D01*
X107225537Y-90051082D01*
X106957748Y-90230013D01*
X106730013Y-90457748D01*
X106551082Y-90725537D01*
X106427832Y-91023088D01*
X106365000Y-91338967D01*
X99695000Y-91338967D01*
X99695000Y-89216595D01*
X122564282Y-89216595D01*
X122608039Y-89535675D01*
X122713205Y-89840088D01*
X122806186Y-90014044D01*
X123070587Y-90109808D01*
X124026395Y-89154000D01*
X124385605Y-89154000D01*
X125341413Y-90109808D01*
X125605814Y-90014044D01*
X125746704Y-89724429D01*
X125828384Y-89412892D01*
X125847718Y-89091405D01*
X125803961Y-88772325D01*
X125698795Y-88467912D01*
X125605814Y-88293956D01*
X125341413Y-88198192D01*
X124385605Y-89154000D01*
X124026395Y-89154000D01*
X123070587Y-88198192D01*
X122806186Y-88293956D01*
X122665296Y-88583571D01*
X122583616Y-88895108D01*
X122564282Y-89216595D01*
X99695000Y-89216595D01*
X99695000Y-86838967D01*
X106365000Y-86838967D01*
X106365000Y-87161033D01*
X106427832Y-87476912D01*
X106551082Y-87774463D01*
X106730013Y-88042252D01*
X106957748Y-88269987D01*
X107225537Y-88448918D01*
X107523088Y-88572168D01*
X107838967Y-88635000D01*
X108161033Y-88635000D01*
X108476912Y-88572168D01*
X108774463Y-88448918D01*
X109042252Y-88269987D01*
X109269987Y-88042252D01*
X109448918Y-87774463D01*
X109572168Y-87476912D01*
X109635000Y-87161033D01*
X109635000Y-86838967D01*
X112865000Y-86838967D01*
X112865000Y-87161033D01*
X112927832Y-87476912D01*
X113051082Y-87774463D01*
X113230013Y-88042252D01*
X113457748Y-88269987D01*
X113725537Y-88448918D01*
X114023088Y-88572168D01*
X114338967Y-88635000D01*
X114661033Y-88635000D01*
X114976912Y-88572168D01*
X115274463Y-88448918D01*
X115542252Y-88269987D01*
X115769987Y-88042252D01*
X115785799Y-88018587D01*
X123250192Y-88018587D01*
X124206000Y-88974395D01*
X125161808Y-88018587D01*
X125066044Y-87754186D01*
X124776429Y-87613296D01*
X124464892Y-87531616D01*
X124143405Y-87512282D01*
X123824325Y-87556039D01*
X123519912Y-87661205D01*
X123345956Y-87754186D01*
X123250192Y-88018587D01*
X115785799Y-88018587D01*
X115948918Y-87774463D01*
X116072168Y-87476912D01*
X116135000Y-87161033D01*
X116135000Y-86838967D01*
X116072168Y-86523088D01*
X115948918Y-86225537D01*
X115769987Y-85957748D01*
X115651206Y-85838967D01*
X118365000Y-85838967D01*
X118365000Y-86161033D01*
X118427832Y-86476912D01*
X118551082Y-86774463D01*
X118730013Y-87042252D01*
X118957748Y-87269987D01*
X119225537Y-87448918D01*
X119523088Y-87572168D01*
X119838967Y-87635000D01*
X120161033Y-87635000D01*
X120476912Y-87572168D01*
X120774463Y-87448918D01*
X121042252Y-87269987D01*
X121269987Y-87042252D01*
X121448918Y-86774463D01*
X121572168Y-86476912D01*
X121635000Y-86161033D01*
X121635000Y-85838967D01*
X127365000Y-85838967D01*
X127365000Y-86161033D01*
X127427832Y-86476912D01*
X127551082Y-86774463D01*
X127730013Y-87042252D01*
X127957748Y-87269987D01*
X128225537Y-87448918D01*
X128523088Y-87572168D01*
X128838967Y-87635000D01*
X129161033Y-87635000D01*
X129476912Y-87572168D01*
X129774463Y-87448918D01*
X130042252Y-87269987D01*
X130269987Y-87042252D01*
X130448918Y-86774463D01*
X130572168Y-86476912D01*
X130635000Y-86161033D01*
X130635000Y-85838967D01*
X134365000Y-85838967D01*
X134365000Y-86161033D01*
X134427832Y-86476912D01*
X134551082Y-86774463D01*
X134730013Y-87042252D01*
X134957748Y-87269987D01*
X135225537Y-87448918D01*
X135523088Y-87572168D01*
X135838967Y-87635000D01*
X136161033Y-87635000D01*
X136476912Y-87572168D01*
X136774463Y-87448918D01*
X137042252Y-87269987D01*
X137269987Y-87042252D01*
X137448918Y-86774463D01*
X137572168Y-86476912D01*
X137635000Y-86161033D01*
X137635000Y-85838967D01*
X141365000Y-85838967D01*
X141365000Y-86161033D01*
X141427832Y-86476912D01*
X141551082Y-86774463D01*
X141730013Y-87042252D01*
X141957748Y-87269987D01*
X142225537Y-87448918D01*
X142523088Y-87572168D01*
X142838967Y-87635000D01*
X143161033Y-87635000D01*
X143476912Y-87572168D01*
X143774463Y-87448918D01*
X144042252Y-87269987D01*
X144269987Y-87042252D01*
X144448918Y-86774463D01*
X144572168Y-86476912D01*
X144635000Y-86161033D01*
X144635000Y-85838967D01*
X144572168Y-85523088D01*
X144448918Y-85225537D01*
X144269987Y-84957748D01*
X144042252Y-84730013D01*
X143774463Y-84551082D01*
X143476912Y-84427832D01*
X143161033Y-84365000D01*
X142838967Y-84365000D01*
X142523088Y-84427832D01*
X142225537Y-84551082D01*
X141957748Y-84730013D01*
X141730013Y-84957748D01*
X141551082Y-85225537D01*
X141427832Y-85523088D01*
X141365000Y-85838967D01*
X137635000Y-85838967D01*
X137572168Y-85523088D01*
X137448918Y-85225537D01*
X137269987Y-84957748D01*
X137042252Y-84730013D01*
X136774463Y-84551082D01*
X136476912Y-84427832D01*
X136161033Y-84365000D01*
X135838967Y-84365000D01*
X135523088Y-84427832D01*
X135225537Y-84551082D01*
X134957748Y-84730013D01*
X134730013Y-84957748D01*
X134551082Y-85225537D01*
X134427832Y-85523088D01*
X134365000Y-85838967D01*
X130635000Y-85838967D01*
X130572168Y-85523088D01*
X130448918Y-85225537D01*
X130269987Y-84957748D01*
X130042252Y-84730013D01*
X129774463Y-84551082D01*
X129476912Y-84427832D01*
X129161033Y-84365000D01*
X128838967Y-84365000D01*
X128523088Y-84427832D01*
X128225537Y-84551082D01*
X127957748Y-84730013D01*
X127730013Y-84957748D01*
X127551082Y-85225537D01*
X127427832Y-85523088D01*
X127365000Y-85838967D01*
X121635000Y-85838967D01*
X121572168Y-85523088D01*
X121448918Y-85225537D01*
X121269987Y-84957748D01*
X121042252Y-84730013D01*
X120774463Y-84551082D01*
X120476912Y-84427832D01*
X120161033Y-84365000D01*
X119838967Y-84365000D01*
X119523088Y-84427832D01*
X119225537Y-84551082D01*
X118957748Y-84730013D01*
X118730013Y-84957748D01*
X118551082Y-85225537D01*
X118427832Y-85523088D01*
X118365000Y-85838967D01*
X115651206Y-85838967D01*
X115542252Y-85730013D01*
X115274463Y-85551082D01*
X114976912Y-85427832D01*
X114661033Y-85365000D01*
X114338967Y-85365000D01*
X114023088Y-85427832D01*
X113725537Y-85551082D01*
X113457748Y-85730013D01*
X113230013Y-85957748D01*
X113051082Y-86225537D01*
X112927832Y-86523088D01*
X112865000Y-86838967D01*
X109635000Y-86838967D01*
X109572168Y-86523088D01*
X109448918Y-86225537D01*
X109269987Y-85957748D01*
X109042252Y-85730013D01*
X108774463Y-85551082D01*
X108476912Y-85427832D01*
X108161033Y-85365000D01*
X107838967Y-85365000D01*
X107523088Y-85427832D01*
X107225537Y-85551082D01*
X106957748Y-85730013D01*
X106730013Y-85957748D01*
X106551082Y-86225537D01*
X106427832Y-86523088D01*
X106365000Y-86838967D01*
X99695000Y-86838967D01*
X99695000Y-82898205D01*
X99702906Y-82858460D01*
X99763958Y-83005853D01*
X99927961Y-83251302D01*
X100136698Y-83460039D01*
X100382147Y-83624042D01*
X100654875Y-83737010D01*
X100944401Y-83794600D01*
X101239599Y-83794600D01*
X101529125Y-83737010D01*
X101801853Y-83624042D01*
X102047302Y-83460039D01*
X102256039Y-83251302D01*
X102362000Y-83092719D01*
X102467961Y-83251302D01*
X102676698Y-83460039D01*
X102922147Y-83624042D01*
X103194875Y-83737010D01*
X103484401Y-83794600D01*
X103779599Y-83794600D01*
X104069125Y-83737010D01*
X104341853Y-83624042D01*
X104587302Y-83460039D01*
X104796039Y-83251302D01*
X104902000Y-83092719D01*
X105007961Y-83251302D01*
X105216698Y-83460039D01*
X105462147Y-83624042D01*
X105734875Y-83737010D01*
X106024401Y-83794600D01*
X106319599Y-83794600D01*
X106609125Y-83737010D01*
X106881853Y-83624042D01*
X107127302Y-83460039D01*
X107336039Y-83251302D01*
X107442000Y-83092719D01*
X107547961Y-83251302D01*
X107756698Y-83460039D01*
X108002147Y-83624042D01*
X108274875Y-83737010D01*
X108564401Y-83794600D01*
X108859599Y-83794600D01*
X109149125Y-83737010D01*
X109421853Y-83624042D01*
X109667302Y-83460039D01*
X109876039Y-83251302D01*
X109982000Y-83092719D01*
X110087961Y-83251302D01*
X110296698Y-83460039D01*
X110542147Y-83624042D01*
X110814875Y-83737010D01*
X111104401Y-83794600D01*
X111399599Y-83794600D01*
X111689125Y-83737010D01*
X111961853Y-83624042D01*
X112207302Y-83460039D01*
X112416039Y-83251302D01*
X112522000Y-83092719D01*
X112627961Y-83251302D01*
X112836698Y-83460039D01*
X113082147Y-83624042D01*
X113354875Y-83737010D01*
X113644401Y-83794600D01*
X113939599Y-83794600D01*
X114229125Y-83737010D01*
X114501853Y-83624042D01*
X114747302Y-83460039D01*
X114956039Y-83251302D01*
X115062000Y-83092719D01*
X115167961Y-83251302D01*
X115376698Y-83460039D01*
X115622147Y-83624042D01*
X115894875Y-83737010D01*
X116184401Y-83794600D01*
X116479599Y-83794600D01*
X116769125Y-83737010D01*
X117041853Y-83624042D01*
X117287302Y-83460039D01*
X117496039Y-83251302D01*
X117602000Y-83092719D01*
X117707961Y-83251302D01*
X117916698Y-83460039D01*
X118162147Y-83624042D01*
X118434875Y-83737010D01*
X118724401Y-83794600D01*
X119019599Y-83794600D01*
X119309125Y-83737010D01*
X119581853Y-83624042D01*
X119827302Y-83460039D01*
X120036039Y-83251302D01*
X120142000Y-83092719D01*
X120247961Y-83251302D01*
X120456698Y-83460039D01*
X120702147Y-83624042D01*
X120974875Y-83737010D01*
X121264401Y-83794600D01*
X121559599Y-83794600D01*
X121849125Y-83737010D01*
X122121853Y-83624042D01*
X122367302Y-83460039D01*
X122576039Y-83251302D01*
X122682000Y-83092719D01*
X122787961Y-83251302D01*
X122996698Y-83460039D01*
X123242147Y-83624042D01*
X123514875Y-83737010D01*
X123804401Y-83794600D01*
X124099599Y-83794600D01*
X124389125Y-83737010D01*
X124661853Y-83624042D01*
X124907302Y-83460039D01*
X125116039Y-83251302D01*
X125280042Y-83005853D01*
X125393010Y-82733125D01*
X125450600Y-82443599D01*
X125450600Y-82148401D01*
X126517400Y-82148401D01*
X126517400Y-82443599D01*
X126574990Y-82733125D01*
X126687958Y-83005853D01*
X126851961Y-83251302D01*
X127060698Y-83460039D01*
X127306147Y-83624042D01*
X127578875Y-83737010D01*
X127868401Y-83794600D01*
X128163599Y-83794600D01*
X128453125Y-83737010D01*
X128725853Y-83624042D01*
X128971302Y-83460039D01*
X129180039Y-83251302D01*
X129286000Y-83092719D01*
X129391961Y-83251302D01*
X129600698Y-83460039D01*
X129846147Y-83624042D01*
X130118875Y-83737010D01*
X130408401Y-83794600D01*
X130703599Y-83794600D01*
X130993125Y-83737010D01*
X131265853Y-83624042D01*
X131511302Y-83460039D01*
X131720039Y-83251302D01*
X131826000Y-83092719D01*
X131931961Y-83251302D01*
X132140698Y-83460039D01*
X132386147Y-83624042D01*
X132658875Y-83737010D01*
X132948401Y-83794600D01*
X133243599Y-83794600D01*
X133533125Y-83737010D01*
X133805853Y-83624042D01*
X134051302Y-83460039D01*
X134260039Y-83251302D01*
X134366000Y-83092719D01*
X134471961Y-83251302D01*
X134680698Y-83460039D01*
X134926147Y-83624042D01*
X135198875Y-83737010D01*
X135488401Y-83794600D01*
X135783599Y-83794600D01*
X136073125Y-83737010D01*
X136345853Y-83624042D01*
X136591302Y-83460039D01*
X136800039Y-83251302D01*
X136906000Y-83092719D01*
X137011961Y-83251302D01*
X137220698Y-83460039D01*
X137466147Y-83624042D01*
X137738875Y-83737010D01*
X138028401Y-83794600D01*
X138323599Y-83794600D01*
X138613125Y-83737010D01*
X138885853Y-83624042D01*
X139131302Y-83460039D01*
X139340039Y-83251302D01*
X139446000Y-83092719D01*
X139551961Y-83251302D01*
X139760698Y-83460039D01*
X140006147Y-83624042D01*
X140278875Y-83737010D01*
X140568401Y-83794600D01*
X140863599Y-83794600D01*
X141153125Y-83737010D01*
X141425853Y-83624042D01*
X141671302Y-83460039D01*
X141880039Y-83251302D01*
X141986000Y-83092719D01*
X142091961Y-83251302D01*
X142300698Y-83460039D01*
X142546147Y-83624042D01*
X142818875Y-83737010D01*
X143108401Y-83794600D01*
X143403599Y-83794600D01*
X143693125Y-83737010D01*
X143965853Y-83624042D01*
X144211302Y-83460039D01*
X144420039Y-83251302D01*
X144526000Y-83092719D01*
X144631961Y-83251302D01*
X144840698Y-83460039D01*
X145086147Y-83624042D01*
X145358875Y-83737010D01*
X145648401Y-83794600D01*
X145943599Y-83794600D01*
X146233125Y-83737010D01*
X146505853Y-83624042D01*
X146751302Y-83460039D01*
X146960039Y-83251302D01*
X147124042Y-83005853D01*
X147237010Y-82733125D01*
X147294600Y-82443599D01*
X147294600Y-82148401D01*
X147237010Y-81858875D01*
X147124042Y-81586147D01*
X146960039Y-81340698D01*
X146751302Y-81131961D01*
X146505853Y-80967958D01*
X146233125Y-80854990D01*
X145943599Y-80797400D01*
X145648401Y-80797400D01*
X145358875Y-80854990D01*
X145086147Y-80967958D01*
X144840698Y-81131961D01*
X144631961Y-81340698D01*
X144526000Y-81499281D01*
X144420039Y-81340698D01*
X144211302Y-81131961D01*
X143965853Y-80967958D01*
X143693125Y-80854990D01*
X143403599Y-80797400D01*
X143108401Y-80797400D01*
X142818875Y-80854990D01*
X142546147Y-80967958D01*
X142300698Y-81131961D01*
X142091961Y-81340698D01*
X141986000Y-81499281D01*
X141880039Y-81340698D01*
X141671302Y-81131961D01*
X141425853Y-80967958D01*
X141153125Y-80854990D01*
X140863599Y-80797400D01*
X140568401Y-80797400D01*
X140278875Y-80854990D01*
X140006147Y-80967958D01*
X139760698Y-81131961D01*
X139551961Y-81340698D01*
X139446000Y-81499281D01*
X139340039Y-81340698D01*
X139131302Y-81131961D01*
X138885853Y-80967958D01*
X138613125Y-80854990D01*
X138323599Y-80797400D01*
X138028401Y-80797400D01*
X137738875Y-80854990D01*
X137466147Y-80967958D01*
X137220698Y-81131961D01*
X137011961Y-81340698D01*
X136906000Y-81499281D01*
X136800039Y-81340698D01*
X136591302Y-81131961D01*
X136345853Y-80967958D01*
X136073125Y-80854990D01*
X135783599Y-80797400D01*
X135488401Y-80797400D01*
X135198875Y-80854990D01*
X134926147Y-80967958D01*
X134680698Y-81131961D01*
X134471961Y-81340698D01*
X134366000Y-81499281D01*
X134260039Y-81340698D01*
X134051302Y-81131961D01*
X133805853Y-80967958D01*
X133533125Y-80854990D01*
X133243599Y-80797400D01*
X132948401Y-80797400D01*
X132658875Y-80854990D01*
X132386147Y-80967958D01*
X132140698Y-81131961D01*
X131931961Y-81340698D01*
X131826000Y-81499281D01*
X131720039Y-81340698D01*
X131511302Y-81131961D01*
X131265853Y-80967958D01*
X130993125Y-80854990D01*
X130703599Y-80797400D01*
X130408401Y-80797400D01*
X130118875Y-80854990D01*
X129846147Y-80967958D01*
X129600698Y-81131961D01*
X129391961Y-81340698D01*
X129286000Y-81499281D01*
X129180039Y-81340698D01*
X128971302Y-81131961D01*
X128725853Y-80967958D01*
X128453125Y-80854990D01*
X128163599Y-80797400D01*
X127868401Y-80797400D01*
X127578875Y-80854990D01*
X127306147Y-80967958D01*
X127060698Y-81131961D01*
X126851961Y-81340698D01*
X126687958Y-81586147D01*
X126574990Y-81858875D01*
X126517400Y-82148401D01*
X125450600Y-82148401D01*
X125393010Y-81858875D01*
X125280042Y-81586147D01*
X125116039Y-81340698D01*
X124907302Y-81131961D01*
X124661853Y-80967958D01*
X124389125Y-80854990D01*
X124099599Y-80797400D01*
X123804401Y-80797400D01*
X123514875Y-80854990D01*
X123242147Y-80967958D01*
X122996698Y-81131961D01*
X122787961Y-81340698D01*
X122682000Y-81499281D01*
X122576039Y-81340698D01*
X122367302Y-81131961D01*
X122121853Y-80967958D01*
X121849125Y-80854990D01*
X121559599Y-80797400D01*
X121264401Y-80797400D01*
X120974875Y-80854990D01*
X120702147Y-80967958D01*
X120456698Y-81131961D01*
X120247961Y-81340698D01*
X120142000Y-81499281D01*
X120036039Y-81340698D01*
X119827302Y-81131961D01*
X119581853Y-80967958D01*
X119309125Y-80854990D01*
X119019599Y-80797400D01*
X118724401Y-80797400D01*
X118434875Y-80854990D01*
X118162147Y-80967958D01*
X117916698Y-81131961D01*
X117707961Y-81340698D01*
X117602000Y-81499281D01*
X117496039Y-81340698D01*
X117287302Y-81131961D01*
X117041853Y-80967958D01*
X116769125Y-80854990D01*
X116479599Y-80797400D01*
X116184401Y-80797400D01*
X115894875Y-80854990D01*
X115622147Y-80967958D01*
X115376698Y-81131961D01*
X115167961Y-81340698D01*
X115062000Y-81499281D01*
X114956039Y-81340698D01*
X114747302Y-81131961D01*
X114501853Y-80967958D01*
X114229125Y-80854990D01*
X113939599Y-80797400D01*
X113644401Y-80797400D01*
X113354875Y-80854990D01*
X113082147Y-80967958D01*
X112836698Y-81131961D01*
X112627961Y-81340698D01*
X112522000Y-81499281D01*
X112416039Y-81340698D01*
X112207302Y-81131961D01*
X111961853Y-80967958D01*
X111689125Y-80854990D01*
X111399599Y-80797400D01*
X111104401Y-80797400D01*
X110814875Y-80854990D01*
X110542147Y-80967958D01*
X110296698Y-81131961D01*
X110087961Y-81340698D01*
X109982000Y-81499281D01*
X109876039Y-81340698D01*
X109667302Y-81131961D01*
X109421853Y-80967958D01*
X109149125Y-80854990D01*
X108859599Y-80797400D01*
X108564401Y-80797400D01*
X108274875Y-80854990D01*
X108002147Y-80967958D01*
X107756698Y-81131961D01*
X107547961Y-81340698D01*
X107442000Y-81499281D01*
X107336039Y-81340698D01*
X107127302Y-81131961D01*
X106881853Y-80967958D01*
X106609125Y-80854990D01*
X106319599Y-80797400D01*
X106024401Y-80797400D01*
X105734875Y-80854990D01*
X105462147Y-80967958D01*
X105216698Y-81131961D01*
X105007961Y-81340698D01*
X104902000Y-81499281D01*
X104796039Y-81340698D01*
X104587302Y-81131961D01*
X104341853Y-80967958D01*
X104069125Y-80854990D01*
X103779599Y-80797400D01*
X103484401Y-80797400D01*
X103194875Y-80854990D01*
X102922147Y-80967958D01*
X102676698Y-81131961D01*
X102467961Y-81340698D01*
X102362000Y-81499281D01*
X102256039Y-81340698D01*
X102047302Y-81131961D01*
X101801853Y-80967958D01*
X101529125Y-80854990D01*
X101239599Y-80797400D01*
X100944401Y-80797400D01*
X100654875Y-80854990D01*
X100382147Y-80967958D01*
X100136698Y-81131961D01*
X99927961Y-81340698D01*
X99763958Y-81586147D01*
X99702906Y-81733540D01*
X99695000Y-81693795D01*
X99695000Y-80416000D01*
X146538620Y-80416000D01*
X147676000Y-81553381D01*
G37*
X147676000Y-81553381D02*
X147676001Y-92423581D01*
X147672808Y-92456000D01*
X147685551Y-92585382D01*
X147723290Y-92709792D01*
X147784575Y-92824450D01*
X147846386Y-92899766D01*
X147846389Y-92899769D01*
X147867053Y-92924948D01*
X147892232Y-92945612D01*
X150216000Y-95269381D01*
X150216000Y-96326726D01*
X150072038Y-96111271D01*
X149760729Y-95799962D01*
X149394669Y-95555369D01*
X148987925Y-95386890D01*
X148556128Y-95301000D01*
X148115872Y-95301000D01*
X147684075Y-95386890D01*
X147277331Y-95555369D01*
X146911271Y-95799962D01*
X146599962Y-96111271D01*
X146355369Y-96477331D01*
X146186890Y-96884075D01*
X146101000Y-97315872D01*
X146101000Y-97756128D01*
X146186890Y-98187925D01*
X146355369Y-98594669D01*
X146599962Y-98960729D01*
X146911271Y-99272038D01*
X147277331Y-99516631D01*
X147684075Y-99685110D01*
X148115872Y-99771000D01*
X148556128Y-99771000D01*
X148987925Y-99685110D01*
X149394669Y-99516631D01*
X149760729Y-99272038D01*
X150072038Y-98960729D01*
X150216000Y-98745274D01*
X150216001Y-124266727D01*
X150072038Y-124051271D01*
X149760729Y-123739962D01*
X149394669Y-123495369D01*
X148987925Y-123326890D01*
X148556128Y-123241000D01*
X148115872Y-123241000D01*
X147684075Y-123326890D01*
X147277331Y-123495369D01*
X146911271Y-123739962D01*
X146599962Y-124051271D01*
X146355369Y-124417331D01*
X146186890Y-124824075D01*
X146101000Y-125255872D01*
X146101000Y-125696128D01*
X146186890Y-126127925D01*
X146355369Y-126534669D01*
X146581434Y-126873000D01*
X140335000Y-126873000D01*
X140335000Y-109220000D01*
X140332560Y-109195224D01*
X140325333Y-109171399D01*
X140313597Y-109149443D01*
X140297803Y-109130197D01*
X140278557Y-109114403D01*
X140256601Y-109102667D01*
X140232776Y-109095440D01*
X140208000Y-109093000D01*
X130175000Y-109093000D01*
X130175000Y-106680000D01*
X130172560Y-106655224D01*
X130165333Y-106631399D01*
X130153597Y-106609443D01*
X130137803Y-106590197D01*
X130118557Y-106574403D01*
X130096601Y-106562667D01*
X130072776Y-106555440D01*
X130048000Y-106553000D01*
X122555000Y-106553000D01*
X122555000Y-103632000D01*
X122552560Y-103607224D01*
X122545333Y-103583399D01*
X122533597Y-103561443D01*
X122517803Y-103542197D01*
X122498557Y-103526403D01*
X122476601Y-103514667D01*
X122452776Y-103507440D01*
X122428000Y-103505000D01*
X115951000Y-103505000D01*
X115951000Y-103243413D01*
X131124192Y-103243413D01*
X131219956Y-103507814D01*
X131509571Y-103648704D01*
X131821108Y-103730384D01*
X132142595Y-103749718D01*
X132461675Y-103705961D01*
X132766088Y-103600795D01*
X132940044Y-103507814D01*
X133035808Y-103243413D01*
X132080000Y-102287605D01*
X131124192Y-103243413D01*
X115951000Y-103243413D01*
X115951000Y-102170595D01*
X130438282Y-102170595D01*
X130482039Y-102489675D01*
X130587205Y-102794088D01*
X130680186Y-102968044D01*
X130944587Y-103063808D01*
X131900395Y-102108000D01*
X132259605Y-102108000D01*
X133215413Y-103063808D01*
X133479814Y-102968044D01*
X133620704Y-102678429D01*
X133675769Y-102468401D01*
X144424400Y-102468401D01*
X144424400Y-102763599D01*
X144481990Y-103053125D01*
X144594958Y-103325853D01*
X144758961Y-103571302D01*
X144967698Y-103780039D01*
X145126281Y-103886000D01*
X144967698Y-103991961D01*
X144758961Y-104200698D01*
X144594958Y-104446147D01*
X144481990Y-104718875D01*
X144424400Y-105008401D01*
X144424400Y-105303599D01*
X144481990Y-105593125D01*
X144594958Y-105865853D01*
X144758961Y-106111302D01*
X144967698Y-106320039D01*
X145126281Y-106426000D01*
X144967698Y-106531961D01*
X144758961Y-106740698D01*
X144594958Y-106986147D01*
X144481990Y-107258875D01*
X144424400Y-107548401D01*
X144424400Y-107843599D01*
X144481990Y-108133125D01*
X144594958Y-108405853D01*
X144758961Y-108651302D01*
X144967698Y-108860039D01*
X145213147Y-109024042D01*
X145485875Y-109137010D01*
X145775401Y-109194600D01*
X146070599Y-109194600D01*
X146360125Y-109137010D01*
X146632853Y-109024042D01*
X146878302Y-108860039D01*
X147087039Y-108651302D01*
X147193000Y-108492719D01*
X147298961Y-108651302D01*
X147507698Y-108860039D01*
X147753147Y-109024042D01*
X148025875Y-109137010D01*
X148315401Y-109194600D01*
X148610599Y-109194600D01*
X148900125Y-109137010D01*
X149172853Y-109024042D01*
X149418302Y-108860039D01*
X149627039Y-108651302D01*
X149791042Y-108405853D01*
X149904010Y-108133125D01*
X149961600Y-107843599D01*
X149961600Y-107548401D01*
X149904010Y-107258875D01*
X149791042Y-106986147D01*
X149627039Y-106740698D01*
X149418302Y-106531961D01*
X149259719Y-106426000D01*
X149418302Y-106320039D01*
X149627039Y-106111302D01*
X149791042Y-105865853D01*
X149904010Y-105593125D01*
X149961600Y-105303599D01*
X149961600Y-105008401D01*
X149904010Y-104718875D01*
X149791042Y-104446147D01*
X149627039Y-104200698D01*
X149418302Y-103991961D01*
X149259719Y-103886000D01*
X149418302Y-103780039D01*
X149627039Y-103571302D01*
X149791042Y-103325853D01*
X149904010Y-103053125D01*
X149961600Y-102763599D01*
X149961600Y-102468401D01*
X149904010Y-102178875D01*
X149791042Y-101906147D01*
X149627039Y-101660698D01*
X149418302Y-101451961D01*
X149172853Y-101287958D01*
X148900125Y-101174990D01*
X148610599Y-101117400D01*
X148315401Y-101117400D01*
X148025875Y-101174990D01*
X147753147Y-101287958D01*
X147507698Y-101451961D01*
X147298961Y-101660698D01*
X147193000Y-101819281D01*
X147087039Y-101660698D01*
X146878302Y-101451961D01*
X146632853Y-101287958D01*
X146360125Y-101174990D01*
X146070599Y-101117400D01*
X145775401Y-101117400D01*
X145485875Y-101174990D01*
X145213147Y-101287958D01*
X144967698Y-101451961D01*
X144758961Y-101660698D01*
X144594958Y-101906147D01*
X144481990Y-102178875D01*
X144424400Y-102468401D01*
X133675769Y-102468401D01*
X133702384Y-102366892D01*
X133721718Y-102045405D01*
X133677961Y-101726325D01*
X133572795Y-101421912D01*
X133479814Y-101247956D01*
X133215413Y-101152192D01*
X132259605Y-102108000D01*
X131900395Y-102108000D01*
X130944587Y-101152192D01*
X130680186Y-101247956D01*
X130539296Y-101537571D01*
X130457616Y-101849108D01*
X130438282Y-102170595D01*
X115951000Y-102170595D01*
X115951000Y-101092000D01*
X115948560Y-101067224D01*
X115941333Y-101043399D01*
X115929597Y-101021443D01*
X115913803Y-101002197D01*
X115894557Y-100986403D01*
X115872601Y-100974667D01*
X115848776Y-100967440D01*
X115824000Y-100965000D01*
X105791000Y-100965000D01*
X105791000Y-100898061D01*
X116965000Y-100898061D01*
X116965000Y-101101939D01*
X117004774Y-101301898D01*
X117082795Y-101490256D01*
X117196063Y-101659774D01*
X117340226Y-101803937D01*
X117509744Y-101917205D01*
X117698102Y-101995226D01*
X117898061Y-102035000D01*
X118101939Y-102035000D01*
X118301898Y-101995226D01*
X118490256Y-101917205D01*
X118659774Y-101803937D01*
X118803937Y-101659774D01*
X118917205Y-101490256D01*
X118995226Y-101301898D01*
X119035000Y-101101939D01*
X119035000Y-100972587D01*
X131124192Y-100972587D01*
X132080000Y-101928395D01*
X133035808Y-100972587D01*
X132940044Y-100708186D01*
X132650429Y-100567296D01*
X132338892Y-100485616D01*
X132017405Y-100466282D01*
X131698325Y-100510039D01*
X131393912Y-100615205D01*
X131219956Y-100708186D01*
X131124192Y-100972587D01*
X119035000Y-100972587D01*
X119035000Y-100898061D01*
X118995226Y-100698102D01*
X118917205Y-100509744D01*
X118803937Y-100340226D01*
X118659774Y-100196063D01*
X118490256Y-100082795D01*
X118301898Y-100004774D01*
X118101939Y-99965000D01*
X117898061Y-99965000D01*
X117698102Y-100004774D01*
X117509744Y-100082795D01*
X117340226Y-100196063D01*
X117196063Y-100340226D01*
X117082795Y-100509744D01*
X117004774Y-100698102D01*
X116965000Y-100898061D01*
X105791000Y-100898061D01*
X105791000Y-98898061D01*
X111965000Y-98898061D01*
X111965000Y-99101939D01*
X112004774Y-99301898D01*
X112082795Y-99490256D01*
X112196063Y-99659774D01*
X112340226Y-99803937D01*
X112509744Y-99917205D01*
X112698102Y-99995226D01*
X112898061Y-100035000D01*
X113101939Y-100035000D01*
X113301898Y-99995226D01*
X113490256Y-99917205D01*
X113659774Y-99803937D01*
X113803937Y-99659774D01*
X113917205Y-99490256D01*
X113995226Y-99301898D01*
X114035000Y-99101939D01*
X114035000Y-98898061D01*
X113995226Y-98698102D01*
X113917205Y-98509744D01*
X113803937Y-98340226D01*
X113659774Y-98196063D01*
X113490256Y-98082795D01*
X113301898Y-98004774D01*
X113101939Y-97965000D01*
X112898061Y-97965000D01*
X112698102Y-98004774D01*
X112509744Y-98082795D01*
X112340226Y-98196063D01*
X112196063Y-98340226D01*
X112082795Y-98509744D01*
X112004774Y-98698102D01*
X111965000Y-98898061D01*
X105791000Y-98898061D01*
X105791000Y-94996000D01*
X105788560Y-94971224D01*
X105781333Y-94947399D01*
X105769597Y-94925443D01*
X105753803Y-94906197D01*
X105734557Y-94890403D01*
X105712601Y-94878667D01*
X105688776Y-94871440D01*
X105664000Y-94869000D01*
X99695000Y-94869000D01*
X99695000Y-91338967D01*
X106365000Y-91338967D01*
X106365000Y-91661033D01*
X106427832Y-91976912D01*
X106551082Y-92274463D01*
X106730013Y-92542252D01*
X106957748Y-92769987D01*
X107225537Y-92948918D01*
X107523088Y-93072168D01*
X107838967Y-93135000D01*
X108161033Y-93135000D01*
X108476912Y-93072168D01*
X108774463Y-92948918D01*
X109042252Y-92769987D01*
X109269987Y-92542252D01*
X109448918Y-92274463D01*
X109572168Y-91976912D01*
X109635000Y-91661033D01*
X109635000Y-91338967D01*
X112865000Y-91338967D01*
X112865000Y-91661033D01*
X112927832Y-91976912D01*
X113051082Y-92274463D01*
X113230013Y-92542252D01*
X113457748Y-92769987D01*
X113725537Y-92948918D01*
X114023088Y-93072168D01*
X114338967Y-93135000D01*
X114661033Y-93135000D01*
X114976912Y-93072168D01*
X115274463Y-92948918D01*
X115542252Y-92769987D01*
X115769987Y-92542252D01*
X115948918Y-92274463D01*
X116072168Y-91976912D01*
X116135000Y-91661033D01*
X116135000Y-91338967D01*
X116072168Y-91023088D01*
X115948918Y-90725537D01*
X115769987Y-90457748D01*
X115601652Y-90289413D01*
X123250192Y-90289413D01*
X123345956Y-90553814D01*
X123635571Y-90694704D01*
X123947108Y-90776384D01*
X124268595Y-90795718D01*
X124587675Y-90751961D01*
X124892088Y-90646795D01*
X125066044Y-90553814D01*
X125161808Y-90289413D01*
X124206000Y-89333605D01*
X123250192Y-90289413D01*
X115601652Y-90289413D01*
X115542252Y-90230013D01*
X115274463Y-90051082D01*
X114976912Y-89927832D01*
X114661033Y-89865000D01*
X114338967Y-89865000D01*
X114023088Y-89927832D01*
X113725537Y-90051082D01*
X113457748Y-90230013D01*
X113230013Y-90457748D01*
X113051082Y-90725537D01*
X112927832Y-91023088D01*
X112865000Y-91338967D01*
X109635000Y-91338967D01*
X109572168Y-91023088D01*
X109448918Y-90725537D01*
X109269987Y-90457748D01*
X109042252Y-90230013D01*
X108774463Y-90051082D01*
X108476912Y-89927832D01*
X108161033Y-89865000D01*
X107838967Y-89865000D01*
X107523088Y-89927832D01*
X107225537Y-90051082D01*
X106957748Y-90230013D01*
X106730013Y-90457748D01*
X106551082Y-90725537D01*
X106427832Y-91023088D01*
X106365000Y-91338967D01*
X99695000Y-91338967D01*
X99695000Y-89216595D01*
X122564282Y-89216595D01*
X122608039Y-89535675D01*
X122713205Y-89840088D01*
X122806186Y-90014044D01*
X123070587Y-90109808D01*
X124026395Y-89154000D01*
X124385605Y-89154000D01*
X125341413Y-90109808D01*
X125605814Y-90014044D01*
X125746704Y-89724429D01*
X125828384Y-89412892D01*
X125847718Y-89091405D01*
X125803961Y-88772325D01*
X125698795Y-88467912D01*
X125605814Y-88293956D01*
X125341413Y-88198192D01*
X124385605Y-89154000D01*
X124026395Y-89154000D01*
X123070587Y-88198192D01*
X122806186Y-88293956D01*
X122665296Y-88583571D01*
X122583616Y-88895108D01*
X122564282Y-89216595D01*
X99695000Y-89216595D01*
X99695000Y-86838967D01*
X106365000Y-86838967D01*
X106365000Y-87161033D01*
X106427832Y-87476912D01*
X106551082Y-87774463D01*
X106730013Y-88042252D01*
X106957748Y-88269987D01*
X107225537Y-88448918D01*
X107523088Y-88572168D01*
X107838967Y-88635000D01*
X108161033Y-88635000D01*
X108476912Y-88572168D01*
X108774463Y-88448918D01*
X109042252Y-88269987D01*
X109269987Y-88042252D01*
X109448918Y-87774463D01*
X109572168Y-87476912D01*
X109635000Y-87161033D01*
X109635000Y-86838967D01*
X112865000Y-86838967D01*
X112865000Y-87161033D01*
X112927832Y-87476912D01*
X113051082Y-87774463D01*
X113230013Y-88042252D01*
X113457748Y-88269987D01*
X113725537Y-88448918D01*
X114023088Y-88572168D01*
X114338967Y-88635000D01*
X114661033Y-88635000D01*
X114976912Y-88572168D01*
X115274463Y-88448918D01*
X115542252Y-88269987D01*
X115769987Y-88042252D01*
X115785799Y-88018587D01*
X123250192Y-88018587D01*
X124206000Y-88974395D01*
X125161808Y-88018587D01*
X125066044Y-87754186D01*
X124776429Y-87613296D01*
X124464892Y-87531616D01*
X124143405Y-87512282D01*
X123824325Y-87556039D01*
X123519912Y-87661205D01*
X123345956Y-87754186D01*
X123250192Y-88018587D01*
X115785799Y-88018587D01*
X115948918Y-87774463D01*
X116072168Y-87476912D01*
X116135000Y-87161033D01*
X116135000Y-86838967D01*
X116072168Y-86523088D01*
X115948918Y-86225537D01*
X115769987Y-85957748D01*
X115651206Y-85838967D01*
X118365000Y-85838967D01*
X118365000Y-86161033D01*
X118427832Y-86476912D01*
X118551082Y-86774463D01*
X118730013Y-87042252D01*
X118957748Y-87269987D01*
X119225537Y-87448918D01*
X119523088Y-87572168D01*
X119838967Y-87635000D01*
X120161033Y-87635000D01*
X120476912Y-87572168D01*
X120774463Y-87448918D01*
X121042252Y-87269987D01*
X121269987Y-87042252D01*
X121448918Y-86774463D01*
X121572168Y-86476912D01*
X121635000Y-86161033D01*
X121635000Y-85838967D01*
X127365000Y-85838967D01*
X127365000Y-86161033D01*
X127427832Y-86476912D01*
X127551082Y-86774463D01*
X127730013Y-87042252D01*
X127957748Y-87269987D01*
X128225537Y-87448918D01*
X128523088Y-87572168D01*
X128838967Y-87635000D01*
X129161033Y-87635000D01*
X129476912Y-87572168D01*
X129774463Y-87448918D01*
X130042252Y-87269987D01*
X130269987Y-87042252D01*
X130448918Y-86774463D01*
X130572168Y-86476912D01*
X130635000Y-86161033D01*
X130635000Y-85838967D01*
X134365000Y-85838967D01*
X134365000Y-86161033D01*
X134427832Y-86476912D01*
X134551082Y-86774463D01*
X134730013Y-87042252D01*
X134957748Y-87269987D01*
X135225537Y-87448918D01*
X135523088Y-87572168D01*
X135838967Y-87635000D01*
X136161033Y-87635000D01*
X136476912Y-87572168D01*
X136774463Y-87448918D01*
X137042252Y-87269987D01*
X137269987Y-87042252D01*
X137448918Y-86774463D01*
X137572168Y-86476912D01*
X137635000Y-86161033D01*
X137635000Y-85838967D01*
X141365000Y-85838967D01*
X141365000Y-86161033D01*
X141427832Y-86476912D01*
X141551082Y-86774463D01*
X141730013Y-87042252D01*
X141957748Y-87269987D01*
X142225537Y-87448918D01*
X142523088Y-87572168D01*
X142838967Y-87635000D01*
X143161033Y-87635000D01*
X143476912Y-87572168D01*
X143774463Y-87448918D01*
X144042252Y-87269987D01*
X144269987Y-87042252D01*
X144448918Y-86774463D01*
X144572168Y-86476912D01*
X144635000Y-86161033D01*
X144635000Y-85838967D01*
X144572168Y-85523088D01*
X144448918Y-85225537D01*
X144269987Y-84957748D01*
X144042252Y-84730013D01*
X143774463Y-84551082D01*
X143476912Y-84427832D01*
X143161033Y-84365000D01*
X142838967Y-84365000D01*
X142523088Y-84427832D01*
X142225537Y-84551082D01*
X141957748Y-84730013D01*
X141730013Y-84957748D01*
X141551082Y-85225537D01*
X141427832Y-85523088D01*
X141365000Y-85838967D01*
X137635000Y-85838967D01*
X137572168Y-85523088D01*
X137448918Y-85225537D01*
X137269987Y-84957748D01*
X137042252Y-84730013D01*
X136774463Y-84551082D01*
X136476912Y-84427832D01*
X136161033Y-84365000D01*
X135838967Y-84365000D01*
X135523088Y-84427832D01*
X135225537Y-84551082D01*
X134957748Y-84730013D01*
X134730013Y-84957748D01*
X134551082Y-85225537D01*
X134427832Y-85523088D01*
X134365000Y-85838967D01*
X130635000Y-85838967D01*
X130572168Y-85523088D01*
X130448918Y-85225537D01*
X130269987Y-84957748D01*
X130042252Y-84730013D01*
X129774463Y-84551082D01*
X129476912Y-84427832D01*
X129161033Y-84365000D01*
X128838967Y-84365000D01*
X128523088Y-84427832D01*
X128225537Y-84551082D01*
X127957748Y-84730013D01*
X127730013Y-84957748D01*
X127551082Y-85225537D01*
X127427832Y-85523088D01*
X127365000Y-85838967D01*
X121635000Y-85838967D01*
X121572168Y-85523088D01*
X121448918Y-85225537D01*
X121269987Y-84957748D01*
X121042252Y-84730013D01*
X120774463Y-84551082D01*
X120476912Y-84427832D01*
X120161033Y-84365000D01*
X119838967Y-84365000D01*
X119523088Y-84427832D01*
X119225537Y-84551082D01*
X118957748Y-84730013D01*
X118730013Y-84957748D01*
X118551082Y-85225537D01*
X118427832Y-85523088D01*
X118365000Y-85838967D01*
X115651206Y-85838967D01*
X115542252Y-85730013D01*
X115274463Y-85551082D01*
X114976912Y-85427832D01*
X114661033Y-85365000D01*
X114338967Y-85365000D01*
X114023088Y-85427832D01*
X113725537Y-85551082D01*
X113457748Y-85730013D01*
X113230013Y-85957748D01*
X113051082Y-86225537D01*
X112927832Y-86523088D01*
X112865000Y-86838967D01*
X109635000Y-86838967D01*
X109572168Y-86523088D01*
X109448918Y-86225537D01*
X109269987Y-85957748D01*
X109042252Y-85730013D01*
X108774463Y-85551082D01*
X108476912Y-85427832D01*
X108161033Y-85365000D01*
X107838967Y-85365000D01*
X107523088Y-85427832D01*
X107225537Y-85551082D01*
X106957748Y-85730013D01*
X106730013Y-85957748D01*
X106551082Y-86225537D01*
X106427832Y-86523088D01*
X106365000Y-86838967D01*
X99695000Y-86838967D01*
X99695000Y-82898205D01*
X99702906Y-82858460D01*
X99763958Y-83005853D01*
X99927961Y-83251302D01*
X100136698Y-83460039D01*
X100382147Y-83624042D01*
X100654875Y-83737010D01*
X100944401Y-83794600D01*
X101239599Y-83794600D01*
X101529125Y-83737010D01*
X101801853Y-83624042D01*
X102047302Y-83460039D01*
X102256039Y-83251302D01*
X102362000Y-83092719D01*
X102467961Y-83251302D01*
X102676698Y-83460039D01*
X102922147Y-83624042D01*
X103194875Y-83737010D01*
X103484401Y-83794600D01*
X103779599Y-83794600D01*
X104069125Y-83737010D01*
X104341853Y-83624042D01*
X104587302Y-83460039D01*
X104796039Y-83251302D01*
X104902000Y-83092719D01*
X105007961Y-83251302D01*
X105216698Y-83460039D01*
X105462147Y-83624042D01*
X105734875Y-83737010D01*
X106024401Y-83794600D01*
X106319599Y-83794600D01*
X106609125Y-83737010D01*
X106881853Y-83624042D01*
X107127302Y-83460039D01*
X107336039Y-83251302D01*
X107442000Y-83092719D01*
X107547961Y-83251302D01*
X107756698Y-83460039D01*
X108002147Y-83624042D01*
X108274875Y-83737010D01*
X108564401Y-83794600D01*
X108859599Y-83794600D01*
X109149125Y-83737010D01*
X109421853Y-83624042D01*
X109667302Y-83460039D01*
X109876039Y-83251302D01*
X109982000Y-83092719D01*
X110087961Y-83251302D01*
X110296698Y-83460039D01*
X110542147Y-83624042D01*
X110814875Y-83737010D01*
X111104401Y-83794600D01*
X111399599Y-83794600D01*
X111689125Y-83737010D01*
X111961853Y-83624042D01*
X112207302Y-83460039D01*
X112416039Y-83251302D01*
X112522000Y-83092719D01*
X112627961Y-83251302D01*
X112836698Y-83460039D01*
X113082147Y-83624042D01*
X113354875Y-83737010D01*
X113644401Y-83794600D01*
X113939599Y-83794600D01*
X114229125Y-83737010D01*
X114501853Y-83624042D01*
X114747302Y-83460039D01*
X114956039Y-83251302D01*
X115062000Y-83092719D01*
X115167961Y-83251302D01*
X115376698Y-83460039D01*
X115622147Y-83624042D01*
X115894875Y-83737010D01*
X116184401Y-83794600D01*
X116479599Y-83794600D01*
X116769125Y-83737010D01*
X117041853Y-83624042D01*
X117287302Y-83460039D01*
X117496039Y-83251302D01*
X117602000Y-83092719D01*
X117707961Y-83251302D01*
X117916698Y-83460039D01*
X118162147Y-83624042D01*
X118434875Y-83737010D01*
X118724401Y-83794600D01*
X119019599Y-83794600D01*
X119309125Y-83737010D01*
X119581853Y-83624042D01*
X119827302Y-83460039D01*
X120036039Y-83251302D01*
X120142000Y-83092719D01*
X120247961Y-83251302D01*
X120456698Y-83460039D01*
X120702147Y-83624042D01*
X120974875Y-83737010D01*
X121264401Y-83794600D01*
X121559599Y-83794600D01*
X121849125Y-83737010D01*
X122121853Y-83624042D01*
X122367302Y-83460039D01*
X122576039Y-83251302D01*
X122682000Y-83092719D01*
X122787961Y-83251302D01*
X122996698Y-83460039D01*
X123242147Y-83624042D01*
X123514875Y-83737010D01*
X123804401Y-83794600D01*
X124099599Y-83794600D01*
X124389125Y-83737010D01*
X124661853Y-83624042D01*
X124907302Y-83460039D01*
X125116039Y-83251302D01*
X125280042Y-83005853D01*
X125393010Y-82733125D01*
X125450600Y-82443599D01*
X125450600Y-82148401D01*
X126517400Y-82148401D01*
X126517400Y-82443599D01*
X126574990Y-82733125D01*
X126687958Y-83005853D01*
X126851961Y-83251302D01*
X127060698Y-83460039D01*
X127306147Y-83624042D01*
X127578875Y-83737010D01*
X127868401Y-83794600D01*
X128163599Y-83794600D01*
X128453125Y-83737010D01*
X128725853Y-83624042D01*
X128971302Y-83460039D01*
X129180039Y-83251302D01*
X129286000Y-83092719D01*
X129391961Y-83251302D01*
X129600698Y-83460039D01*
X129846147Y-83624042D01*
X130118875Y-83737010D01*
X130408401Y-83794600D01*
X130703599Y-83794600D01*
X130993125Y-83737010D01*
X131265853Y-83624042D01*
X131511302Y-83460039D01*
X131720039Y-83251302D01*
X131826000Y-83092719D01*
X131931961Y-83251302D01*
X132140698Y-83460039D01*
X132386147Y-83624042D01*
X132658875Y-83737010D01*
X132948401Y-83794600D01*
X133243599Y-83794600D01*
X133533125Y-83737010D01*
X133805853Y-83624042D01*
X134051302Y-83460039D01*
X134260039Y-83251302D01*
X134366000Y-83092719D01*
X134471961Y-83251302D01*
X134680698Y-83460039D01*
X134926147Y-83624042D01*
X135198875Y-83737010D01*
X135488401Y-83794600D01*
X135783599Y-83794600D01*
X136073125Y-83737010D01*
X136345853Y-83624042D01*
X136591302Y-83460039D01*
X136800039Y-83251302D01*
X136906000Y-83092719D01*
X137011961Y-83251302D01*
X137220698Y-83460039D01*
X137466147Y-83624042D01*
X137738875Y-83737010D01*
X138028401Y-83794600D01*
X138323599Y-83794600D01*
X138613125Y-83737010D01*
X138885853Y-83624042D01*
X139131302Y-83460039D01*
X139340039Y-83251302D01*
X139446000Y-83092719D01*
X139551961Y-83251302D01*
X139760698Y-83460039D01*
X140006147Y-83624042D01*
X140278875Y-83737010D01*
X140568401Y-83794600D01*
X140863599Y-83794600D01*
X141153125Y-83737010D01*
X141425853Y-83624042D01*
X141671302Y-83460039D01*
X141880039Y-83251302D01*
X141986000Y-83092719D01*
X142091961Y-83251302D01*
X142300698Y-83460039D01*
X142546147Y-83624042D01*
X142818875Y-83737010D01*
X143108401Y-83794600D01*
X143403599Y-83794600D01*
X143693125Y-83737010D01*
X143965853Y-83624042D01*
X144211302Y-83460039D01*
X144420039Y-83251302D01*
X144526000Y-83092719D01*
X144631961Y-83251302D01*
X144840698Y-83460039D01*
X145086147Y-83624042D01*
X145358875Y-83737010D01*
X145648401Y-83794600D01*
X145943599Y-83794600D01*
X146233125Y-83737010D01*
X146505853Y-83624042D01*
X146751302Y-83460039D01*
X146960039Y-83251302D01*
X147124042Y-83005853D01*
X147237010Y-82733125D01*
X147294600Y-82443599D01*
X147294600Y-82148401D01*
X147237010Y-81858875D01*
X147124042Y-81586147D01*
X146960039Y-81340698D01*
X146751302Y-81131961D01*
X146505853Y-80967958D01*
X146233125Y-80854990D01*
X145943599Y-80797400D01*
X145648401Y-80797400D01*
X145358875Y-80854990D01*
X145086147Y-80967958D01*
X144840698Y-81131961D01*
X144631961Y-81340698D01*
X144526000Y-81499281D01*
X144420039Y-81340698D01*
X144211302Y-81131961D01*
X143965853Y-80967958D01*
X143693125Y-80854990D01*
X143403599Y-80797400D01*
X143108401Y-80797400D01*
X142818875Y-80854990D01*
X142546147Y-80967958D01*
X142300698Y-81131961D01*
X142091961Y-81340698D01*
X141986000Y-81499281D01*
X141880039Y-81340698D01*
X141671302Y-81131961D01*
X141425853Y-80967958D01*
X141153125Y-80854990D01*
X140863599Y-80797400D01*
X140568401Y-80797400D01*
X140278875Y-80854990D01*
X140006147Y-80967958D01*
X139760698Y-81131961D01*
X139551961Y-81340698D01*
X139446000Y-81499281D01*
X139340039Y-81340698D01*
X139131302Y-81131961D01*
X138885853Y-80967958D01*
X138613125Y-80854990D01*
X138323599Y-80797400D01*
X138028401Y-80797400D01*
X137738875Y-80854990D01*
X137466147Y-80967958D01*
X137220698Y-81131961D01*
X137011961Y-81340698D01*
X136906000Y-81499281D01*
X136800039Y-81340698D01*
X136591302Y-81131961D01*
X136345853Y-80967958D01*
X136073125Y-80854990D01*
X135783599Y-80797400D01*
X135488401Y-80797400D01*
X135198875Y-80854990D01*
X134926147Y-80967958D01*
X134680698Y-81131961D01*
X134471961Y-81340698D01*
X134366000Y-81499281D01*
X134260039Y-81340698D01*
X134051302Y-81131961D01*
X133805853Y-80967958D01*
X133533125Y-80854990D01*
X133243599Y-80797400D01*
X132948401Y-80797400D01*
X132658875Y-80854990D01*
X132386147Y-80967958D01*
X132140698Y-81131961D01*
X131931961Y-81340698D01*
X131826000Y-81499281D01*
X131720039Y-81340698D01*
X131511302Y-81131961D01*
X131265853Y-80967958D01*
X130993125Y-80854990D01*
X130703599Y-80797400D01*
X130408401Y-80797400D01*
X130118875Y-80854990D01*
X129846147Y-80967958D01*
X129600698Y-81131961D01*
X129391961Y-81340698D01*
X129286000Y-81499281D01*
X129180039Y-81340698D01*
X128971302Y-81131961D01*
X128725853Y-80967958D01*
X128453125Y-80854990D01*
X128163599Y-80797400D01*
X127868401Y-80797400D01*
X127578875Y-80854990D01*
X127306147Y-80967958D01*
X127060698Y-81131961D01*
X126851961Y-81340698D01*
X126687958Y-81586147D01*
X126574990Y-81858875D01*
X126517400Y-82148401D01*
X125450600Y-82148401D01*
X125393010Y-81858875D01*
X125280042Y-81586147D01*
X125116039Y-81340698D01*
X124907302Y-81131961D01*
X124661853Y-80967958D01*
X124389125Y-80854990D01*
X124099599Y-80797400D01*
X123804401Y-80797400D01*
X123514875Y-80854990D01*
X123242147Y-80967958D01*
X122996698Y-81131961D01*
X122787961Y-81340698D01*
X122682000Y-81499281D01*
X122576039Y-81340698D01*
X122367302Y-81131961D01*
X122121853Y-80967958D01*
X121849125Y-80854990D01*
X121559599Y-80797400D01*
X121264401Y-80797400D01*
X120974875Y-80854990D01*
X120702147Y-80967958D01*
X120456698Y-81131961D01*
X120247961Y-81340698D01*
X120142000Y-81499281D01*
X120036039Y-81340698D01*
X119827302Y-81131961D01*
X119581853Y-80967958D01*
X119309125Y-80854990D01*
X119019599Y-80797400D01*
X118724401Y-80797400D01*
X118434875Y-80854990D01*
X118162147Y-80967958D01*
X117916698Y-81131961D01*
X117707961Y-81340698D01*
X117602000Y-81499281D01*
X117496039Y-81340698D01*
X117287302Y-81131961D01*
X117041853Y-80967958D01*
X116769125Y-80854990D01*
X116479599Y-80797400D01*
X116184401Y-80797400D01*
X115894875Y-80854990D01*
X115622147Y-80967958D01*
X115376698Y-81131961D01*
X115167961Y-81340698D01*
X115062000Y-81499281D01*
X114956039Y-81340698D01*
X114747302Y-81131961D01*
X114501853Y-80967958D01*
X114229125Y-80854990D01*
X113939599Y-80797400D01*
X113644401Y-80797400D01*
X113354875Y-80854990D01*
X113082147Y-80967958D01*
X112836698Y-81131961D01*
X112627961Y-81340698D01*
X112522000Y-81499281D01*
X112416039Y-81340698D01*
X112207302Y-81131961D01*
X111961853Y-80967958D01*
X111689125Y-80854990D01*
X111399599Y-80797400D01*
X111104401Y-80797400D01*
X110814875Y-80854990D01*
X110542147Y-80967958D01*
X110296698Y-81131961D01*
X110087961Y-81340698D01*
X109982000Y-81499281D01*
X109876039Y-81340698D01*
X109667302Y-81131961D01*
X109421853Y-80967958D01*
X109149125Y-80854990D01*
X108859599Y-80797400D01*
X108564401Y-80797400D01*
X108274875Y-80854990D01*
X108002147Y-80967958D01*
X107756698Y-81131961D01*
X107547961Y-81340698D01*
X107442000Y-81499281D01*
X107336039Y-81340698D01*
X107127302Y-81131961D01*
X106881853Y-80967958D01*
X106609125Y-80854990D01*
X106319599Y-80797400D01*
X106024401Y-80797400D01*
X105734875Y-80854990D01*
X105462147Y-80967958D01*
X105216698Y-81131961D01*
X105007961Y-81340698D01*
X104902000Y-81499281D01*
X104796039Y-81340698D01*
X104587302Y-81131961D01*
X104341853Y-80967958D01*
X104069125Y-80854990D01*
X103779599Y-80797400D01*
X103484401Y-80797400D01*
X103194875Y-80854990D01*
X102922147Y-80967958D01*
X102676698Y-81131961D01*
X102467961Y-81340698D01*
X102362000Y-81499281D01*
X102256039Y-81340698D01*
X102047302Y-81131961D01*
X101801853Y-80967958D01*
X101529125Y-80854990D01*
X101239599Y-80797400D01*
X100944401Y-80797400D01*
X100654875Y-80854990D01*
X100382147Y-80967958D01*
X100136698Y-81131961D01*
X99927961Y-81340698D01*
X99763958Y-81586147D01*
X99702906Y-81733540D01*
X99695000Y-81693795D01*
X99695000Y-80416000D01*
X146538620Y-80416000D01*
X147676000Y-81553381D01*
M02*
