M48
; DRILL file {KiCad (5.1.5)-3} date 5/16/2020 1:36:44 AM
; FORMAT={-:-/ absolute / inch / decimal}
; #@! TF.CreationDate,2020-05-16T01:36:44+02:00
; #@! TF.GenerationSoftware,Kicad,Pcbnew,(5.1.5)-3
; #@! TF.FileFunction,Plated,1,4,PTH
FMAT,2
INCH
T1C0.0157
T2C0.0315
T3C0.0394
T4C0.0400
T5C0.0433
%
G90
G05
T1
X4.4488Y-3.8976
X4.6457Y-3.9764
T2
X4.94Y-4.33
X4.94Y-4.5269
X3.41Y-3.84
X3.4887Y-3.84
X3.77Y-3.55
X3.77Y-3.85
X5.41Y-4.42
X5.41Y-4.72
X4.68Y-4.19
X4.68Y-4.49
X3.38Y-3.57
X3.5769Y-3.57
X4.88Y-4.78
X4.9587Y-4.78
X5.19Y-4.52
X5.19Y-4.82
X3.59Y-4.62
X3.89Y-4.62
X4.1131Y-4.69
X4.31Y-4.69
X3.92Y-4.04
X3.92Y-4.34
X4.12Y-4.13
X4.12Y-4.23
X4.12Y-4.33
X4.12Y-4.43
X4.42Y-4.13
X4.42Y-4.23
X4.42Y-4.33
X4.42Y-4.43
X3.39Y-4.94
X3.69Y-4.94
X3.3413Y-4.56
X3.42Y-4.56
T3
X4.7244Y-3.3858
X5.6299Y-3.3858
X5.0787Y-3.3858
X3.67Y-4.13
X3.67Y-4.23
X3.67Y-4.33
X4.7244Y-4.8425
X5.3543Y-3.3858
X4.53Y-4.64
X5.41Y-4.84
X5.2Y-4.02
X4.89Y-3.51
X4.06Y-3.85
X3.39Y-3.37
T4
X3.98Y-3.24
X4.08Y-3.24
X4.18Y-3.24
X4.28Y-3.24
X4.34Y-5.14
X4.38Y-3.24
X4.44Y-5.14
X4.48Y-3.24
X4.54Y-5.14
X4.58Y-3.24
X4.64Y-5.14
X4.68Y-3.24
X4.74Y-5.14
X4.78Y-3.24
X4.84Y-5.14
X4.88Y-3.24
X4.94Y-5.14
X5.04Y-3.24
X5.04Y-5.14
X5.14Y-3.24
X5.24Y-3.24
X5.24Y-5.14
X5.34Y-3.24
X5.34Y-5.14
X5.44Y-3.24
X5.44Y-5.14
X5.54Y-3.24
X5.54Y-5.14
X5.64Y-3.24
X5.64Y-5.14
X5.74Y-3.24
X5.74Y-5.14
X5.745Y-4.04
X5.745Y-4.14
X5.745Y-4.24
X5.845Y-4.04
X5.845Y-4.14
X5.845Y-4.24
T5
X4.252Y-3.4252
X4.252Y-3.6024
X4.5079Y-3.4252
X4.5079Y-3.6024
T0
M30
